<svg xmlns="http://www.w3.org/2000/svg" width="275.964" height="186.837" viewBox="0 0 275.964 186.837">
  <g id="Group_304" data-name="Group 304" transform="translate(-185 -3746.608)">
    <g id="Group_303" data-name="Group 303" transform="translate(185 3746.608)">
      <g id="Group_300" data-name="Group 300" transform="translate(1.632 174.629)">
        <path id="Path_545" data-name="Path 545" d="M138.223,304.256a3.333,3.333,0,0,0,.981-2.523,3,3,0,0,0-.332-1.414,2.953,2.953,0,0,0-.831-.99,4.556,4.556,0,0,0-1.105-.581,5.716,5.716,0,0,0-1.12-.313,6.1,6.1,0,0,0-.985-.086h-4.906v11.858h1.426V305.59H134.6l3.574,4.618h1.812l-3.766-4.881A4.469,4.469,0,0,0,138.223,304.256Zm-.444-2.523a2.178,2.178,0,0,1-.76,1.813,4.228,4.228,0,0,1-2.591.654h-3.076v-4.455h3.687a3.446,3.446,0,0,1,1.981.559A1.64,1.64,0,0,1,137.779,301.733Z" transform="translate(-129.925 -298.193)" fill="#5a5b5a"/>
        <path id="Path_546" data-name="Path 546" d="M166.243,310.208h8.537v-1.394h-7.149v-3.863h6.444v-1.393h-6.444v-3.8h7.149V298.35h-8.5Z" transform="translate(-138.198 -298.193)" fill="#5a5b5a"/>
        <path id="Path_547" data-name="Path 547" d="M205.713,304.751a3.366,3.366,0,0,0-.937-.582,6.01,6.01,0,0,0-1-.371,9.443,9.443,0,0,0-1.086-.272c-2.185-.525-2.789-1.1-2.9-1.5a1.7,1.7,0,0,1-.066-.525,1.684,1.684,0,0,1,.713-1.476,2.978,2.978,0,0,1,1.728-.483h.114a5.038,5.038,0,0,1,1.731.381,3.373,3.373,0,0,1,1.261.8l.241.266.9-1.151-.188-.188c-.006-.008-.044-.042-.11-.1l-.1-.09c-.131-.113-.244-.2-.331-.273s-.224-.159-.406-.276a2.836,2.836,0,0,0-.591-.32c-.19-.079-.408-.154-.656-.235a4.522,4.522,0,0,0-.876-.164,6.069,6.069,0,0,0-.971-.008,4.715,4.715,0,0,0-2.883.985,2.956,2.956,0,0,0-1.058,2.331,2.8,2.8,0,0,0,1.11,2.277,7.233,7.233,0,0,0,3.2,1.236,3.475,3.475,0,0,1,2.5,1.315c.344.6.179,1.261-.511,2.033a1.626,1.626,0,0,1-.848.485,3.314,3.314,0,0,1-.883.122c-.11,0-.222-.007-.366-.02h-.08a4.8,4.8,0,0,1-3.433-1.531l-.222-.218-1.052,1.115.292.2c.064.041.245.176.534.4a6.554,6.554,0,0,0,.764.527c.185.113.457.249.812.419a4.671,4.671,0,0,0,1.212.385,8.02,8.02,0,0,0,1.436.121,4.568,4.568,0,0,0,1.559-.27,3.766,3.766,0,0,0,1.259-.73,3.9,3.9,0,0,0,.836-1.061,2.763,2.763,0,0,0,.333-1.323,3.564,3.564,0,0,0-.31-1.41A2.924,2.924,0,0,0,205.713,304.751Z" transform="translate(-145.35 -298.152)" fill="#5a5b5a"/>
        <rect id="Rectangle_139" data-name="Rectangle 139" width="1.388" height="11.857" transform="translate(80.042 0.157)" fill="#5a5b5a"/>
        <path id="Path_548" data-name="Path 548" d="M263.593,298.35h-3.687v11.858h4.219a6.372,6.372,0,0,0,3.284-.925,6.715,6.715,0,0,0,1.449-1.185,5.492,5.492,0,0,0,1.031-1.74,6.439,6.439,0,0,0,.388-2.256,5.24,5.24,0,0,0-1.9-4.11A7.041,7.041,0,0,0,263.593,298.35Zm5.271,6.1a3.482,3.482,0,0,1-.39,1.578,6.192,6.192,0,0,1-.985,1.422,4.189,4.189,0,0,1-1.441.988,4.836,4.836,0,0,1-1.914.374h-2.805v-9.069h2.585a6.229,6.229,0,0,1,1.273.134,4.934,4.934,0,0,1,1.277.484,4.371,4.371,0,0,1,1.128.866,5.1,5.1,0,0,1,.885,1.356A4.431,4.431,0,0,1,268.864,304.453Z" transform="translate(-159.535 -298.193)" fill="#5a5b5a"/>
        <path id="Path_549" data-name="Path 549" d="M297.615,310.208h8.538v-1.394h-7.144v-3.863h6.439v-1.393h-6.439v-3.8h7.144V298.35h-8.5Z" transform="translate(-168.126 -298.193)" fill="#5a5b5a"/>
        <path id="Path_550" data-name="Path 550" d="M341.582,307.452l-7.277-9.1h-1.23v11.857h1.394v-9.48l7.526,9.48h.98V298.35h-1.393Z" transform="translate(-176.204 -298.193)" fill="#5a5b5a"/>
        <path id="Path_551" data-name="Path 551" d="M378.673,298.671l-.063-.018a6.2,6.2,0,0,0-4.883-.012,5.726,5.726,0,0,0-1.876,1.347,6.161,6.161,0,0,0-1.207,1.944,6.554,6.554,0,0,0-.006,4.65,5.92,5.92,0,0,0,1.2,1.931,5.681,5.681,0,0,0,1.866,1.334,5.816,5.816,0,0,0,2.439.505,5.534,5.534,0,0,0,2.378-.495.747.747,0,0,0,.194-.066,5.928,5.928,0,0,0,1.689-1.219l.082-.087v-2.5l-.561.911a6.4,6.4,0,0,1-.535.73,4.705,4.705,0,0,1-.957.761c-.151.087-.309.161-.463.236a4.54,4.54,0,0,1-3.591,0,4.478,4.478,0,0,1-1.42-1.015,4.794,4.794,0,0,1-.934-1.507,5.155,5.155,0,0,1-.337-1.885,5.081,5.081,0,0,1,.334-1.848,4.789,4.789,0,0,1,.921-1.5,4.355,4.355,0,0,1,1.407-1,4.565,4.565,0,0,1,3.588.007c.17.08.334.165.485.254a4.169,4.169,0,0,1,.931.765,5.591,5.591,0,0,1,.652.789l.564.882v-2.517l-.17-.162A5.873,5.873,0,0,0,378.673,298.671Z" transform="translate(-184.665 -298.147)" fill="#5a5b5a"/>
        <rect id="Rectangle_140" data-name="Rectangle 140" width="1.394" height="11.857" transform="translate(214.729 0.157)" fill="#5a5b5a"/>
        <path id="Path_552" data-name="Path 552" d="M439.053,298.35l-5.437,11.858h1.538l1.485-3.173h6.2l1.439,3.173h1.607L440.24,298.35Zm-1.8,7.339,2.41-5.424,2.558,5.424Z" transform="translate(-199.108 -298.193)" fill="#5a5b5a"/>
        <path id="Path_553" data-name="Path 553" d="M474.116,308.832V298.35h-1.394v11.857h7.994v-1.376Z" transform="translate(-208.016 -298.193)" fill="#5a5b5a"/>
      </g>
      <g id="Group_301" data-name="Group 301" transform="translate(0 117.546)">
        <path id="Path_554" data-name="Path 554" d="M151.569,224.309a22.951,22.951,0,0,1,16.58,6.591,1.719,1.719,0,0,1,0,2.351l-2.025,2.022a1.672,1.672,0,0,1-2.415,0,16.69,16.69,0,0,0-12.14-4.765,17.558,17.558,0,0,0,0,35.116,17.058,17.058,0,0,0,12.14-4.766,1.676,1.676,0,0,1,2.415,0l2.025,2.025a1.717,1.717,0,0,1,0,2.35,23.442,23.442,0,0,1-16.58,6.591,23.757,23.757,0,1,1,0-47.514Z" transform="translate(-127.812 -224.243)" fill="#ff5100"/>
        <path id="Path_555" data-name="Path 555" d="M211.245,224.223a23.79,23.79,0,1,1-23.757,23.823A23.789,23.789,0,0,1,211.245,224.223Zm0,41.381a17.59,17.59,0,1,0-17.492-17.558A17.536,17.536,0,0,0,211.245,265.6Z" transform="translate(-141.407 -224.223)" fill="#ff5100"/>
        <path id="Path_556" data-name="Path 556" d="M265.066,258.337a1.444,1.444,0,0,0-1.305,1.5v9.855a1.658,1.658,0,0,1-1.632,1.632h-2.938a1.658,1.658,0,0,1-1.631-1.632V226.681a1.594,1.594,0,0,1,1.631-1.7h7.571c13.12,0,23.825,4.178,23.825,16.709,0,6.069-2.546,10.183-6.724,12.793-1.371,1.174-1.7,1.763-1.045,3.524L288.3,269.3c.457,1.045.457,2.023-1.045,2.023H283.6a1.881,1.881,0,0,1-1.828-.978L276.031,258.4c-.2-.392-1.044-.652-2.023-.521a63.6,63.6,0,0,1-7.246.457Zm.131-27.087a1.449,1.449,0,0,0-1.436,1.436V250.5a1.453,1.453,0,0,0,1.371,1.633h1.631c9.726,0,17.558-2.741,17.558-10.444,0-7.767-7.832-10.442-17.558-10.442Z" transform="translate(-157.369 -224.396)" fill="#ff5100"/>
        <path id="Path_557" data-name="Path 557" d="M313.775,224.984a1.594,1.594,0,0,1,1.63,1.7v43.013a1.658,1.658,0,0,1-1.63,1.632h-2.938a1.658,1.658,0,0,1-1.633-1.632V226.681a1.594,1.594,0,0,1,1.633-1.7Z" transform="translate(-169.134 -224.396)" fill="#ff5100"/>
        <path id="Path_558" data-name="Path 558" d="M360.761,224.984a1.594,1.594,0,0,1,1.633,1.7v43.013a1.658,1.658,0,0,1-1.633,1.632h-2.61a1.851,1.851,0,0,1-1.764-.783L335.634,239.6c-.328-.458-1.633-.782-1.633,1.307v28.783a1.658,1.658,0,0,1-1.633,1.632h-2.934a1.658,1.658,0,0,1-1.633-1.632V226.681a1.594,1.594,0,0,1,1.633-1.7h2.934a1.86,1.86,0,0,1,1.568.978l20.691,30.809c.456.651,1.568,1.043,1.568-1.177V226.681a1.594,1.594,0,0,1,1.63-1.7Z" transform="translate(-173.371 -224.396)" fill="#ff5100"/>
        <path id="Path_559" data-name="Path 559" d="M379.361,226.681a1.594,1.594,0,0,1,1.633-1.7h29.567a1.672,1.672,0,0,1,1.63,1.7v2.873a1.717,1.717,0,0,1-1.63,1.7H400.249a1.435,1.435,0,0,0-1.371,1.436v37.007a1.658,1.658,0,0,1-1.633,1.632h-2.934a1.658,1.658,0,0,1-1.633-1.632V232.882c0-.784-.588-1.632-1.3-1.632H380.994a1.631,1.631,0,0,1-1.633-1.7Z" transform="translate(-185.116 -224.396)" fill="#ff5100"/>
        <path id="Path_560" data-name="Path 560" d="M447.328,224.223a23.79,23.79,0,1,1-23.757,23.823A23.788,23.788,0,0,1,447.328,224.223Zm0,41.381a17.59,17.59,0,1,0-17.491-17.558A17.537,17.537,0,0,0,447.328,265.6Z" transform="translate(-195.188 -224.223)" fill="#ff5100"/>
      </g>
      <g id="Group_302" data-name="Group 302" transform="translate(58.617 0)">
        <path id="Path_561" data-name="Path 561" d="M306.466,171.481s17.062,16.1,40.1,6.317c25.567-10.855,39.287-40.064,39.287-40.064s-33.952-10.132-57.915.046" transform="translate(-227.128 -85.952)" fill="#005155"/>
        <path id="Path_562" data-name="Path 562" d="M283.113,171.536s-17.062,16.1-40.105,6.317c-25.563-10.855-39.285-40.064-39.285-40.064s33.952-9.876,57.917.3" transform="translate(-203.722 -86.007)" fill="#005155"/>
        <path id="Path_563" data-name="Path 563" d="M276.338,105.02a99.312,99.312,0,0,0-28.784-14.491s-3.944,32.773,9.765,54.281c11.889,18.653,35.672,16.97,35.672,16.97" transform="translate(-213.587 -76.221)" fill="#ff5100"/>
        <path id="Path_564" data-name="Path 564" d="M323.342,104.8a99.437,99.437,0,0,1,28.479-14.274s3.948,32.773-9.762,54.281c-11.889,18.653-35.673,16.97-35.673,16.97" transform="translate(-227.109 -76.221)" fill="#ff5100"/>
        <path id="Path_565" data-name="Path 565" d="M300.1,72s-21.379,26.051-21.379,52.084c0,22.58,21.4,34.183,21.4,34.183s21.495-9.4,21.495-34.438C321.622,96.057,300.1,72,300.1,72Z" transform="translate(-220.808 -72)" fill="#f0b124"/>
        <path id="Path_566" data-name="Path 566" d="M303.861,124.138s-9,10.962-9,21.924c0,9.5,9.008,14.385,9.008,14.385a16.159,16.159,0,0,0,9.047-14.493C312.915,134.265,303.861,124.138,303.861,124.138Z" transform="translate(-224.484 -83.877)" fill="#fff"/>
      </g>
    </g>
  </g>
</svg>
