<svg height="512" viewBox="0 0 32 32" width="512" xmlns="http://www.w3.org/2000/svg"><g id="SHARE"><path d="m29 14h-1v-8.5a3.4907 3.4907 0 0 0 -6.967-.326 2.9944 2.9944 0 0 0 -2.033 2.826v1a1 1 0 0 0 1 1h4a1 1 0 0 0 1-1v-1a2.9962 2.9962 0 0 0 -1.9683-2.8059 1.5 1.5 0 0 1 2.9683.3059v8.5h-23a1 1 0 0 0 0 2v3.2412a8.761 8.761 0 0 0 5 7.8993v1.8595a1 1 0 0 0 1 1h1a1 1 0 0 0 1-1v-1.0385c.2506.0217.5027.0385.7588.0385h8.4824c.2561 0 .5082-.0168.7588-.0385v1.0385a1 1 0 0 0 1 1h1a1 1 0 0 0 1-1v-1.8594a8.7607 8.7607 0 0 0 5-7.8994v-3.2412a1 1 0 0 0 0-2z"/></g></svg>