<?xml version="1.0" encoding="UTF-8" standalone="no"?>
<!-- Created with Inkscape (http://www.inkscape.org/) -->

<svg
   width="135.46666mm"
   height="135.46666mm"
   viewBox="0 0 135.46666 135.46666"
   version="1.1"
   id="svg5"
   xml:space="preserve"
   inkscape:version="1.2.1 (9c6d41e410, 2022-07-14)"
   sodipodi:docname="construccion.svg"
   xmlns:inkscape="http://www.inkscape.org/namespaces/inkscape"
   xmlns:sodipodi="http://sodipodi.sourceforge.net/DTD/sodipodi-0.dtd"
   xmlns="http://www.w3.org/2000/svg"
   xmlns:svg="http://www.w3.org/2000/svg"><sodipodi:namedview
     id="namedview7"
     pagecolor="#ffffff"
     bordercolor="#000000"
     borderopacity="0.25"
     inkscape:showpageshadow="2"
     inkscape:pageopacity="0.0"
     inkscape:pagecheckerboard="0"
     inkscape:deskcolor="#d1d1d1"
     inkscape:document-units="mm"
     showgrid="false"
     inkscape:zoom="0.75098906"
     inkscape:cx="194.41029"
     inkscape:cy="244.34444"
     inkscape:window-width="1920"
     inkscape:window-height="1001"
     inkscape:window-x="2391"
     inkscape:window-y="-9"
     inkscape:window-maximized="1"
     inkscape:current-layer="layer1" /><defs
     id="defs2" /><g
     inkscape:label="Capa 1"
     inkscape:groupmode="layer"
     id="layer1"
     transform="translate(-31.971299,-84.113644)"><path
       style="fill:#010101;stroke:none;stroke-width:1"
       d="m 127.48588,84.113644 v 17.727086 h 39.95208 V 84.113644 H 127.48588 M 31.971299,124.85948 v 17.72708 h 39.95208 v -17.72708 h -39.95208 m 47.88958,0 v 17.72708 H 119.54838 V 124.85948 H 79.860879 m -47.88958,25.66458 v 17.72708 h 15.875 v -17.72708 h -15.875 m 23.8125,0 v 17.72708 h 39.95208 v -17.72708 h -39.95208 m 47.889581,0 v 17.72708 h 39.95208 v -17.72708 h -39.95208 m 47.88958,0 v 17.72708 h 15.875 v -17.72708 h -15.875 M 31.971299,176.18864 v 17.72709 h 39.95208 v -17.72709 h -39.95208 m 47.88958,0 v 17.72709 H 119.54838 V 176.18864 H 79.860879 m 47.625001,0 v 17.72709 h 39.95208 v -17.72709 h -39.95208 m -95.514581,25.66459 v 17.72708 h 15.875 v -17.72708 h -15.875 m 23.8125,0 v 17.72708 h 39.95208 v -17.72708 h -39.95208 m 47.889581,0 v 17.72708 h 39.95208 v -17.72708 h -39.95208 m 47.88958,0 v 17.72708 h 15.875 v -17.72708 z"
       id="path461" /></g></svg>
