<svg id="Capa_1" enable-background="new 0 0 482.001 482.001" height="512" viewBox="0 0 482.001 482.001" width="512" xmlns="http://www.w3.org/2000/svg"><g><path d="m376.37 45v45h-30v-45h-211v45h-30v-45h-105.37v75h482v-75z"/><path d="m0 471h255.16c-89.673-87.36-26.85-243.265 99.712-242.999 55.588-.001 103.828 32.109 127.128 78.769v-156.77h-482zm205.37-283h71v30h-71zm-141.5 0h71v30h-71zm0 100h71v30h-71zm0 100h71v30h-71z"/><path d="m354.87 258c-111.374.932-153.155 144.58-61.698 205.43 17.698 11.73 38.918 18.57 61.698 18.57 61.888.198 112.22-50.958 112-112 0-61.76-50.24-112-112-112zm39.62 155.3c-5.13 9.61-13.65 16.98-23.87 20.7v18h-30c0-3.076 0-13.432 0-16.32-6.82-1.21-13.07-3.78-20.96-8.94l-12.55-8.21 16.42-25.11 12.55 8.22c7.22 4.72 9.54 5.08 19.44 5.02 9.49-.06 13.27-7.51 14-11.9.97-5.71-1.52-9.65-7.37-11.72-12.36-4.37-25.03-9.38-34.02-16.43-21.594-16.85-12.039-53.058 12.49-62.48v-17.13h30v14.97c13.922 3.142 20.904 8.482 31.58 13.94l-14.23 26.41c-9-4.221-22.231-15.025-35.59-10.59-4.724 1.716-7.651 8.061-5.73 11.27 5.6 4.39 16.03 8.41 25.5 11.75 24.74 8.182 34.515 36.427 22.35 58.55z"/><path d="m346.37 0h30v45h-30z"/><path d="m105.37 0h30v45h-30z"/></g></svg>