<?xml version="1.0" encoding="UTF-8"?><svg id="Capa_1" xmlns="http://www.w3.org/2000/svg" viewBox="0 0 50 50"><path d="m27.3,3.62c-1.27-1.27-3.33-1.27-4.6,0L1.07,25.24c-.64.64-.64,1.67,0,2.3.64.64,1.67.64,2.3,0h0L25,5.92l21.62,21.63c.64.64,1.67.64,2.3,0s.64-1.67,0-2.3l-7.66-7.66V6.87c0-.9-.73-1.63-1.63-1.63h-3.25c-.9,0-1.63.73-1.63,1.63v4.21l-7.46-7.46Z"/><path d="m25,9.45L5.48,28.97v.02h39.04v-.02L25,9.45Zm3.16,16.27h-6.31c.02-.66.16-1.26.43-1.81.26-.61.87-1.26,1.83-1.95.83-.6,1.37-1.03,1.62-1.28.38-.4.57-.84.57-1.32,0-.39-.11-.71-.32-.97s-.53-.39-.93-.39c-.55,0-.93.21-1.12.62-.11.24-.18.61-.2,1.13h-1.76c.03-.78.17-1.42.43-1.9.48-.92,1.34-1.38,2.58-1.38.98,0,1.75.27,2.33.81s.87,1.25.87,2.14c0,.68-.2,1.29-.61,1.82-.27.35-.71.74-1.32,1.18l-.73.51c-.45.32-.77.56-.93.7-.17.14-.31.31-.42.5h4.02v1.6Z"/><path d="m5.48,31.52v11.14c0,2.7,2.18,4.88,4.88,4.88h29.28c2.7,0,4.88-2.18,4.88-4.88v-11.14H5.48Zm20.53,12.82h-1.86v-6.35h-2.17v-1.23c.57-.03.97-.06,1.2-.12.36-.08.66-.24.89-.48.16-.17.27-.39.35-.66.05-.17.07-.29.07-.37h1.51v9.21Z"/></svg>