<?xml version="1.0" encoding="UTF-8" standalone="no"?>
<!-- Created with Inkscape (http://www.inkscape.org/) -->

<svg
   width="122.36436mm"
   height="123.6189mm"
   viewBox="0 0 122.36437 123.6189"
   version="1.1"
   id="svg185"
   xml:space="preserve"
   inkscape:version="1.2.1 (9c6d41e410, 2022-07-14)"
   sodipodi:docname="plano.svg"
   xmlns:inkscape="http://www.inkscape.org/namespaces/inkscape"
   xmlns:sodipodi="http://sodipodi.sourceforge.net/DTD/sodipodi-0.dtd"
   xmlns="http://www.w3.org/2000/svg"
   xmlns:svg="http://www.w3.org/2000/svg"><sodipodi:namedview
     id="namedview187"
     pagecolor="#ffffff"
     bordercolor="#000000"
     borderopacity="0.25"
     inkscape:showpageshadow="2"
     inkscape:pageopacity="0.0"
     inkscape:pagecheckerboard="0"
     inkscape:deskcolor="#d1d1d1"
     inkscape:document-units="mm"
     showgrid="false"
     inkscape:zoom="0.75098906"
     inkscape:cx="177.09978"
     inkscape:cy="248.33917"
     inkscape:window-width="1920"
     inkscape:window-height="1001"
     inkscape:window-x="2391"
     inkscape:window-y="-9"
     inkscape:window-maximized="1"
     inkscape:current-layer="layer1" /><defs
     id="defs182" /><g
     inkscape:label="Capa 1"
     inkscape:groupmode="layer"
     id="layer1"
     transform="translate(-36.700197,-83.155341)"><path
       style="fill:#020202;stroke:none;stroke-width:1"
       d="m 56.315747,92.148629 h 99.218743 v 2.64583 c 0,1.44156 1.50284,5.434271 2.90804,2.35246 1.21867,-2.673 0.27173,-7.63301 0.26696,-10.554542 -0.002,-1.016953 0.11854,-2.504731 -0.89799,-3.123539 -3.06785,-1.867455 -1.57533,5.197631 -3.35095,5.685261 -1.79679,0.49345 -4.21031,0.0841 -6.06981,0.0841 H 135.42616 56.315747 c 0,-1.50619 0.37042,-3.600424 -0.26704,-4.998297 -0.55269,-1.212135 -2.21218,-1.29106 -2.74831,0 -0.98801,2.379186 -0.15965,6.658737 -0.15965,9.231627 0,1.11678 -0.33456,2.91825 0.27194,3.90832 0.59026,0.96356 1.93752,0.94684 2.51762,0 0.82491,-1.34657 0.38544,-3.71041 0.38544,-5.23123 m -13.75833,11.906241 v 99.21875 c -1.44524,0 -3.63588,-0.41011 -4.97054,0.19632 -1.18224,0.53737 -1.18224,2.24499 0,2.78236 2.30235,1.04616 6.68424,0.19632 9.20387,0.19632 1.16359,0 2.88719,0.30559 3.92957,-0.31195 0.98575,-0.58393 0.98575,-1.96717 0,-2.55111 -1.26103,-0.74692 -3.56677,-0.31194 -4.9879,-0.31194 v -99.21875 c 1.42113,0 3.72687,0.43498 4.9879,-0.31194 0.98575,-0.58399 0.98575,-1.96713 0,-2.55111 -1.04241,-0.61752 -2.76596,-0.31195 -3.92957,-0.31195 -2.51963,0 -6.90155,-0.84989 -9.20387,0.1964 -1.18224,0.53726 -1.18224,2.24494 0,2.78228 1.33469,0.60643 3.5253,0.19632 4.97054,0.19632 m 14.81693,-0.64614 c -4.18754,1.10387 -2.6461,9.02602 -2.6461,12.28781 v 38.36458 35.98333 9.525 c 0,1.46315 -0.23516,3.17685 0.5896,4.47305 1.93797,3.04588 9.74741,1.61237 12.90415,1.61237 h 28.575 c 3.892023,0 9.245863,0.95514 12.964583,-0.21273 3.91477,-1.22952 2.64583,-7.493 2.64583,-10.63519 v -23.5479 c 0,-2.54583 -0.85169,-6.90113 0.93477,-8.9461 1.94337,-2.22408 6.20739,-1.37265 8.85481,-1.37265 h 23.8125 c 2.87153,0 8.53043,1.1295 10.39072,-1.59888 1.86081,-2.72865 0.72178,-8.70823 0.72178,-11.89487 v -30.95625 c 0,-3.23242 1.41103,-10.75902 -1.85605,-12.67619 -1.95897,-1.14969 -5.21282,-0.55298 -7.40436,-0.55298 H 130.13449 80.392827 65.046997 c -2.39448,0 -5.34961,-0.46487 -7.67265,0.14761 m 33.60182,41.12739 c 2.30081,-3.48827 4.23068,-7.24482 6.34708,-10.84792 0.7292,-1.24142 1.63407,-3.51049 3.441443,-3.23797 2.75405,0.41513 1.85314,5.27791 1.85314,7.20672 v 14.81667 c 0,1.83885 0.51911,4.61566 -0.15954,6.33836 -0.54954,1.39435 -2.45004,1.52029 -2.900633,-0.003 -0.57229,-1.93331 -0.11483,-4.59026 -0.11483,-6.60003 v -6.08542 -9.26042 h -0.26458 c -1.14247,3.13849 -3.32978,6.11929 -5.02417,8.99584 -0.68025,1.15464 -1.39039,2.65033 -2.91333,2.77045 -1.50363,0.11827 -2.286,-1.11919 -2.96333,-2.24155 -1.76319,-2.921 -4.2762,-6.25237 -5.23875,-9.52474 -1.47611,4.99428 -0.26459,11.98007 -0.26459,17.19792 0,1.5367 0.66252,4.95908 -1.07368,5.7486 -2.82072,1.2827 -2.10132,-4.70588 -2.10132,-6.01318 v -17.72709 c 0,-1.70735 -0.6723,-5.09428 1.59147,-5.62319 2.68473,-0.62732 5.021,5.63007 6.08145,7.47528 1.24566,2.16773 2.71542,4.31985 3.70417,6.61458 m 19.579163,-0.79366 c 1.18401,0 6.8789,-0.16933 4.60269,2.5617 -1.28508,1.54172 -9.1911,1.31259 -8.94636,-1.50363 0.30295,-3.48827 6.05182,-6.35159 5.78671,-9.78403 -0.22199,-2.87628 -3.38455,1.31816 -4.11348,1.52982 -1.27106,0.36883 -2.24817,-0.88979 -1.90103,-2.06428 1.2356,-4.18068 8.0637,-5.9764 9.22972,-0.79375 0.85487,3.79916 -2.69848,7.17339 -4.65825,10.05417 z"
       id="path426" /></g></svg>
