<svg id="Capa_1" enable-background="new 0 0 512 512" height="512" viewBox="0 0 512 512" width="512" xmlns="http://www.w3.org/2000/svg"><g><path d="m90.353 150.588h331.294c8.317 0 15.059 6.742 15.059 15.059v331.294c0 8.317-6.742 15.059-15.059 15.059h-331.294c-8.317 0-15.059-6.742-15.059-15.059v-331.294c0-8.317 6.742-15.059 15.059-15.059zm36.355-75.294 19.469 19.469c5.881 5.881 5.881 15.416 0 21.296-5.881 5.881-15.416 5.881-21.296 0l-45.176-45.176c-5.881-5.881-5.881-15.416 0-21.296l45.176-45.176c5.881-5.881 15.416-5.881 21.296 0 5.881 5.881 5.881 15.416 0 21.296l-19.469 19.469h258.584l-19.469-19.469c-5.881-5.881-5.881-15.416 0-21.296 5.881-5.881 15.416-5.881 21.296 0l45.176 45.176c5.881 5.881 5.881 15.416 0 21.296l-45.176 45.176c-5.881 5.881-15.416 5.881-21.296 0-5.881-5.881-5.881-15.416 0-21.296l19.469-19.469z"/></g></svg>