<?xml version="1.0" encoding="UTF-8" standalone="no"?>
<!-- Created with Inkscape (http://www.inkscape.org/) -->

<svg
   width="227.69637mm"
   height="154.17589mm"
   viewBox="0 0 227.69637 154.17589"
   version="1.1"
   id="svg5"
   xml:space="preserve"
   inkscape:version="1.2.1 (9c6d41e410, 2022-07-14)"
   sodipodi:docname="corintio_blanco.svg"
   xmlns:inkscape="http://www.inkscape.org/namespaces/inkscape"
   xmlns:sodipodi="http://sodipodi.sourceforge.net/DTD/sodipodi-0.dtd"
   xmlns:xlink="http://www.w3.org/1999/xlink"
   xmlns="http://www.w3.org/2000/svg"
   xmlns:svg="http://www.w3.org/2000/svg"><sodipodi:namedview
     id="namedview7"
     pagecolor="#ffffff"
     bordercolor="#000000"
     borderopacity="0.25"
     inkscape:showpageshadow="2"
     inkscape:pageopacity="0.0"
     inkscape:pagecheckerboard="0"
     inkscape:deskcolor="#d1d1d1"
     inkscape:document-units="mm"
     showgrid="false"
     inkscape:zoom="0.53102946"
     inkscape:cx="612.01878"
     inkscape:cy="385.10105"
     inkscape:window-width="1920"
     inkscape:window-height="1001"
     inkscape:window-x="2391"
     inkscape:window-y="-9"
     inkscape:window-maximized="1"
     inkscape:current-layer="svg5" /><defs
     id="defs2"><linearGradient
       id="linearGradient78015"
       inkscape:swatch="solid"><stop
         style="stop-color:#ffffff;stop-opacity:0.59405941;"
         offset="0"
         id="stop78013" /></linearGradient><style
       id="style182">.cls-1{fill:#004e59;}.cls-2{fill:#ffad5f;}.cls-3{fill:#ff6b00;}.cls-4{fill:#00abc8;}.cls-5{fill:#00758d;}.cls-6{fill:#00bed6;}.cls-7{fill:#5fd0df;}.cls-8{fill:#ff5100;}.cls-9{fill:#423f40;}.cls-10{fill:#ff9015;}.cls-11{fill:#673918;}</style><filter
       style="color-interpolation-filters:sRGB"
       inkscape:label="Duochrome"
       id="filter4798"
       x="0"
       y="0"
       width="1"
       height="1"><feColorMatrix
         type="luminanceToAlpha"
         result="colormatrix1"
         id="feColorMatrix4778" /><feFlood
         flood-opacity="1"
         flood-color="rgb(131,131,131)"
         result="flood1"
         id="feFlood4780" /><feComposite
         in2="colormatrix1"
         operator="in"
         result="composite1"
         id="feComposite4782" /><feFlood
         flood-opacity="1"
         flood-color="rgb(255,255,255)"
         result="flood2"
         id="feFlood4784" /><feComposite
         in2="colormatrix1"
         result="composite2"
         operator="out"
         id="feComposite4786" /><feComposite
         in="composite2"
         in2="composite1"
         k2="1"
         k3="1"
         operator="arithmetic"
         result="composite3"
         id="feComposite4788"
         k1="0"
         k4="0" /><feColorMatrix
         in="composite3"
         type="matrix"
         values="2 -1 0 0 0 0 2 -1 0 0 -1 0 2 0 0 0 0 0 1 0 "
         result="colormatrix2"
         id="feColorMatrix4790" /><feComposite
         in="colormatrix2"
         in2="composite3"
         operator="arithmetic"
         k2="1.29375"
         result="composite4"
         id="feComposite4792"
         k1="0"
         k3="0"
         k4="0" /><feBlend
         in="composite4"
         in2="composite3"
         mode="normal"
         result="blend"
         id="feBlend4794" /><feComposite
         in2="SourceGraphic"
         operator="in"
         id="feComposite4796"
         result="fbSourceGraphic" /><feColorMatrix
         result="fbSourceGraphicAlpha"
         in="fbSourceGraphic"
         values="0 0 0 -1 0 0 0 0 -1 0 0 0 0 -1 0 0 0 0 1 0"
         id="feColorMatrix4800" /><feColorMatrix
         id="feColorMatrix4802"
         type="luminanceToAlpha"
         result="colormatrix1"
         in="fbSourceGraphic" /><feFlood
         id="feFlood4804"
         flood-opacity="1"
         flood-color="rgb(131,131,131)"
         result="flood1" /><feComposite
         in2="colormatrix1"
         id="feComposite4806"
         operator="in"
         result="composite1" /><feFlood
         id="feFlood4808"
         flood-opacity="1"
         flood-color="rgb(255,255,255)"
         result="flood2" /><feComposite
         in2="colormatrix1"
         id="feComposite4810"
         result="composite2"
         operator="out" /><feComposite
         in2="composite1"
         id="feComposite4812"
         in="composite2"
         k2="1"
         k3="1"
         operator="arithmetic"
         result="composite3"
         k1="0"
         k4="0" /><feColorMatrix
         id="feColorMatrix4814"
         in="composite3"
         type="matrix"
         values="2 -1 0 0 0 0 2 -1 0 0 -1 0 2 0 0 0 0 0 1 0 "
         result="colormatrix2" /><feComposite
         in2="composite3"
         id="feComposite4816"
         in="colormatrix2"
         operator="arithmetic"
         k2="1.29375"
         result="composite4"
         k1="0"
         k3="0"
         k4="0" /><feBlend
         in2="composite3"
         id="feBlend4818"
         in="composite4"
         mode="normal"
         result="blend" /><feComposite
         in2="fbSourceGraphic"
         id="feComposite4820"
         operator="in"
         result="fbSourceGraphic" /><feColorMatrix
         result="fbSourceGraphicAlpha"
         in="fbSourceGraphic"
         values="0 0 0 -1 0 0 0 0 -1 0 0 0 0 -1 0 0 0 0 1 0"
         id="feColorMatrix5108" /><feColorMatrix
         id="feColorMatrix5110"
         type="luminanceToAlpha"
         result="colormatrix1"
         in="fbSourceGraphic" /><feFlood
         id="feFlood5112"
         flood-opacity="1"
         flood-color="rgb(255,255,255)"
         result="flood1" /><feComposite
         in2="colormatrix1"
         id="feComposite5114"
         operator="in"
         result="composite1" /><feFlood
         id="feFlood5116"
         flood-opacity="1"
         flood-color="rgb(103,103,103)"
         result="flood2" /><feComposite
         in2="colormatrix1"
         id="feComposite5118"
         result="composite2"
         operator="out" /><feComposite
         in2="composite1"
         id="feComposite5120"
         in="composite2"
         k2="1"
         k3="1"
         operator="arithmetic"
         result="composite3"
         k1="0"
         k4="0" /><feColorMatrix
         id="feColorMatrix5122"
         in="composite3"
         type="matrix"
         values="2 -1 0 0 0 0 2 -1 0 0 -1 0 2 0 0 0 0 0 1 0 "
         result="colormatrix2" /><feComposite
         in2="composite3"
         id="feComposite5124"
         in="colormatrix2"
         operator="arithmetic"
         k2="1.29375"
         result="composite4"
         k1="0"
         k3="0"
         k4="0" /><feBlend
         in2="composite3"
         id="feBlend5126"
         in="composite4"
         mode="normal"
         result="blend" /><feComposite
         in2="fbSourceGraphic"
         id="feComposite5128"
         operator="in"
         result="fbSourceGraphic" /><feColorMatrix
         result="fbSourceGraphicAlpha"
         in="fbSourceGraphic"
         values="0 0 0 -1 0 0 0 0 -1 0 0 0 0 -1 0 0 0 0 1 0"
         id="feColorMatrix5284" /><feColorMatrix
         id="feColorMatrix5286"
         type="luminanceToAlpha"
         result="colormatrix1"
         in="fbSourceGraphic" /><feFlood
         id="feFlood5288"
         flood-opacity="1"
         flood-color="rgb(255,255,255)"
         result="flood1" /><feComposite
         in2="colormatrix1"
         id="feComposite5290"
         operator="in"
         result="composite1" /><feFlood
         id="feFlood5292"
         flood-opacity="1"
         flood-color="rgb(75,75,75)"
         result="flood2" /><feComposite
         in2="colormatrix1"
         id="feComposite5294"
         result="composite2"
         operator="out" /><feComposite
         in2="composite1"
         id="feComposite5296"
         in="composite2"
         k2="1"
         k3="1"
         operator="arithmetic"
         result="composite3"
         k1="0"
         k4="0" /><feColorMatrix
         id="feColorMatrix5298"
         in="composite3"
         type="matrix"
         values="2 -1 0 0 0 0 2 -1 0 0 -1 0 2 0 0 0 0 0 1 0 "
         result="colormatrix2" /><feComposite
         in2="composite3"
         id="feComposite5300"
         in="colormatrix2"
         operator="arithmetic"
         k2="1.29375"
         result="composite4"
         k1="0"
         k3="0"
         k4="0" /><feBlend
         in2="composite3"
         id="feBlend5302"
         in="composite4"
         mode="normal"
         result="blend" /><feComposite
         in2="fbSourceGraphic"
         id="feComposite5304"
         operator="in" /></filter><style
       id="style7910">.cls-1{fill:#004e59;}.cls-2{fill:#ffad5f;}.cls-3{fill:#ff6b00;}.cls-4{fill:#00abc8;}.cls-5{fill:#00758d;}.cls-6{fill:#00bed6;}.cls-7{fill:#5fd0df;}.cls-8{fill:#ff5100;}.cls-9{fill:#423f40;}.cls-10{fill:#ff9015;}.cls-11{fill:#673918;}</style><style
       id="style74901">.cls-1{fill:#004e59;}.cls-2{fill:#ffad5f;}.cls-3{fill:#ff6b00;}.cls-4{fill:#00abc8;}.cls-5{fill:#00758d;}.cls-6{fill:#00bed6;}.cls-7{fill:#5fd0df;}.cls-8{fill:#ff5100;}.cls-9{fill:#423f40;}.cls-10{fill:#ff9015;}.cls-11{fill:#673918;}</style><style
       id="style77568">.cls-1{fill:#fff;}.cls-2{fill:#5e5f5f;}.cls-3{fill:#e63a2b;}.cls-4{fill:#005156;}.cls-5{fill:#f9b54c;}</style><linearGradient
       inkscape:collect="always"
       xlink:href="#linearGradient78015"
       id="linearGradient78017"
       x1="8.9399996"
       y1="106.75"
       x2="291.04999"
       y2="106.75"
       gradientUnits="userSpaceOnUse" /><linearGradient
       inkscape:collect="always"
       xlink:href="#linearGradient78015"
       id="linearGradient78019"
       gradientUnits="userSpaceOnUse"
       x1="8.9399996"
       y1="106.75"
       x2="291.04999"
       y2="106.75" /><linearGradient
       inkscape:collect="always"
       xlink:href="#linearGradient78015"
       id="linearGradient78021"
       gradientUnits="userSpaceOnUse"
       x1="8.9399996"
       y1="106.75"
       x2="291.04999"
       y2="106.75" /><linearGradient
       inkscape:collect="always"
       xlink:href="#linearGradient78015"
       id="linearGradient78023"
       gradientUnits="userSpaceOnUse"
       x1="8.9399996"
       y1="106.75"
       x2="291.04999"
       y2="106.75" /><linearGradient
       inkscape:collect="always"
       xlink:href="#linearGradient78015"
       id="linearGradient78025"
       gradientUnits="userSpaceOnUse"
       x1="8.9399996"
       y1="106.75"
       x2="291.04999"
       y2="106.75" /><linearGradient
       inkscape:collect="always"
       xlink:href="#linearGradient78015"
       id="linearGradient78027"
       gradientUnits="userSpaceOnUse"
       x1="8.9399996"
       y1="106.75"
       x2="291.04999"
       y2="106.75" /><linearGradient
       inkscape:collect="always"
       xlink:href="#linearGradient78015"
       id="linearGradient78029"
       gradientUnits="userSpaceOnUse"
       x1="8.9399996"
       y1="106.75"
       x2="291.04999"
       y2="106.75" /><linearGradient
       inkscape:collect="always"
       xlink:href="#linearGradient78015"
       id="linearGradient78031"
       gradientUnits="userSpaceOnUse"
       x1="8.9399996"
       y1="106.75"
       x2="291.04999"
       y2="106.75" /><linearGradient
       inkscape:collect="always"
       xlink:href="#linearGradient78015"
       id="linearGradient78033"
       gradientUnits="userSpaceOnUse"
       x1="8.9399996"
       y1="106.75"
       x2="291.04999"
       y2="106.75" /><linearGradient
       inkscape:collect="always"
       xlink:href="#linearGradient78015"
       id="linearGradient78035"
       gradientUnits="userSpaceOnUse"
       x1="8.9399996"
       y1="106.75"
       x2="291.04999"
       y2="106.75" /><linearGradient
       inkscape:collect="always"
       xlink:href="#linearGradient78015"
       id="linearGradient78037"
       gradientUnits="userSpaceOnUse"
       x1="8.9399996"
       y1="106.75"
       x2="291.04999"
       y2="106.75" /><linearGradient
       inkscape:collect="always"
       xlink:href="#linearGradient78015"
       id="linearGradient78039"
       gradientUnits="userSpaceOnUse"
       x1="8.9399996"
       y1="106.75"
       x2="291.04999"
       y2="106.75" /><linearGradient
       inkscape:collect="always"
       xlink:href="#linearGradient78015"
       id="linearGradient78041"
       gradientUnits="userSpaceOnUse"
       x1="8.9399996"
       y1="106.75"
       x2="291.04999"
       y2="106.75" /><linearGradient
       inkscape:collect="always"
       xlink:href="#linearGradient78015"
       id="linearGradient78043"
       gradientUnits="userSpaceOnUse"
       x1="8.9399996"
       y1="106.75"
       x2="291.04999"
       y2="106.75" /><linearGradient
       inkscape:collect="always"
       xlink:href="#linearGradient78015"
       id="linearGradient78045"
       gradientUnits="userSpaceOnUse"
       x1="8.9399996"
       y1="106.75"
       x2="291.04999"
       y2="106.75" /><linearGradient
       inkscape:collect="always"
       xlink:href="#linearGradient78015"
       id="linearGradient78047"
       gradientUnits="userSpaceOnUse"
       x1="8.9399996"
       y1="106.75"
       x2="291.04999"
       y2="106.75" /><linearGradient
       inkscape:collect="always"
       xlink:href="#linearGradient78015"
       id="linearGradient78049"
       gradientUnits="userSpaceOnUse"
       x1="8.9399996"
       y1="106.75"
       x2="291.04999"
       y2="106.75" /><linearGradient
       inkscape:collect="always"
       xlink:href="#linearGradient78015"
       id="linearGradient78051"
       gradientUnits="userSpaceOnUse"
       x1="8.9399996"
       y1="106.75"
       x2="291.04999"
       y2="106.75" /><linearGradient
       inkscape:collect="always"
       xlink:href="#linearGradient78015"
       id="linearGradient78053"
       gradientUnits="userSpaceOnUse"
       x1="8.9399996"
       y1="106.75"
       x2="291.04999"
       y2="106.75" /><linearGradient
       inkscape:collect="always"
       xlink:href="#linearGradient78015"
       id="linearGradient78055"
       gradientUnits="userSpaceOnUse"
       x1="8.9399996"
       y1="106.75"
       x2="291.04999"
       y2="106.75" /><linearGradient
       inkscape:collect="always"
       xlink:href="#linearGradient78015"
       id="linearGradient78057"
       gradientUnits="userSpaceOnUse"
       x1="8.9399996"
       y1="106.75"
       x2="291.04999"
       y2="106.75" /><linearGradient
       inkscape:collect="always"
       xlink:href="#linearGradient78015"
       id="linearGradient78059"
       gradientUnits="userSpaceOnUse"
       x1="8.9399996"
       y1="106.75"
       x2="291.04999"
       y2="106.75" /><linearGradient
       inkscape:collect="always"
       xlink:href="#linearGradient78015"
       id="linearGradient78061"
       gradientUnits="userSpaceOnUse"
       x1="8.9399996"
       y1="106.75"
       x2="291.04999"
       y2="106.75" /><linearGradient
       inkscape:collect="always"
       xlink:href="#linearGradient78015"
       id="linearGradient78063"
       gradientUnits="userSpaceOnUse"
       x1="8.9399996"
       y1="106.75"
       x2="291.04999"
       y2="106.75" /><linearGradient
       inkscape:collect="always"
       xlink:href="#linearGradient78015"
       id="linearGradient78065"
       gradientUnits="userSpaceOnUse"
       x1="8.9399996"
       y1="106.75"
       x2="291.04999"
       y2="106.75" /></defs><g
     id="g77648"
     transform="matrix(0.80711909,0,0,0.80711909,-7.2156447,-9.0720186)"
     style="fill:url(#linearGradient78017);fill-opacity:1;fill-rule:evenodd;stroke:none;stroke-width:0.327812;stroke-opacity:1"><path
       class="cls-2"
       d="m 19.09,195.97 c 0.67,-0.64 1.01,-1.5 1.01,-2.58 0,-0.53 -0.11,-1.01 -0.34,-1.44 -0.22,-0.42 -0.51,-0.76 -0.85,-1.01 -0.33,-0.24 -0.71,-0.44 -1.13,-0.6 -0.4,-0.15 -0.79,-0.26 -1.14,-0.32 -0.34,-0.06 -0.68,-0.09 -1,-0.09 h -5.02 v 12.12 h 1.46 v -4.72 h 3.32 l 3.66,4.72 h 1.85 l -3.85,-4.99 c 0.81,-0.21 1.51,-0.58 2.05,-1.1 m -0.45,-2.58 c 0,0.82 -0.26,1.44 -0.78,1.86 -0.54,0.43 -1.43,0.66 -2.65,0.67 h -3.15 v -4.56 h 3.77 c 0.8,0 1.47,0.2 2.02,0.57 0.52,0.36 0.78,0.84 0.78,1.46"
       id="path77572"
       style="fill:url(#linearGradient78019);fill-opacity:1;fill-rule:evenodd;stroke:none;stroke-width:0.327812;stroke-opacity:1" /><polygon
       class="cls-2"
       points="48.01,202.05 48.01,200.63 40.7,200.63 40.7,196.68 47.29,196.68 47.29,195.25 40.7,195.25 40.7,191.37 48.01,191.37 48.01,189.93 39.31,189.93 39.28,202.05 "
       id="polygon77574"
       style="fill:url(#linearGradient78021);fill-opacity:1;fill-rule:evenodd;stroke:none;stroke-width:0.327812;stroke-opacity:1" /><path
       class="cls-2"
       d="m 72.32,196.51 c -0.27,-0.24 -0.6,-0.44 -0.96,-0.6 -0.45,-0.2 -0.79,-0.32 -1.02,-0.38 -1.1,-0.29 -1.12,-0.28 -1.12,-0.28 -2.23,-0.53 -2.84,-1.12 -2.96,-1.53 -0.04,-0.13 -0.07,-0.31 -0.07,-0.54 0,-0.68 0.24,-1.18 0.73,-1.51 0.47,-0.34 1.07,-0.5 1.76,-0.5 h 0.11 c 0.6,0.02 1.2,0.16 1.78,0.39 0.57,0.23 1,0.5 1.29,0.82 l 0.24,0.27 0.92,-1.17 -0.19,-0.2 c 0,0 -0.05,-0.04 -0.11,-0.1 l -0.11,-0.09 c -0.13,-0.12 -0.25,-0.21 -0.34,-0.28 -0.08,-0.07 -0.23,-0.17 -0.41,-0.28 -0.2,-0.13 -0.4,-0.25 -0.6,-0.33 -0.2,-0.08 -0.42,-0.16 -0.67,-0.24 -0.27,-0.08 -0.57,-0.13 -0.9,-0.17 -0.33,-0.03 -0.66,-0.03 -1,0 -1.25,0.07 -2.25,0.41 -2.95,1.01 -0.72,0.62 -1.08,1.42 -1.08,2.38 0,0.96 0.38,1.73 1.14,2.33 0.71,0.57 1.81,1 3.27,1.27 1.32,0.24 2.18,0.7 2.55,1.34 0.35,0.61 0.18,1.29 -0.52,2.08 -0.2,0.22 -0.49,0.39 -0.87,0.5 -0.3,0.08 -0.6,0.12 -0.91,0.12 -0.11,0 -0.23,0 -0.37,-0.02 h -0.08 c -1.28,0 -2.46,-0.53 -3.51,-1.56 l -0.23,-0.23 -1.07,1.14 0.3,0.2 c 0.07,0.04 0.25,0.18 0.54,0.4 0.32,0.24 0.57,0.42 0.78,0.54 0.19,0.11 0.47,0.25 0.83,0.43 0.37,0.18 0.79,0.31 1.24,0.4 0.44,0.08 0.94,0.12 1.47,0.12 0.53,0 1.09,-0.09 1.59,-0.27 0.51,-0.18 0.94,-0.44 1.29,-0.75 0.35,-0.31 0.64,-0.68 0.85,-1.08 0.23,-0.42 0.35,-0.87 0.35,-1.35 0,-0.48 -0.11,-0.94 -0.32,-1.44 -0.17,-0.31 -0.39,-0.59 -0.66,-0.83"
       id="path77576"
       style="fill:url(#linearGradient78023);fill-opacity:1;fill-rule:evenodd;stroke:none;stroke-width:0.327812;stroke-opacity:1" /><rect
       class="cls-2"
       x="92.440002"
       y="189.92999"
       width="1.42"
       height="12.12"
       id="rect77578"
       style="fill:url(#linearGradient78025);fill-opacity:1;fill-rule:evenodd;stroke:none;stroke-width:0.327812;stroke-opacity:1" /><path
       class="cls-2"
       d="m 116.99,189.93 h -3.77 v 12.12 h 4.31 c 0.55,0 1.11,-0.08 1.68,-0.23 0.56,-0.15 1.13,-0.39 1.68,-0.72 0.55,-0.34 1.06,-0.75 1.48,-1.21 0.44,-0.48 0.79,-1.08 1.05,-1.78 0.26,-0.7 0.4,-1.48 0.4,-2.31 0,-1.67 -0.65,-3.08 -1.94,-4.2 -1.27,-1.11 -2.92,-1.68 -4.89,-1.68 m 5.39,6.24 c 0,0.55 -0.13,1.09 -0.4,1.61 -0.27,0.54 -0.61,1.03 -1.01,1.45 -0.39,0.42 -0.88,0.76 -1.48,1.01 -0.58,0.25 -1.24,0.38 -1.95,0.38 h -2.87 v -9.27 h 2.65 c 0.44,0 0.87,0.04 1.3,0.14 0.42,0.09 0.86,0.25 1.31,0.49 0.43,0.23 0.83,0.53 1.15,0.88 0.33,0.35 0.64,0.82 0.91,1.39 0.26,0.56 0.4,1.21 0.4,1.91"
       id="path77580"
       style="fill:url(#linearGradient78027);fill-opacity:1;fill-rule:evenodd;stroke:none;stroke-width:0.327812;stroke-opacity:1" /><polygon
       class="cls-2"
       points="151.72,202.05 151.72,200.63 144.41,200.63 144.41,196.68 150.99,196.68 150.99,195.25 144.41,195.25 144.41,191.37 151.72,191.37 151.72,189.93 143.02,189.93 142.99,202.05 "
       id="polygon77582"
       style="fill:url(#linearGradient78029);fill-opacity:1;fill-rule:evenodd;stroke:none;stroke-width:0.327812;stroke-opacity:1" /><polygon
       class="cls-2"
       points="170.98,202.05 172.41,202.05 172.41,192.36 180.1,202.05 181.1,202.05 181.1,189.93 179.68,189.93 179.68,199.23 172.24,189.93 170.98,189.93 "
       id="polygon77584"
       style="fill:url(#linearGradient78031);fill-opacity:1;fill-rule:evenodd;stroke:none;stroke-width:0.327812;stroke-opacity:1" /><path
       class="cls-2"
       d="m 208.94,190.31 -0.06,-0.02 c -1.51,-0.69 -3.51,-0.68 -4.99,-0.01 -0.75,0.34 -1.39,0.8 -1.92,1.38 -0.53,0.57 -0.94,1.24 -1.24,1.99 -0.29,0.74 -0.44,1.54 -0.44,2.39 0,0.85 0.15,1.61 0.43,2.36 0.29,0.74 0.7,1.41 1.23,1.98 0.53,0.57 1.17,1.03 1.91,1.36 0.74,0.34 1.58,0.52 2.49,0.52 0.91,0 1.74,-0.18 2.43,-0.5 0.07,-0.01 0.13,-0.04 0.2,-0.07 0.66,-0.32 1.24,-0.74 1.72,-1.25 l 0.09,-0.09 v -2.56 l -0.57,0.93 c -0.17,0.27 -0.36,0.53 -0.55,0.75 -0.3,0.31 -0.63,0.57 -0.98,0.77 -0.15,0.09 -0.31,0.17 -0.47,0.24 -1.11,0.5 -2.56,0.5 -3.67,0 -0.56,-0.26 -1.04,-0.61 -1.45,-1.04 -0.4,-0.44 -0.72,-0.95 -0.96,-1.54 -0.22,-0.59 -0.34,-1.22 -0.34,-1.92 0,-0.7 0.12,-1.3 0.34,-1.89 0.23,-0.58 0.54,-1.09 0.94,-1.53 0.4,-0.43 0.89,-0.78 1.44,-1.02 1.11,-0.49 2.55,-0.5 3.67,0 0.17,0.09 0.34,0.17 0.5,0.26 0.35,0.22 0.67,0.48 0.95,0.78 0.4,0.42 0.58,0.67 0.67,0.8 l 0.57,0.91 v -2.58 l -0.17,-0.17 c -0.48,-0.5 -1.06,-0.91 -1.77,-1.24"
       id="path77586"
       style="fill:url(#linearGradient78033);fill-opacity:1;fill-rule:evenodd;stroke:none;stroke-width:0.327812;stroke-opacity:1" /><rect
       class="cls-2"
       x="230.12"
       y="189.92999"
       width="1.4299999"
       height="12.12"
       id="rect77588"
       style="fill:url(#linearGradient78035);fill-opacity:1;fill-rule:evenodd;stroke:none;stroke-width:0.327812;stroke-opacity:1" /><path
       class="cls-2"
       d="m 255.9,189.93 -5.56,12.12 h 1.58 l 1.51,-3.25 h 6.34 l 1.48,3.25 h 1.64 l -5.77,-12.12 h -1.21 z m -1.84,7.5 2.46,-5.54 2.62,5.54 z"
       id="path77590"
       style="fill:url(#linearGradient78037);fill-opacity:1;fill-rule:evenodd;stroke:none;stroke-width:0.327812;stroke-opacity:1" /><polygon
       class="cls-2"
       points="282.64,189.93 281.22,189.93 281.22,202.05 289.39,202.05 289.39,200.64 282.64,200.64 "
       id="polygon77592"
       style="fill:url(#linearGradient78039);fill-opacity:1;fill-rule:evenodd;stroke:none;stroke-width:0.327812;stroke-opacity:1" /><path
       class="cls-3"
       d="m 33.23,131.48 c 6.6,0 12.74,2.4 16.95,6.74 0.6,0.67 0.67,1.74 0,2.41 l -2.07,2.06 c -0.73,0.74 -1.8,0.67 -2.47,0 -3.07,-3.2 -7.61,-4.87 -12.41,-4.87 -9.94,0 -17.88,8.01 -17.88,17.95 0,9.94 7.94,17.95 17.88,17.95 4.8,0 9.27,-1.73 12.41,-4.87 0.6,-0.67 1.74,-0.74 2.47,0 l 2.07,2.07 c 0.67,0.67 0.6,1.8 0,2.4 -4.34,4.27 -10.34,6.74 -16.95,6.74 -13.41,0 -24.29,-10.81 -24.29,-24.29 0,-13.48 10.88,-24.28 24.29,-24.28"
       id="path77594"
       style="fill:url(#linearGradient78041);fill-opacity:1;fill-rule:evenodd;stroke:none;stroke-width:0.327812;stroke-opacity:1" /><path
       class="cls-3"
       d="m 80.34,131.41 c 13.48,0 24.35,10.87 24.35,24.35 0,13.48 -10.87,24.29 -24.35,24.29 -13.48,0 -24.29,-10.81 -24.29,-24.29 0,-13.48 10.88,-24.35 24.29,-24.35 m 0,42.3 c 10.01,0 18.02,-8.01 18.02,-17.95 0,-9.94 -8.01,-18.01 -18.02,-18.01 -10.01,0 -17.88,8.08 -17.88,18.01 0,9.93 7.94,17.95 17.88,17.95"
       id="path77596"
       style="fill:url(#linearGradient78043);fill-opacity:1;fill-rule:evenodd;stroke:none;stroke-width:0.327812;stroke-opacity:1" /><path
       class="cls-3"
       d="m 119.04,166.11 c -0.73,0 -1.34,0.74 -1.34,1.54 v 10.07 c 0,0.87 -0.73,1.67 -1.67,1.67 h -3 c -0.94,0 -1.67,-0.8 -1.67,-1.67 v -43.97 c 0,-1.07 0.73,-1.74 1.67,-1.74 h 7.74 c 13.41,0 24.35,4.27 24.35,17.08 0,6.2 -2.6,10.41 -6.87,13.08 -1.41,1.2 -1.74,1.8 -1.07,3.6 l 5.6,11.54 c 0.47,1.07 0.47,2.07 -1.07,2.07 h -3.74 c -1.14,0 -1.6,-0.54 -1.87,-1 l -5.87,-12.21 c -0.2,-0.4 -1.07,-0.67 -2.07,-0.54 -2.34,0.27 -4.8,0.47 -7.41,0.47 h -1.74 z m 0.13,-27.69 c -0.81,0 -1.47,0.67 -1.47,1.47 v 18.21 c 0,0.94 0.54,1.67 1.4,1.67 h 1.67 c 9.94,0 17.95,-2.8 17.95,-10.67 0,-7.87 -8.01,-10.67 -17.95,-10.67 h -1.6 z"
       id="path77598"
       style="fill:url(#linearGradient78045);fill-opacity:1;fill-rule:evenodd;stroke:none;stroke-width:0.327812;stroke-opacity:1" /><path
       class="cls-3"
       d="m 156.81,132.01 c 0.94,0 1.67,0.67 1.67,1.73 v 43.97 c 0,0.87 -0.74,1.67 -1.67,1.67 h -3 c -0.94,0 -1.67,-0.8 -1.67,-1.67 v -43.97 c 0,-1.07 0.73,-1.73 1.67,-1.73 z"
       id="path77600"
       style="fill:url(#linearGradient78047);fill-opacity:1;fill-rule:evenodd;stroke:none;stroke-width:0.327812;stroke-opacity:1" /><path
       class="cls-3"
       d="m 200.51,132.01 c 0.94,0 1.67,0.67 1.67,1.73 v 43.97 c 0,0.87 -0.74,1.67 -1.67,1.67 h -2.67 c -0.87,0 -1.41,-0.2 -1.8,-0.8 l -21.22,-31.62 c -0.34,-0.47 -1.67,-0.8 -1.67,1.34 v 29.42 c 0,0.87 -0.74,1.67 -1.67,1.67 h -3 c -0.94,0 -1.67,-0.8 -1.67,-1.67 v -43.97 c 0,-1.07 0.74,-1.73 1.67,-1.73 h 3 c 0.6,0 1.07,0.27 1.6,1 l 21.16,31.5 c 0.47,0.66 1.6,1.06 1.6,-1.21 v -29.56 c 0,-1.07 0.74,-1.73 1.67,-1.73 h 3 z"
       id="path77602"
       style="fill:url(#linearGradient78049);fill-opacity:1;fill-rule:evenodd;stroke:none;stroke-width:0.327812;stroke-opacity:1" /><path
       class="cls-3"
       d="m 207.52,133.75 c 0,-1 0.67,-1.73 1.67,-1.73 h 30.22 c 0.87,0 1.67,0.74 1.67,1.73 v 2.94 c 0,0.94 -0.8,1.74 -1.67,1.74 h -10.54 c -0.8,0 -1.4,0.73 -1.4,1.47 v 37.83 c 0,0.87 -0.74,1.67 -1.67,1.67 h -3 c -0.94,0 -1.67,-0.8 -1.67,-1.67 V 140.1 c 0,-0.8 -0.6,-1.67 -1.34,-1.67 h -10.6 c -1.01,0 -1.67,-0.8 -1.67,-1.74 z"
       id="path77604"
       style="fill:url(#linearGradient78051);fill-opacity:1;fill-rule:evenodd;stroke:none;stroke-width:0.327812;stroke-opacity:1" /><path
       class="cls-3"
       d="m 266.7,131.41 c 13.48,0 24.35,10.87 24.35,24.35 0,13.48 -10.87,24.29 -24.35,24.29 -13.48,0 -24.28,-10.81 -24.28,-24.29 0,-13.48 10.87,-24.35 24.28,-24.35 m 0,42.3 c 10.01,0 18.02,-8.01 18.02,-17.95 0,-9.94 -8.01,-18.01 -18.02,-18.01 -10.01,0 -17.88,8.08 -17.88,18.01 0,9.93 7.94,17.95 17.88,17.95"
       id="path77606"
       style="fill:url(#linearGradient78053);fill-opacity:1;fill-rule:evenodd;stroke:none;stroke-width:0.327812;stroke-opacity:1" /><path
       class="cls-4"
       d="m 149.97,98.68 c 0,0 17.44,16.47 41,6.46 26.14,-11.1 40.16,-40.95 40.16,-40.95 0,0 -34.71,-10.36 -59.21,0.05"
       id="path77608"
       style="fill:url(#linearGradient78055);fill-opacity:1;fill-rule:evenodd;stroke:none;stroke-width:0.327812;stroke-opacity:1" /><path
       class="cls-4"
       d="m 150.03,98.68 c 0,0 -17.44,16.47 -41,6.46 C 82.9,94.04 68.87,64.19 68.87,64.19 c 0,0 34.71,-10.1 59.21,0.31"
       id="path77610"
       style="fill:url(#linearGradient78057);fill-opacity:1;fill-rule:evenodd;stroke:none;stroke-width:0.327812;stroke-opacity:1" /><path
       class="cls-3"
       d="M 133.01,40.69 C 118.77,30.13 103.59,25.88 103.59,25.88 c 0,0 -4.03,33.5 9.98,55.49 12.15,19.07 36.47,17.35 36.47,17.35"
       id="path77612"
       style="fill:url(#linearGradient78059);fill-opacity:1;fill-rule:evenodd;stroke:none;stroke-width:0.327812;stroke-opacity:1" /><path
       class="cls-3"
       d="m 167.24,40.47 c 14.16,-10.4 29.11,-14.59 29.11,-14.59 0,0 4.04,33.51 -9.98,55.49 -12.15,19.07 -36.46,17.35 -36.46,17.35"
       id="path77614"
       style="fill:url(#linearGradient78061);fill-opacity:1;fill-rule:evenodd;stroke:none;stroke-width:0.327812;stroke-opacity:1" /><path
       class="cls-5"
       d="m 149.93,11.25 c 0,0 -21.85,26.63 -21.85,53.24 0,23.08 21.87,34.95 21.87,34.95 0,0 21.97,-9.62 21.97,-35.21 0,-28.39 -22,-52.99 -22,-52.99"
       id="path77616"
       style="fill:url(#linearGradient78063);fill-opacity:1;fill-rule:evenodd;stroke:none;stroke-width:0.327812;stroke-opacity:1" /><path
       class="cls-1"
       d="m 150.02,52.41 c 0,0 -9.2,11.2 -9.2,22.41 0,9.72 9.21,14.71 9.21,14.71 0,0 9.25,-4.05 9.25,-14.82 0,-11.95 -9.25,-22.3 -9.25,-22.3"
       id="path77618"
       style="fill:url(#linearGradient78065);fill-opacity:1;fill-rule:evenodd;stroke:none;stroke-width:0.327812;stroke-opacity:1" /></g></svg>
