<?xml version="1.0" encoding="UTF-8" standalone="no"?>
<!-- Created with Inkscape (http://www.inkscape.org/) -->

<svg
   width="73.871704mm"
   height="53.181248mm"
   viewBox="0 0 73.871704 53.181248"
   version="1.1"
   id="svg3101"
   xml:space="preserve"
   inkscape:version="1.2.1 (9c6d41e410, 2022-07-14)"
   sodipodi:docname="dibujo.svg"
   xmlns:inkscape="http://www.inkscape.org/namespaces/inkscape"
   xmlns:sodipodi="http://sodipodi.sourceforge.net/DTD/sodipodi-0.dtd"
   xmlns="http://www.w3.org/2000/svg"
   xmlns:svg="http://www.w3.org/2000/svg"><sodipodi:namedview
     id="namedview3103"
     pagecolor="#ffffff"
     bordercolor="#000000"
     borderopacity="0.25"
     inkscape:showpageshadow="2"
     inkscape:pageopacity="0.0"
     inkscape:pagecheckerboard="0"
     inkscape:deskcolor="#d1d1d1"
     inkscape:document-units="mm"
     showgrid="false"
     inkscape:zoom="0.77415123"
     inkscape:cx="-52.315359"
     inkscape:cy="168.57171"
     inkscape:window-width="1920"
     inkscape:window-height="1001"
     inkscape:window-x="2391"
     inkscape:window-y="-9"
     inkscape:window-maximized="1"
     inkscape:current-layer="svg3101" /><defs
     id="defs3098"><style
       id="style3222">.cls-1{fill:#004e59;}.cls-2{fill:#ffad5f;}.cls-3{fill:#ff6b00;}.cls-4{fill:#00abc8;}.cls-5{fill:#00758d;}.cls-6{fill:#00bed6;}.cls-7{fill:#5fd0df;}.cls-8{fill:#ff5100;}.cls-9{fill:#434142;}.cls-10{fill:#ff9015;}.cls-11{fill:#673918;}</style></defs><path
     class="cls-9"
     d="m 98.44438,109.64986 c 0,4.42383 -3.548063,7.82108 -8.239125,7.82108 -4.691063,0 -8.236479,-3.37344 -8.236479,-7.82108 0,-4.44765 3.548062,-7.77875 8.236479,-7.77875 4.688416,0 8.239125,3.32845 8.239125,7.77875 m -12.927542,0 c 0,2.69345 2.169584,4.79689 4.733396,4.79689 2.563812,0 4.646083,-2.10344 4.646083,-4.79689 0,-2.69346 -2.082271,-4.75457 -4.646083,-4.75457 -2.563812,0 -4.733396,2.05846 -4.733396,4.75457"
     id="path3765"
     style="stroke-width:0.264583"
     transform="translate(-67.988193,-76.624564)" /><path
     id="path3807"
     class="cls-9"
     transform="matrix(0.26458333,0,0,0.26458333,-2.7516669,-3.4078331)"
     style="fill:#434142"
     d="m 179.56,108.71 -21.12,39.26 v 18.72 H 145.36 V 148.3 l -21.45,-39.59 h 13.17 l 14.82,26.01 14.49,-26.01 z" /><path
     class="cls-9"
     d="m 116.06828,114.33827 -1.20386,2.97921 h -3.57187 l 6.6622,-15.3379 h 3.57188 l 6.55108,15.3379 h -3.70416 l -1.20386,-2.97921 z m 3.57452,-8.74183 -2.43152,5.95842 h 4.84187 z"
     id="path3768"
     style="stroke-width:0.264583"
     transform="translate(-67.988193,-76.624564)" /><path
     class="cls-9"
     d="m 141.7699,103.493 -1.33615,2.86808 c -1.62189,-0.96308 -3.54806,-1.57691 -4.77572,-1.57691 -1.16153,0 -1.94998,0.41539 -1.94998,1.24883 0,2.82575 8.17298,1.24883 8.15181,6.77069 0,3.00302 -2.60879,4.62227 -6.0034,4.62227 -2.52148,0 -5.04031,-0.96308 -6.77068,-2.43152 l 1.37847,-2.82575 c 1.57957,1.40229 3.81265,2.29923 5.43455,2.29923 1.42345,0 2.27806,-0.52388 2.27806,-1.46579 0,-2.89455 -8.17298,-1.20386 -8.17298,-6.6384 0,-2.78342 2.38919,-4.53496 5.9399,-4.53496 2.14577,0 4.29418,0.65881 5.82877,1.66688"
     id="path3771"
     style="stroke-width:0.264583"
     transform="translate(-67.988193,-76.624564)" /><path
     class="cls-9"
     d="m 79.10863,111.78769 c 0,3.69887 -2.177521,5.79702 -5.717646,5.79702 -2.203979,0 -4.037541,-0.97102 -5.402791,-2.64848 l 1.471083,-2.35744 c 1.203854,1.31234 2.648479,2.01877 3.907896,2.01877 1.651,0 2.622021,-1.02129 2.622021,-2.91041 v -10.26319 h -6.344709 v -2.780771 h 9.466792 v 13.149791 z"
     id="path3774"
     style="stroke-width:0.264583"
     transform="translate(-67.988193,-76.624564)" /><path
     class="cls-8"
     d="m 73.253401,126.9245 c -0.269875,0.26988 -0.579438,0.4789 -0.933979,0.62706 -0.354542,0.14817 -0.724959,0.22225 -1.116542,0.22225 -0.391583,0 -0.759354,-0.0741 -1.113896,-0.22225 -0.354541,-0.14816 -0.66675,-0.35718 -0.933979,-0.62706 -0.277812,-0.27517 -0.486833,-0.59267 -0.632354,-0.94456 -0.145521,-0.35454 -0.219604,-0.72761 -0.219604,-1.11654 0,-0.38894 0.07408,-0.75142 0.219604,-1.10596 0.145521,-0.35454 0.354542,-0.6694 0.632354,-0.94456 0.269875,-0.26988 0.579438,-0.4789 0.933979,-0.62707 0.354542,-0.14816 0.724959,-0.22225 1.113896,-0.22225 0.388938,0 0.762,0.0741 1.116542,0.22225 0.354541,0.14817 0.664104,0.35719 0.933979,0.62707 0.05027,0.0503 0.08467,0.0899 0.105833,0.11641 v -2.83633 h 0.743479 v 4.77044 c 0,0.38893 -0.07144,0.762 -0.216958,1.11654 -0.145521,0.35189 -0.354542,0.66939 -0.632354,0.94456 m -2.050521,-4.21746 c -0.296333,0 -0.576792,0.0556 -0.838729,0.17198 -0.261938,0.11113 -0.489479,0.26459 -0.685271,0.46038 -0.193146,0.19579 -0.346604,0.42333 -0.460375,0.68527 -0.113771,0.26194 -0.171979,0.54239 -0.171979,0.83873 0,0.29633 0.05821,0.57679 0.171979,0.84402 0.113771,0.26723 0.267229,0.49741 0.460375,0.69056 0.195792,0.19315 0.423333,0.34925 0.685271,0.46038 0.261937,0.11377 0.542396,0.17197 0.838729,0.17197 0.296333,0 0.576792,-0.0582 0.838729,-0.17197 0.261938,-0.11113 0.492125,-0.26723 0.685271,-0.46038 0.193146,-0.19579 0.34925,-0.42598 0.463021,-0.69056 0.113771,-0.26459 0.169333,-0.54504 0.169333,-0.84402 0,-0.29898 -0.05556,-0.57679 -0.169333,-0.83873 -0.113771,-0.26194 -0.267229,-0.48948 -0.463021,-0.68527 -0.193146,-0.19579 -0.423333,-0.34925 -0.685271,-0.46038 -0.261937,-0.11377 -0.542396,-0.17198 -0.838729,-0.17198"
     id="path3777"
     style="stroke-width:0.264583"
     transform="translate(-67.988193,-76.624564)" /><path
     class="cls-8"
     d="m 76.068568,124.89515 c 0,0.29898 0.05821,0.57679 0.174625,0.83343 0.119062,0.2593 0.27252,0.48419 0.468312,0.67205 0.195792,0.19314 0.420688,0.3466 0.679979,0.45773 0.259292,0.11377 0.537104,0.17197 0.833438,0.17197 0.402166,0 0.772583,-0.10054 1.103312,-0.30427 0.333375,-0.20108 0.592667,-0.46831 0.775229,-0.80168 h 0.830792 c -0.148167,0.3757 -0.367771,0.70908 -0.658813,0.99748 -0.275166,0.26987 -0.59002,0.47889 -0.93927,0.62706 -0.34925,0.14816 -0.719667,0.22225 -1.108604,0.22225 -0.388938,0 -0.762,-0.0741 -1.116542,-0.22225 -0.354542,-0.14817 -0.664104,-0.35719 -0.933979,-0.62706 -0.275167,-0.27517 -0.486834,-0.59003 -0.632354,-0.93928 -0.145521,-0.35189 -0.216959,-0.71966 -0.216959,-1.11125 0,-0.39158 0.07144,-0.75935 0.216959,-1.11389 0.14552,-0.35454 0.354541,-0.66675 0.632354,-0.93398 0.269875,-0.27517 0.579437,-0.48948 0.933979,-0.63765 0.354542,-0.14816 0.724958,-0.22225 1.116542,-0.22225 0.391583,0 0.759354,0.0741 1.108604,0.22225 0.351895,0.14817 0.664104,0.36248 0.93927,0.63765 0.277813,0.26723 0.486834,0.58208 0.632355,0.94456 0.14552,0.36248 0.219604,0.73819 0.219604,1.12448 h -5.056188 z m 2.156354,-2.18811 c -0.232834,0 -0.457729,0.0344 -0.669396,0.10584 -0.211667,0.0714 -0.407458,0.17198 -0.584729,0.29633 -0.177271,0.127 -0.333375,0.28046 -0.465667,0.45773 -0.134937,0.17727 -0.240771,0.37042 -0.320146,0.58473 h 4.069292 c -0.156104,-0.42598 -0.415396,-0.77259 -0.780521,-1.04246 -0.365125,-0.26988 -0.780521,-0.40217 -1.248833,-0.40217"
     id="path3780"
     style="stroke-width:0.264583"
     transform="translate(-67.988193,-76.624564)" /><path
     class="cls-8"
     d="m 89.006692,127.77381 c -0.381,-0.0132 -0.735541,-0.0741 -1.055687,-0.17991 -0.322792,-0.10584 -0.600604,-0.25665 -0.833438,-0.45773 -0.232833,-0.19844 -0.415395,-0.4445 -0.547687,-0.73819 -0.129646,-0.29369 -0.198438,-0.635 -0.206375,-1.02394 h 0.743479 c 0.04762,0.58738 0.246063,1.01071 0.590021,1.27 0.343958,0.25929 0.780521,0.38894 1.312333,0.38894 0.214313,0 0.420688,-0.0291 0.621771,-0.0794 0.201083,-0.0529 0.378354,-0.1323 0.529167,-0.23813 0.153458,-0.10848 0.275166,-0.24077 0.373062,-0.4101 0.09525,-0.16669 0.142875,-0.36248 0.142875,-0.59002 0,-0.26194 -0.05821,-0.4789 -0.174625,-0.64823 -0.116416,-0.16934 -0.269875,-0.31221 -0.463021,-0.43127 -0.193145,-0.11642 -0.410104,-0.21696 -0.65352,-0.29898 -0.246063,-0.0794 -0.494771,-0.16405 -0.746125,-0.24871 -0.251355,-0.0847 -0.497417,-0.17727 -0.74348,-0.27517 -0.243416,-0.10054 -0.46302,-0.22489 -0.65352,-0.37835 -0.1905,-0.15082 -0.346605,-0.34132 -0.460375,-0.56886 -0.116417,-0.22489 -0.177271,-0.50535 -0.177271,-0.83873 0,-0.33337 0.06615,-0.64293 0.195791,-0.91281 0.132292,-0.26987 0.304271,-0.49742 0.52123,-0.68792 0.216958,-0.1852 0.465666,-0.33072 0.74877,-0.42862 0.283105,-0.0979 0.576792,-0.14817 0.881063,-0.14817 0.283104,0 0.558271,0.045 0.822854,0.13759 0.267229,0.0926 0.500063,0.2196 0.706438,0.381 0.206375,0.16404 0.370416,0.36512 0.492125,0.6006 0.124354,0.23813 0.187854,0.49742 0.187854,0.78052 h -0.743479 c -0.01587,-0.19844 -0.06615,-0.37042 -0.156105,-0.51594 -0.08731,-0.14552 -0.201083,-0.26458 -0.338666,-0.36248 -0.137584,-0.0952 -0.291042,-0.16404 -0.463021,-0.21166 -0.169333,-0.0476 -0.338667,-0.0688 -0.510646,-0.0688 -0.219604,0 -0.428625,0.0318 -0.621771,0.10054 -0.193146,0.0661 -0.365125,0.16139 -0.510646,0.2831 -0.14552,0.11906 -0.259291,0.26988 -0.346604,0.44979 -0.08467,0.17992 -0.127,0.381 -0.127,0.60061 0,0.24077 0.05556,0.43921 0.169334,0.59531 0.11377,0.1561 0.261937,0.2884 0.447145,0.39952 0.185209,0.10848 0.39423,0.20373 0.627063,0.28046 0.235479,0.0794 0.47625,0.1561 0.722312,0.23283 0.246063,0.0794 0.48948,0.16669 0.727605,0.26459 0.238125,0.10054 0.452437,0.22754 0.642937,0.38364 0.486833,0.39952 0.732896,0.90752 0.732896,1.52929 0,0.34132 -0.06879,0.6403 -0.209021,0.89694 -0.140229,0.25929 -0.322792,0.47361 -0.550333,0.64294 -0.232834,0.16933 -0.489479,0.29898 -0.775229,0.38629 -0.288396,0.0873 -0.579438,0.13229 -0.878417,0.13229"
     id="path3783"
     style="stroke-width:0.264583"
     transform="translate(-67.988193,-76.624564)" /><path
     class="cls-8"
     d="m 97.17438,122.81552 c 0.275166,0.27517 0.486833,0.59002 0.632354,0.94456 0.145521,0.35455 0.219604,0.72496 0.219604,1.1139 v 2.65642 h -0.743479 v -0.7964 c -0.142875,0.19844 -0.298979,0.36513 -0.468313,0.49477 -0.171979,0.13229 -0.34925,0.23813 -0.537104,0.32015 -0.187854,0.0794 -0.378354,0.13758 -0.576791,0.17462 -0.198438,0.037 -0.391584,0.0529 -0.574146,0.0529 -0.388938,0 -0.762,-0.0741 -1.116542,-0.22225 -0.354542,-0.14817 -0.664104,-0.35719 -0.933979,-0.62706 -0.275167,-0.27517 -0.486833,-0.59267 -0.632354,-0.94457 -0.145521,-0.35454 -0.216959,-0.72231 -0.216959,-1.10595 0,-0.38365 0.07144,-0.75936 0.216959,-1.1139 0.145521,-0.35454 0.354541,-0.6694 0.632354,-0.94456 0.269875,-0.26988 0.579437,-0.4789 0.933979,-0.62706 0.354542,-0.14817 0.724958,-0.22225 1.116542,-0.22225 0.391583,0 0.759354,0.0741 1.113896,0.22225 0.354541,0.14816 0.66675,0.35718 0.933979,0.62706 m -2.047875,4.21746 c 0.296333,0 0.576791,-0.0582 0.838729,-0.17198 0.259292,-0.11113 0.489479,-0.26723 0.685271,-0.46302 0.195791,-0.19315 0.34925,-0.42334 0.463021,-0.68527 0.11377,-0.26194 0.171979,-0.5424 0.171979,-0.84138 0,-0.29898 -0.05821,-0.57679 -0.171979,-0.84402 -0.113771,-0.26723 -0.26723,-0.49477 -0.463021,-0.69056 -0.193146,-0.19579 -0.423334,-0.34925 -0.685271,-0.46038 -0.261938,-0.11377 -0.542396,-0.17198 -0.838729,-0.17198 -0.296334,0 -0.576792,0.0556 -0.838729,0.17198 -0.261938,0.11113 -0.492125,0.26459 -0.685271,0.46038 -0.193146,0.19579 -0.34925,0.42333 -0.463021,0.69056 -0.113771,0.26723 -0.169333,0.54769 -0.169333,0.84402 0,0.29633 0.05556,0.57679 0.169333,0.84138 0.113771,0.26193 0.267229,0.48947 0.463021,0.68527 0.193146,0.19579 0.423333,0.35189 0.685271,0.46302 0.261937,0.11377 0.542395,0.17198 0.838729,0.17198"
     id="path3786"
     style="stroke-width:0.264583"
     transform="translate(-67.988193,-76.624564)" /><path
     class="cls-8"
     d="m 103.68578,122.63296 c 0.22754,0.22754 0.39952,0.48419 0.52122,0.77523 0.11907,0.29104 0.17992,0.59531 0.17992,0.91281 v 3.20675 h -0.74348 V 124.321 c 0,-0.22754 -0.045,-0.43921 -0.13229,-0.63764 -0.09,-0.19844 -0.20637,-0.37042 -0.35454,-0.51859 -0.14817,-0.15081 -0.32015,-0.26723 -0.52123,-0.35189 -0.19579,-0.0847 -0.4101,-0.127 -0.63765,-0.127 -0.22754,0 -0.43656,0.0423 -0.635,0.127 -0.19843,0.0847 -0.37306,0.20108 -0.52123,0.35189 -0.14816,0.14817 -0.26722,0.32015 -0.34925,0.51859 -0.0873,0.19843 -0.127,0.4101 -0.127,0.63764 v 3.20675 h -0.743474 v -5.31019 h 0.616474 l 0.127,0.4789 c 0.2249,-0.24871 0.4789,-0.43656 0.75407,-0.56356 0.27516,-0.127 0.56885,-0.1905 0.88106,-0.1905 0.31221,0 0.62442,0.0582 0.91281,0.17462 0.29104,0.11642 0.54769,0.2884 0.77523,0.51329"
     id="path3789"
     style="stroke-width:0.264583"
     transform="translate(-67.988193,-76.624564)" /><path
     class="cls-8"
     d="m 113.80873,126.00111 c 0,-0.39688 -0.12435,-0.71967 -0.37041,-0.96573 -0.26988,-0.24871 -0.64559,-0.381 -1.12713,-0.40217 h -1.94204 v 2.89983 h -0.74348 v -7.43479 h 2.59292 c 0.3175,0 0.61648,0.045 0.89164,0.13229 0.27782,0.09 0.52123,0.21696 0.7329,0.38894 0.21431,0.16933 0.38629,0.38894 0.52123,0.65617 0.0556,0.127 0.10319,0.27252 0.13758,0.43656 0.0344,0.1614 0.0529,0.38365 0.0529,0.65881 0,0.27517 -0.0185,0.51329 -0.0529,0.66411 -0.0344,0.15345 -0.082,0.29104 -0.13758,0.41804 -0.13494,0.26987 -0.30692,0.48948 -0.52123,0.65881 -0.0344,0.0291 -0.0688,0.0529 -0.10054,0.0794 -0.0318,0.0238 -0.0662,0.0476 -0.10054,0.0688 0.0582,0.0344 0.11112,0.0714 0.15875,0.11112 0.0476,0.0397 0.0979,0.0794 0.14816,0.12171 0.32544,0.32015 0.52123,0.70908 0.58473,1.16946 0.008,0.0582 0.0132,0.11377 0.0159,0.17198 0.005,0.0556 0.005,0.11112 0.005,0.16933 v 1.52929 h -0.74348 v -1.52929 z m -0.43391,-2.47386 c 0.0767,-0.0714 0.14816,-0.16139 0.21166,-0.27517 0.0582,-0.10054 0.10848,-0.2196 0.15346,-0.35983 0.0476,-0.14287 0.0688,-0.31485 0.0688,-0.52123 0,-0.30427 -0.037,-0.54769 -0.11112,-0.7276 -0.0741,-0.17992 -0.18256,-0.32809 -0.32279,-0.43921 -0.29898,-0.24077 -0.68527,-0.36248 -1.15623,-0.36248 h -1.84944 v 3.048 h 1.84944 c 0.4736,0 0.85989,-0.12171 1.15623,-0.36248"
     id="path3792"
     style="stroke-width:0.264583"
     transform="translate(-67.988193,-76.624564)" /><path
     class="cls-8"
     d="m 118.32517,127.77381 c -0.38894,0 -0.75935,-0.0741 -1.11125,-0.22225 -0.34925,-0.14816 -0.66146,-0.35718 -0.93927,-0.62706 -0.26987,-0.27517 -0.4789,-0.59267 -0.62442,-0.94456 -0.15081,-0.35454 -0.22489,-0.72231 -0.22489,-1.10596 0,-0.38365 0.0741,-0.75935 0.22489,-1.1139 0.14817,-0.35454 0.35719,-0.66939 0.62442,-0.94456 0.27781,-0.26987 0.59002,-0.47889 0.93927,-0.62706 0.3519,-0.14817 0.71967,-0.22225 1.11125,-0.22225 0.39158,0 0.75936,0.0741 1.1139,0.22225 0.35454,0.14817 0.66939,0.35719 0.94721,0.62706 0.26722,0.27517 0.47625,0.59002 0.62441,0.94456 0.15081,0.35455 0.2249,0.72496 0.2249,1.1139 0,0.38894 -0.0741,0.75406 -0.2249,1.10596 -0.14816,0.35189 -0.35719,0.66939 -0.62441,0.94456 -0.27782,0.26988 -0.59267,0.4789 -0.94721,0.62706 -0.35454,0.14817 -0.72496,0.22225 -1.1139,0.22225 m 0,-5.06677 c -0.29633,0 -0.57679,0.0556 -0.83873,0.17198 -0.26194,0.11113 -0.49212,0.26459 -0.68527,0.46038 -0.19314,0.19579 -0.34925,0.42333 -0.46302,0.69056 -0.11377,0.26723 -0.16933,0.54769 -0.16933,0.84402 0,0.29633 0.0556,0.57679 0.16933,0.84138 0.11377,0.26193 0.26723,0.48947 0.46302,0.68527 0.19315,0.19314 0.42333,0.34925 0.68527,0.46037 0.26194,0.11377 0.5424,0.17198 0.83873,0.17198 0.29633,0 0.57679,-0.0582 0.83873,-0.17198 0.25929,-0.11112 0.49213,-0.26723 0.69056,-0.46037 0.19579,-0.1958 0.35454,-0.42334 0.46832,-0.68527 0.11377,-0.26194 0.16933,-0.5424 0.16933,-0.84138 0,-0.29898 -0.0556,-0.57679 -0.16933,-0.84402 -0.11378,-0.26723 -0.26988,-0.49477 -0.46832,-0.69056 -0.19843,-0.19579 -0.43127,-0.34925 -0.69056,-0.46038 -0.26194,-0.11377 -0.5424,-0.17198 -0.83873,-0.17198"
     id="path3795"
     style="stroke-width:0.264583"
     transform="translate(-67.988193,-76.624564)" /><path
     class="cls-8"
     d="m 127.46123,122.81552 c 0.27517,0.27517 0.48684,0.59002 0.63236,0.94456 0.14552,0.35455 0.21696,0.72496 0.21696,1.1139 v 4.93183 h -0.74348 v -2.99773 c -0.0212,0.0318 -0.0556,0.0688 -0.10584,0.11907 -0.26987,0.26987 -0.57943,0.47889 -0.93398,0.62706 -0.35454,0.14817 -0.72495,0.22225 -1.11654,0.22225 -0.39158,0 -0.75935,-0.0741 -1.11389,-0.22225 -0.35454,-0.14817 -0.66675,-0.35719 -0.93398,-0.62706 -0.27517,-0.27517 -0.48684,-0.59267 -0.63236,-0.94457 -0.14552,-0.35454 -0.2196,-0.72231 -0.2196,-1.10595 0,-0.38365 0.0741,-0.75936 0.2196,-1.1139 0.14552,-0.35454 0.35455,-0.6694 0.63236,-0.94456 0.26987,-0.26988 0.57944,-0.4789 0.93398,-0.62706 0.35454,-0.14817 0.72496,-0.22225 1.11389,-0.22225 0.38894,0 0.762,0.0741 1.11654,0.22225 0.35455,0.14816 0.66411,0.35718 0.93398,0.62706 m -2.05052,4.21746 c 0.29634,0 0.57679,-0.0582 0.83873,-0.17198 0.26194,-0.11113 0.49213,-0.26723 0.68527,-0.46302 0.19315,-0.19315 0.34925,-0.42334 0.46302,-0.68527 0.11377,-0.26194 0.16934,-0.5424 0.16934,-0.84138 0,-0.29898 -0.0556,-0.57679 -0.16934,-0.84402 -0.11377,-0.26723 -0.26723,-0.49477 -0.46302,-0.69056 -0.19314,-0.19579 -0.42333,-0.34925 -0.68527,-0.46038 -0.26194,-0.11377 -0.54239,-0.17198 -0.83873,-0.17198 -0.29633,0 -0.57679,0.0556 -0.83873,0.17198 -0.25929,0.11113 -0.48948,0.26459 -0.68527,0.46038 -0.19579,0.19579 -0.34925,0.42333 -0.46302,0.69056 -0.11377,0.26723 -0.16933,0.54769 -0.16933,0.84402 0,0.29633 0.0556,0.57679 0.16933,0.84138 0.11377,0.26193 0.26723,0.48947 0.46302,0.68527 0.19315,0.19579 0.42334,0.35189 0.68527,0.46302 0.26194,0.11377 0.5424,0.17198 0.83873,0.17198"
     id="path3798"
     style="stroke-width:0.264583"
     transform="translate(-67.988193,-76.624564)" /><path
     class="cls-8"
     d="m 130.28434,127.0859 c -0.22754,-0.22754 -0.39952,-0.48419 -0.52123,-0.77788 -0.11906,-0.28839 -0.17992,-0.59266 -0.17992,-0.91281 v -3.175 h 0.74348 v 3.175 c 0,0.22754 0.045,0.43921 0.13229,0.63765 0.0873,0.19843 0.20638,0.37041 0.35719,0.51858 0.14817,0.15081 0.32015,0.26723 0.51858,0.35189 0.19844,0.0847 0.41011,0.127 0.63765,0.127 0.22754,0 0.43921,-0.0423 0.63765,-0.127 0.19843,-0.0847 0.37306,-0.20108 0.52122,-0.35189 0.14817,-0.14817 0.26723,-0.32015 0.35455,-0.51858 0.0873,-0.19844 0.13229,-0.41011 0.13229,-0.63765 v -3.175 h 0.74348 v 3.175 c 0,0.32015 -0.0609,0.62442 -0.17992,0.91281 -0.11906,0.29104 -0.29369,0.55034 -0.51858,0.77788 -0.22754,0.22489 -0.48684,0.39687 -0.77523,0.51329 -0.2884,0.11642 -0.59267,0.17462 -0.91281,0.17462 -0.32015,0 -0.62442,-0.0556 -0.91282,-0.17462 -0.29104,-0.11642 -0.54768,-0.2884 -0.77523,-0.51329"
     id="path3801"
     style="stroke-width:0.264583"
     transform="translate(-67.988193,-76.624564)" /><path
     class="cls-8"
     d="m 136.48882,124.89515 c 0,0.29898 0.0582,0.57679 0.17462,0.83343 0.11642,0.2593 0.27252,0.48419 0.46831,0.67205 0.19315,0.19314 0.42069,0.3466 0.67734,0.45773 0.25929,0.11377 0.5371,0.17197 0.83344,0.17197 0.40481,0 0.77258,-0.10054 1.10595,-0.30427 0.33338,-0.20108 0.59267,-0.46831 0.77523,-0.80168 h 0.83079 c -0.15081,0.3757 -0.36777,0.70908 -0.65881,0.99748 -0.27516,0.26987 -0.59002,0.47889 -0.93927,0.62706 -0.35189,0.14816 -0.71967,0.22225 -1.11125,0.22225 -0.39158,0 -0.75935,-0.0741 -1.11389,-0.22225 -0.35455,-0.14817 -0.66675,-0.35719 -0.93398,-0.62706 -0.27517,-0.27517 -0.48684,-0.59003 -0.63236,-0.93928 -0.14552,-0.35189 -0.2196,-0.71966 -0.2196,-1.11125 0,-0.39158 0.0741,-0.75935 0.2196,-1.11389 0.14552,-0.35454 0.35454,-0.66675 0.63236,-0.93398 0.26987,-0.27517 0.57943,-0.48948 0.93398,-0.63765 0.35454,-0.14816 0.72495,-0.22225 1.11389,-0.22225 0.38894,0 0.75936,0.0741 1.11125,0.22225 0.34925,0.14817 0.66411,0.36248 0.93927,0.63765 0.27517,0.26723 0.48684,0.58208 0.63236,0.94456 0.14552,0.36248 0.21695,0.73819 0.21695,1.12448 h -5.05618 z m 2.15635,-2.18811 c -0.23283,0 -0.45508,0.0344 -0.66939,0.10584 -0.21167,0.0714 -0.40482,0.17198 -0.58209,0.29633 -0.17727,0.127 -0.33337,0.28046 -0.46566,0.45773 -0.13494,0.17727 -0.24078,0.37042 -0.32015,0.58473 h 4.06929 c -0.1561,-0.42598 -0.41539,-0.77259 -0.78052,-1.04246 -0.36512,-0.26988 -0.78052,-0.40217 -1.24883,-0.40217"
     id="path3804"
     style="stroke-width:0.264583"
     transform="translate(-67.988193,-76.624564)" /><path
     id="path3810"
     class="cls-10"
     transform="matrix(0.26458333,0,0,0.26458333,-2.7516669,-3.4078331)"
     style="fill:#ff9015"
     d="m 157.04,45.39 -7.09,2.89 -7.06,-2.96 -2.89,-7.09 2.96,-7.06 7.09,-2.9 7.06,2.97 2.9,7.08 z" /><path
     id="path3813"
     class="cls-11"
     transform="matrix(0.26458333,0,0,0.26458333,-2.7516669,-3.4078331)"
     style="fill:#673918"
     d="M 134.76,42.49 124.59,38.28 150,63.68 145.78,53.51 142.89,45.32 Z" /><path
     id="path3816"
     class="cls-3"
     transform="matrix(0.26458333,0,0,0.26458333,-2.7516669,-3.4078331)"
     style="fill:#ff6b00"
     d="m 165.22,42.44 0.02,0.02 10.16,-4.22 -10.16,-4.21 -8.14,-2.83 2.9,7.04 h 0.01 l -2.97,7.11 8.2,-2.89 z" /><path
     id="path3819"
     class="cls-3"
     transform="matrix(0.26458333,0,0,0.26458333,-2.7516669,-3.4078331)"
     style="fill:#ff6b00"
     d="m 157.04,45.39 -7.03,2.9 -0.01,-0.01 -7.1,-2.96 2.88,8.19 4.22,10.17 4.22,-10.16 z" /><path
     id="path3822"
     class="cls-10"
     transform="matrix(0.26458333,0,0,0.26458333,-2.7516669,-3.4078331)"
     style="fill:#ff9015"
     d="m 157.1,31.24 8.14,2.82 10.16,4.22 -25.4,-25.4 4.21,10.16 z" /><path
     id="path3825"
     class="cls-10"
     transform="matrix(0.26458333,0,0,0.26458333,-2.7516669,-3.4078331)"
     style="fill:#ff9015"
     d="m 165.24,42.49 -0.01,0.01 -8.19,2.89 -2.82,8.12 h -0.01 L 150,63.68 175.4,38.28 Z" /><path
     id="path3828"
     class="cls-3"
     transform="matrix(0.26458333,0,0,0.26458333,-2.7516669,-3.4078331)"
     style="fill:#ff6b00"
     d="m 134.77,34.06 -10.18,4.22 10.18,4.21 8.12,2.83 -2.89,-7.04 2.96,-7.11 z" /><path
     id="path3831"
     class="cls-2"
     transform="matrix(0.26458333,0,0,0.26458333,-2.7516669,-3.4078331)"
     style="fill:#ffad5f"
     d="m 150,12.88 -4.21,10.16 -2.83,8.13 7.04,-2.9 7.11,2.96 -2.9,-8.19 z" /><path
     id="path3834"
     class="cls-8"
     transform="matrix(0.26458333,0,0,0.26458333,-2.7516669,-3.4078331)"
     style="fill:#ff5100"
     d="m 142.96,31.17 2.82,-8.13 4.22,-10.16 -25.41,25.4 10.17,-4.22 z" /><path
     id="path3837"
     class="cls-6"
     transform="matrix(0.26458333,0,0,0.26458333,-2.7516669,-3.4078331)"
     style="fill:#00bed6"
     d="m 183.48,71.59 -4.24,1.73 -4.22,-1.77 -1.74,-4.24 1.78,-4.22 4.24,-1.74 4.22,1.77 1.73,4.24 z" /><path
     id="path3840"
     class="cls-1"
     transform="matrix(0.26458333,0,0,0.26458333,-2.7516669,-3.4078331)"
     style="fill:#004e59"
     d="m 170.15,69.86 -6.08,-2.52 15.2,15.19 -2.52,-6.08 -1.73,-4.9 z" /><path
     id="path3843"
     class="cls-4"
     transform="matrix(0.26458333,0,0,0.26458333,-2.7516669,-3.4078331)"
     style="fill:#00abc8"
     d="m 188.37,69.83 0.01,0.01 6.08,-2.53 -6.08,-2.52 -4.86,-1.68 1.73,4.2 -1.77,4.26 4.9,-1.73 z" /><path
     id="path3846"
     class="cls-4"
     transform="matrix(0.26458333,0,0,0.26458333,-2.7516669,-3.4078331)"
     style="fill:#00abc8"
     d="m 183.48,71.59 -4.21,1.73 -4.25,-1.77 1.73,4.9 2.52,6.08 2.52,-6.08 z" /><path
     id="path3849"
     class="cls-6"
     transform="matrix(0.26458333,0,0,0.26458333,-2.7516669,-3.4078331)"
     style="fill:#00bed6"
     d="m 183.52,63.12 4.86,1.69 6.08,2.53 -15.19,-15.2 2.52,6.08 z" /><path
     id="path3852"
     class="cls-6"
     transform="matrix(0.26458333,0,0,0.26458333,-2.7516669,-3.4078331)"
     style="fill:#00bed6"
     d="m 188.37,69.86 -4.9,1.73 -1.68,4.86 -2.52,6.08 15.19,-15.19 -6.08,2.52 z" /><path
     id="path3855"
     class="cls-4"
     transform="matrix(0.26458333,0,0,0.26458333,-2.7516669,-3.4078331)"
     style="fill:#00abc8"
     d="m 170.15,64.82 -6.08,2.52 6.08,2.52 4.86,1.69 -1.73,-4.21 1.78,-4.25 z" /><path
     id="path3858"
     class="cls-7"
     transform="matrix(0.26458333,0,0,0.26458333,-2.7516669,-3.4078331)"
     style="fill:#5fd0df"
     d="m 179.27,52.14 -2.52,6.09 -1.69,4.86 4.2,-1.74 4.26,1.78 -1.73,-4.9 z" /><path
     id="path3861"
     class="cls-5"
     transform="matrix(0.26458333,0,0,0.26458333,-2.7516669,-3.4078331)"
     style="fill:#00758d"
     d="m 175.06,63.09 1.69,-4.87 2.52,-6.08 -15.2,15.2 6.08,-2.52 z" /><path
     id="path3864"
     class="cls-6"
     transform="matrix(0.26458333,0,0,0.26458333,-2.7516669,-3.4078331)"
     style="fill:#00bed6"
     d="m 124.94,71.59 -4.23,1.73 -4.23,-1.77 -1.73,-4.24 1.77,-4.22 4.24,-1.74 4.22,1.77 1.74,4.24 z" /><path
     id="path3867"
     class="cls-1"
     transform="matrix(0.26458333,0,0,0.26458333,-2.7516669,-3.4078331)"
     style="fill:#004e59"
     d="m 111.62,69.86 -6.08,-2.52 15.19,15.19 -2.52,-6.08 -1.73,-4.9 z" /><path
     id="path3870"
     class="cls-4"
     transform="matrix(0.26458333,0,0,0.26458333,-2.7516669,-3.4078331)"
     style="fill:#00abc8"
     d="m 129.84,69.83 0.01,0.01 6.08,-2.53 -6.08,-2.52 -4.87,-1.68 1.73,4.2 h 0.01 l -1.78,4.26 4.91,-1.73 z" /><path
     id="path3873"
     class="cls-4"
     transform="matrix(0.26458333,0,0,0.26458333,-2.7516669,-3.4078331)"
     style="fill:#00abc8"
     d="m 124.94,71.59 -4.2,1.73 h -0.01 l -4.25,-1.77 1.73,4.9 2.52,6.08 2.53,-6.08 z" /><path
     id="path3876"
     class="cls-6"
     transform="matrix(0.26458333,0,0,0.26458333,-2.7516669,-3.4078331)"
     style="fill:#00bed6"
     d="m 124.98,63.12 4.87,1.69 6.08,2.53 -15.2,-15.2 2.53,6.08 z" /><path
     id="path3879"
     class="cls-6"
     transform="matrix(0.26458333,0,0,0.26458333,-2.7516669,-3.4078331)"
     style="fill:#00bed6"
     d="m 129.84,69.86 -4.9,1.73 -1.69,4.86 -2.52,6.08 15.2,-15.19 -6.08,2.52 z" /><path
     id="path3882"
     class="cls-4"
     transform="matrix(0.26458333,0,0,0.26458333,-2.7516669,-3.4078331)"
     style="fill:#00abc8"
     d="m 111.62,64.82 -6.08,2.52 6.08,2.52 4.86,1.69 -1.73,-4.21 1.77,-4.25 z" /><path
     id="path3885"
     class="cls-7"
     transform="matrix(0.26458333,0,0,0.26458333,-2.7516669,-3.4078331)"
     style="fill:#5fd0df"
     d="m 120.73,52.14 -2.52,6.09 -1.69,4.86 4.21,-1.74 4.25,1.78 -1.72,-4.9 z" /><path
     id="path3888"
     class="cls-5"
     transform="matrix(0.26458333,0,0,0.26458333,-2.7516669,-3.4078331)"
     style="fill:#00758d"
     d="m 116.52,63.09 1.69,-4.87 2.52,-6.08 -15.19,15.2 6.08,-2.52 z" /></svg>
