<?xml version="1.0" encoding="UTF-8"?><svg id="Capa_1" xmlns="http://www.w3.org/2000/svg" viewBox="0 0 1200 700"><defs><style>.cls-1{fill:#8cc04b;}.cls-2{fill:#3f3f3e;}</style></defs><path class="cls-1" d="m856.02,125.96c-8.7-20.21-21.08-38.2-36.79-53.47-30.95-30.08-71.3-45.98-113.61-44.77-38.81,1.11-73.28,13.57-102.44,37.02-17.41,12.77-30.31,27.62-39.43,45.38-10.82,21.08-16.74,46.68-18.1,78.28-2.51,58.34-13.97,94.54-36.07,113.91-8.88,7.24-18.89,12.79-29.75,16.48-7.52,2.32-14.91,3.52-21.74,4.04v-21.96l48.41-47.87.14-.14-13.2-14.3-35.35,34.63v-52.85h-19.62v52.9l-34.47-29.29-12.1,15.4,46.39,41.53v21.72c-.74-.07-1.46-.15-2.16-.23-43.8-7.23-75.58-44.7-75.58-89.07,0-49.84,40.55-90.39,90.39-90.39,13.25,0,26.14,2.9,38.31,8.61l.16.08,18.5-28.84-.2-.1c-17.34-8.9-36.04-13.42-55.58-13.42-32.56,0-63.18,12.68-86.21,35.71-23.03,23.03-35.71,53.64-35.71,86.21s12.68,63.18,35.71,86.21c19.73,19.73,45.03,31.86,72.36,34.93v49.43l19.8.27v-49.09c22.44-.78,42.85-7.42,60.7-19.78,25.2-16.52,43.33-41.52,51.05-70.38,7.09-21.43,8.67-41.94,10.2-61.77.17-2.18.33-4.34.51-6.51,0-.21,0-.41-.02-.62,0-.25-.02-.49-.02-.74,0-67.59,54.99-122.58,122.58-122.58s122.58,54.99,122.58,122.58c0,.21,0,.43-.02.64,0,.18-.01.37-.02.56,0,.05,0,.09,0,.14,0,.04,0,.08,0,.13,0,62.09-46.76,113.47-106.92,120.76v-57.33l48.55-48.01-13.2-14.3-35.35,34.63v-50.61h-19.62v50.66l-34.47-29.29-12.1,15.4,46.39,41.53v58.11c-14.11-.59-27.96-3.66-41.25-9.14-1.59-.63-3.2-1.32-4.79-2.03-.22-.1-.44-.2-.67-.3-.29-.13-.58-.26-.87-.39-9.42-4.39-18.23-9.94-26.18-16.49l-.13-.1-30.83,24.25.18.16c28.74,26.55,65.64,41.81,104.54,43.38v46.28l19.8.27v-46.93c17.49-1.38,34.49-5.52,50.67-12.36,19.52-8.26,37.05-20.08,52.1-35.13,15.05-15.05,26.87-32.58,35.13-52.1,8.55-20.21,12.88-41.68,12.88-63.8s-4.55-44.82-13.53-65.68Z"/><path class="cls-2" d="m260.88,513.27h19.07v54.22c-13.9,11.72-33.17,17.68-52.63,17.68-42.7,0-74.08-29.99-74.08-71.1s31.38-71.1,74.48-71.1c22.04,0,40.71,7.35,53.42,21.45l-12.31,12.31c-11.52-11.12-24.63-16.09-40.32-16.09-32.17,0-55.41,22.44-55.41,53.42s23.24,53.42,55.21,53.42c11.72,0,22.64-2.58,32.57-8.94v-45.28Z"/><path class="cls-2" d="m423.74,566.3v17.28h-100.89v-139.02h98.11v17.28h-78.25v42.7h69.71v16.88h-69.71v44.88h81.03Z"/><path class="cls-2" d="m579.64,444.55l-60.97,139.02h-19.66l-61.17-139.02h21.45l50.05,114.2,50.45-114.2h19.86Z"/><path class="cls-2" d="m589.57,514.07c0-40.71,31.38-71.1,74.08-71.1s73.68,30.19,73.68,71.1-31.38,71.1-73.68,71.1-74.08-30.39-74.08-71.1Zm127.9,0c0-30.78-23.04-53.42-53.82-53.42s-54.22,22.64-54.22,53.42,23.04,53.42,54.22,53.42,53.82-22.64,53.82-53.42Z"/><path class="cls-2" d="m865.63,583.58l-29.99-42.7c-2.78.2-5.76.4-8.74.4h-34.36v42.3h-19.86v-139.02h54.22c36.15,0,57.99,18.27,57.99,48.46,0,21.45-11.12,36.94-30.58,43.89l32.97,46.67h-21.65Zm-.6-90.56c0-19.86-13.31-31.18-38.73-31.18h-33.76v62.56h33.76c25.42,0,38.73-11.52,38.73-31.38Z"/><path class="cls-2" d="m1010.61,548.82h-73.88l-15.29,34.76h-20.46l62.96-139.02h19.66l63.16,139.02h-20.85l-15.29-34.76Zm-6.95-15.89l-29.99-68.12-29.99,68.12h59.98Z"/><path class="cls-2" d="m363.95,672.06l-9.43-13.21c-1.24.17-2.48.28-3.84.28h-11.29v12.93h-2.88v-39.52h14.17c9.94,0,15.92,4.97,15.92,13.33,0,6.27-3.39,10.62-9.26,12.37l9.88,13.83h-3.27Zm-13.27-15.47c8.47,0,12.99-3.95,12.99-10.73s-4.52-10.73-12.99-10.73h-11.29v21.46h11.29Z"/><path class="cls-2" d="m415.73,669.46v2.6h-27.27v-39.52h26.43v2.6h-23.55v15.58h21.06v2.54h-21.06v16.2h24.39Z"/><path class="cls-2" d="m433.51,666.98l1.3-2.15c2.71,2.82,7.74,4.97,13.04,4.97,7.9,0,11.41-3.44,11.41-7.74,0-11.86-24.67-4.74-24.67-19.31,0-5.59,4.29-10.5,14-10.5,4.35,0,8.86,1.36,11.91,3.56l-1.07,2.32c-3.28-2.26-7.28-3.33-10.84-3.33-7.68,0-11.12,3.56-11.12,7.91,0,11.86,24.67,4.86,24.67,19.2,0,5.59-4.46,10.45-14.23,10.45-5.87,0-11.52-2.2-14.4-5.36Z"/><path class="cls-2" d="m483.2,632.54h2.88v39.52h-2.88v-39.52Z"/><path class="cls-2" d="m511.15,632.54h15.64c12.54,0,21,8.24,21,19.76s-8.47,19.76-21,19.76h-15.64v-39.52Zm15.41,36.93c11.18,0,18.35-7.11,18.35-17.16s-7.17-17.16-18.35-17.16h-12.54v34.33h12.54Z"/><path class="cls-2" d="m596.35,669.46v2.6h-27.27v-39.52h26.43v2.6h-23.55v15.58h21.06v2.54h-21.06v16.2h24.39Z"/><path class="cls-2" d="m650.33,632.54v39.52h-2.37l-26.93-34.33v34.33h-2.88v-39.52h2.43l26.88,34.33v-34.33h2.88Z"/><path class="cls-2" d="m671.62,652.3c0-11.52,8.75-20.04,20.5-20.04,5.59,0,10.62,1.81,14.06,5.48l-1.81,1.86c-3.39-3.33-7.51-4.69-12.14-4.69-10.11,0-17.73,7.45-17.73,17.39s7.62,17.39,17.73,17.39c4.63,0,8.75-1.41,12.14-4.74l1.81,1.86c-3.44,3.67-8.47,5.53-14.06,5.53-11.74,0-20.5-8.53-20.5-20.04Z"/><path class="cls-2" d="m727.12,632.54h2.88v39.52h-2.88v-39.52Z"/><path class="cls-2" d="m779.52,660.94h-22.92l-5.03,11.12h-3.11l18.18-39.52h2.88l18.18,39.52h-3.11l-5.08-11.12Zm-1.07-2.43l-10.39-22.81-10.33,22.81h20.72Z"/><path class="cls-2" d="m806.17,632.54h2.88v36.93h22.75v2.6h-25.63v-39.52Z"/></svg>