<?xml version="1.0" encoding="UTF-8" standalone="no"?>
<!-- Created with Inkscape (http://www.inkscape.org/) -->

<svg
   width="1066.2787mm"
   height="211.66667mm"
   viewBox="0 0 1066.2787 211.66667"
   version="1.1"
   id="svg5"
   xml:space="preserve"
   inkscape:version="1.2.1 (9c6d41e410, 2022-07-14)"
   sodipodi:docname="los_rincones_blanco.svg"
   xmlns:inkscape="http://www.inkscape.org/namespaces/inkscape"
   xmlns:sodipodi="http://sodipodi.sourceforge.net/DTD/sodipodi-0.dtd"
   xmlns="http://www.w3.org/2000/svg"
   xmlns:svg="http://www.w3.org/2000/svg"><sodipodi:namedview
     id="namedview7"
     pagecolor="#ffffff"
     bordercolor="#000000"
     borderopacity="0.25"
     inkscape:showpageshadow="2"
     inkscape:pageopacity="0.0"
     inkscape:pagecheckerboard="0"
     inkscape:deskcolor="#d1d1d1"
     inkscape:document-units="mm"
     showgrid="false"
     inkscape:zoom="0.18774726"
     inkscape:cx="2292.9762"
     inkscape:cy="705.73598"
     inkscape:window-width="1920"
     inkscape:window-height="1001"
     inkscape:window-x="2391"
     inkscape:window-y="-9"
     inkscape:window-maximized="1"
     inkscape:current-layer="layer1" /><defs
     id="defs2"><style
       id="style453">.cls-1{isolation:isolate;}.cls-2{fill:#53883e;}.cls-3{clip-path:url(#clippath-1);}.cls-4{fill:url(#Degradado_sin_nombre_3);}.cls-5{fill:#9b8a73;}.cls-6{mix-blend-mode:multiply;opacity:.31;}.cls-7{clip-path:url(#clippath);}.cls-8{fill:#7fb960;}.cls-9{fill:none;}.cls-10{fill:#4d4015;}.cls-11{fill:#cae0b6;}</style><clipPath
       id="clippath"><path
         class="cls-9"
         d="m 205.6,24.57 c -2.15,4.67 -7.6,8.8 -4.25,13.98 1.48,0.88 4.36,1.47 6.46,0.93 5.7,-1.45 7.69,-6.51 7.52,-11.88 -0.24,-7.47 -4.2,-12.89 -9.67,-17.6 2.14,4.73 2.12,9.81 -0.07,14.57"
         id="path455" /></clipPath><radialGradient
       id="Degradado_sin_nombre_3"
       cx="-6065.2002"
       cy="1547.25"
       fx="-6065.2002"
       fy="1547.25"
       r="3.1199999"
       gradientTransform="matrix(-7.76,0,0,7.76,-46823.26,-11974.75)"
       gradientUnits="userSpaceOnUse"><stop
         offset="0"
         stop-color="#b3d39b"
         id="stop458" /><stop
         offset=".09"
         stop-color="#a0c986"
         id="stop460" /><stop
         offset=".24"
         stop-color="#85bc68"
         id="stop462" /><stop
         offset=".4"
         stop-color="#70b150"
         id="stop464" /><stop
         offset=".57"
         stop-color="#60a940"
         id="stop466" /><stop
         offset=".76"
         stop-color="#57a536"
         id="stop468" /><stop
         offset="1"
         stop-color="#55a433"
         id="stop470" /></radialGradient><clipPath
       id="clippath-1"><rect
         class="cls-9"
         x="202.99001"
         y="12.51"
         width="7.7399998"
         height="25.73"
         id="rect473" /></clipPath><filter
       style="color-interpolation-filters:sRGB;"
       inkscape:label="Greyscale"
       id="filter888"
       x="0"
       y="0.095614875"
       width="1"
       height="0.90438513"><feColorMatrix
         values="0 0 0 0 0 0 0 0 0 0 0 0 0 0 0 -3.61 -0.89 4.6 0.97 0 "
         id="feColorMatrix886"
         result="fbSourceGraphic" /><feColorMatrix
         result="fbSourceGraphicAlpha"
         in="fbSourceGraphic"
         values="0 0 0 -1 0 0 0 0 -1 0 0 0 0 -1 0 0 0 0 1 0"
         id="feColorMatrix890" /><feColorMatrix
         id="feColorMatrix892"
         values="0 0 0 0 0 0 0 0 0 0 0 0 0 0 0 -3.61 -0.89 4.6 0.97 0 "
         in="fbSourceGraphic"
         result="fbSourceGraphic" /><feColorMatrix
         result="fbSourceGraphicAlpha"
         in="fbSourceGraphic"
         values="0 0 0 -1 0 0 0 0 -1 0 0 0 0 -1 0 0 0 0 1 0"
         id="feColorMatrix894" /><feColorMatrix
         id="feColorMatrix896"
         values="0 0 0 0 0 0 0 0 0 0 0 0 0 0 0 -3.61 -0.89 4.6 0.97 0 "
         in="fbSourceGraphic" /></filter></defs><g
     inkscape:label="Capa 1"
     inkscape:groupmode="layer"
     id="layer1"
     transform="translate(77.451919,-3.732067)"><g
       id="Capa_1"
       style="isolation:isolate;stroke-width:0.0712625;filter:url(#filter888)"
       transform="matrix(3.7127989,0,0,3.7127989,-101.25096,-33.395922)"><path
         class="cls-5"
         d="m 73.16,56.21 h 2.77 c 1.66,0 2.43,0.2 2.98,0.54 0.86,0.52 1.45,1.65 1.45,2.85 0.02,0.72 -0.19,1.48 -0.63,2.08 -0.63,0.86 -1.39,1.06 -2.37,1.16 l 2.63,3.97 H 78.7 l -2.99,-4.63 h 0.35 c 0.74,0 1.77,-0.01 2.35,-0.54 0.56,-0.55 0.8,-1.19 0.8,-1.95 0,-0.76 -0.39,-1.62 -1.05,-2.05 -0.53,-0.34 -1.19,-0.39 -2.15,-0.39 h -1.66 v 9.56 h -1.19 z"
         id="path478"
         style="stroke-width:0.0712625" /><polygon
         class="cls-5"
         points="94.54,66.81 88.66,66.81 88.66,56.21 94.54,56.21 94.54,57.26 89.84,57.26 89.84,60.94 94.51,60.94 94.51,61.99 89.84,61.99 89.84,65.77 94.54,65.77 "
         id="polygon480"
         style="stroke-width:0.0712625" /><path
         class="cls-5"
         d="m 104.08,63.86 c 0.17,1.76 1.46,2.14 2.12,2.14 1.1,0 2.12,-0.85 2.12,-2.02 0,-1.49 -1.27,-1.82 -2.5,-2.22 -0.86,-0.26 -2.71,-0.81 -2.71,-2.81 -0.03,-1.88 1.53,-2.92 3.15,-2.92 1.32,0 2.84,0.73 3.01,2.73 h -1.17 c -0.13,-0.69 -0.47,-1.73 -1.88,-1.73 -1.06,0 -1.94,0.71 -1.94,1.82 -0.01,1.29 1.03,1.6 2.64,2.15 1,0.39 2.58,0.95 2.58,2.9 0,1.73 -1.3,3.11 -3.28,3.11 -1.78,0 -3.25,-1.12 -3.32,-3.14 h 1.19 z"
         id="path482"
         style="stroke-width:0.0712625" /><rect
         class="cls-5"
         x="118.08"
         y="56.209999"
         width="1.1799999"
         height="10.6"
         id="rect484"
         style="stroke-width:0.0712625" /><path
         class="cls-5"
         d="m 128.38,56.21 h 3.17 c 1.5,0 3.11,0.33 4.17,1.59 0.86,0.95 1.28,2.19 1.28,3.7 0,3.19 -1.82,5.31 -5.39,5.31 h -3.22 v -10.6 z m 1.18,9.56 h 2.11 c 2.72,0 4.14,-1.68 4.14,-4.23 0,-1.23 -0.33,-2.32 -1.03,-3.09 -0.67,-0.71 -1.66,-1.19 -3.11,-1.19 h -2.11 z"
         id="path486"
         style="stroke-width:0.0712625" /><polygon
         class="cls-5"
         points="150.94,66.81 145.06,66.81 145.06,56.21 150.94,56.21 150.94,57.26 146.24,57.26 146.24,60.94 150.91,60.94 150.91,61.99 146.24,61.99 146.24,65.77 150.94,65.77 "
         id="polygon488"
         style="stroke-width:0.0712625" /><polygon
         class="cls-5"
         points="167.23,65.07 167.21,56.21 168.36,56.21 168.36,66.81 167.21,66.81 160.92,57.89 160.95,66.81 159.81,66.81 159.81,56.21 161.01,56.21 "
         id="polygon490"
         style="stroke-width:0.0712625" /><path
         class="cls-5"
         d="m 186.28,63.96 c -0.69,1.63 -2.53,3.04 -4.87,3.04 -3.13,0 -5.53,-2.42 -5.53,-5.49 0,-3.07 2.34,-5.48 5.52,-5.48 2.62,0 4.27,1.75 4.88,3.09 h -1.27 c -0.36,-0.63 -1.56,-2.05 -3.61,-2.05 -2.48,0 -4.34,1.96 -4.34,4.43 0,2.47 1.88,4.45 4.34,4.45 2.22,0 3.35,-1.59 3.61,-1.99 z"
         id="path492"
         style="stroke-width:0.0712625" /><rect
         class="cls-5"
         x="194.83"
         y="56.209999"
         width="1.17"
         height="10.6"
         id="rect494"
         style="stroke-width:0.0712625" /><path
         class="cls-5"
         d="m 204.75,66.81 h -1.27 l 4.43,-10.6 h 1.15 l 4.39,10.6 h -1.29 l -1.23,-2.98 h -4.94 l -1.22,2.98 z m 3.68,-9.27 -2.11,5.31 h 4.23 z"
         id="path496"
         style="stroke-width:0.0712625" /><polygon
         class="cls-5"
         points="226.84,66.81 221.61,66.81 221.61,56.21 222.8,56.21 222.8,65.77 226.84,65.77 "
         id="polygon498"
         style="stroke-width:0.0712625" /><polygon
         class="cls-10"
         points="19.74,42.4 6.41,42.4 6.41,16.37 10.56,16.37 10.56,38.74 19.74,38.74 "
         id="polygon500"
         style="stroke-width:0.0712625" /><path
         class="cls-10"
         d="m 23.6,29.53 c 0,-8.19 6.29,-13.65 13.61,-13.65 7.77,0 13.64,6.02 13.64,13.5 0,7.48 -5.87,13.5 -13.68,13.5 -7.81,0 -13.57,-6.15 -13.57,-13.33 v -0.03 z m 4.11,-0.14 c 0,5.41 4.01,9.85 9.56,9.85 5.55,0 9.42,-4.75 9.42,-9.81 0,-5.06 -3.76,-9.88 -9.46,-9.88 -5.7,0 -9.53,4.57 -9.53,9.81 v 0.04 z"
         id="path502"
         style="stroke-width:0.0712625" /><path
         class="cls-10"
         d="m 60.46,34.7 c 0.28,3.9 3.02,4.68 4.4,4.68 2.32,0 4.33,-1.83 4.33,-4.15 0,-2.88 -2.46,-3.55 -5.8,-4.78 -2.04,-0.67 -6.58,-2.18 -6.58,-7.07 -0.03,-4.85 4.11,-7.49 8.19,-7.49 3.34,0 7.53,1.83 7.84,7.17 h -4.08 c -0.28,-1.41 -0.91,-3.66 -3.9,-3.66 -2.11,0 -3.94,1.44 -3.94,3.66 0,2.53 1.94,3.17 6.12,4.71 3.24,1.37 6.26,3.02 6.26,7.25 0,4.23 -2.85,7.88 -8.4,7.88 -5.17,0 -8.48,-3.17 -8.54,-8.19 h 4.11 z"
         id="path504"
         style="stroke-width:0.0712625" /><path
         class="cls-10"
         d="m 94.18,16.37 h 7.35 c 4.08,0 6.19,0.56 7.56,1.51 2.15,1.41 3.45,4.11 3.45,7.03 0,1.83 -0.53,3.59 -1.48,4.96 -1.34,1.87 -3.02,2.5 -5.03,2.85 l 6.12,9.67 h -4.4 l -7.14,-11.75 h 0.91 c 1.8,0 3.98,-0.07 5.2,-1.12 1.2,-1.06 1.8,-2.57 1.8,-4.25 0,-1.68 -0.85,-3.48 -2.22,-4.4 -1.13,-0.7 -2.57,-0.84 -4.43,-0.84 H 98.32 V 42.4 H 94.17 V 16.38 Z"
         id="path506"
         style="stroke-width:0.0712625" /><rect
         class="cls-10"
         x="119.26"
         y="16.370001"
         width="4.1500001"
         height="26.02"
         id="rect508"
         style="stroke-width:0.0712625" /><polygon
         class="cls-10"
         points="149.91,36.17 149.84,16.37 153.85,16.37 153.85,42.4 150.05,42.4 136.44,22.56 136.51,42.4 132.51,42.4 132.51,16.37 136.41,16.37 "
         id="polygon510"
         style="stroke-width:0.0712625" /><path
         class="cls-10"
         d="m 186.11,34.48 c -1.62,4.75 -6.44,8.4 -12.34,8.4 -7.84,0 -13.61,-6.15 -13.61,-13.54 0,-7.39 5.52,-13.47 13.57,-13.47 7,0.04 11.15,4.96 12.42,8.54 h -4.4 c -0.84,-1.69 -3.48,-4.85 -8.05,-4.89 -5.52,0 -9.39,4.54 -9.39,9.81 0,5.27 3.94,9.88 9.42,9.88 5.03,0 7.46,-3.8 8.02,-4.75 h 4.36 z"
         id="path512"
         style="stroke-width:0.0712625" /><path
         class="cls-10"
         d="m 192.16,29.53 c 0,-8.19 6.29,-13.65 13.61,-13.65 7.77,0 13.64,6.02 13.64,13.5 0,7.48 -5.88,13.5 -13.68,13.5 -7.8,0 -13.57,-6.15 -13.57,-13.33 v -0.03 z m 4.11,-0.14 c 0,5.41 4.01,9.85 9.56,9.85 5.55,0 9.43,-4.75 9.43,-9.81 0,-5.06 -3.76,-9.88 -9.46,-9.88 -5.7,0 -9.53,4.57 -9.53,9.81 v 0.04 z"
         id="path514"
         style="stroke-width:0.0712625" /><polygon
         class="cls-10"
         points="243.06,36.17 242.99,16.37 247,16.37 247,42.4 243.2,42.4 229.59,22.56 229.66,42.4 225.65,42.4 225.65,16.37 229.56,16.37 "
         id="polygon516"
         style="stroke-width:0.0712625" /><polygon
         class="cls-10"
         points="270.1,42.4 255.54,42.4 255.54,16.37 270.1,16.37 270.1,20.03 259.69,20.03 259.69,27.42 269.96,27.42 269.96,31.04 259.69,31.04 259.69,38.74 270.1,38.74 "
         id="polygon518"
         style="stroke-width:0.0712625" /><path
         class="cls-10"
         d="m 280.76,34.7 c 0.28,3.9 3.02,4.68 4.4,4.68 2.32,0 4.33,-1.83 4.33,-4.15 0,-2.88 -2.46,-3.55 -5.8,-4.78 -2.04,-0.67 -6.58,-2.18 -6.58,-7.07 -0.03,-4.85 4.11,-7.49 8.19,-7.49 3.34,0 7.53,1.83 7.84,7.17 h -4.08 c -0.28,-1.41 -0.91,-3.66 -3.9,-3.66 -2.11,0 -3.94,1.44 -3.94,3.66 0,2.53 1.94,3.17 6.12,4.71 3.24,1.37 6.26,3.02 6.26,7.25 0,4.23 -2.85,7.88 -8.4,7.88 -5.17,0 -8.48,-3.17 -8.54,-8.19 h 4.11 z"
         id="path520"
         style="stroke-width:0.0712625" /><g
         class="cls-7"
         clip-path="url(#clippath)"
         id="g524"
         style="stroke-width:0.0712625"><rect
           class="cls-4"
           x="189.57001"
           y="11.32"
           width="34.360001"
           height="27.379999"
           transform="rotate(-68.24,206.74743,25.003767)"
           id="rect522"
           style="fill:url(#Degradado_sin_nombre_3);stroke-width:0.0712625" /></g><g
         class="cls-6"
         id="g530"
         style="stroke-width:0.0712625"><g
           class="cls-3"
           clip-path="url(#clippath-1)"
           id="g528"
           style="stroke-width:0.0712625"><path
             class="cls-2"
             d="m 207.19,12.52 c 0,0 10.28,14.89 -4.22,25.72 0,0 13.36,-9.7 4.22,-25.72"
             id="path526"
             style="stroke-width:0.0712625" /></g></g><path
         class="cls-11"
         d="m 214.44,31.39 c 0,0 2.98,-10.25 -7.04,-19.25 0,0 8.31,7.65 7.04,19.25"
         id="path532"
         style="stroke-width:0.0712625" /><path
         class="cls-8"
         d="m 206.88,12.52 c 0,0 9.45,14.16 -4.98,25.91 0,0 -3.28,-3.34 1.07,-8.75 0,0 6.83,-7.44 3.91,-17.16"
         id="path534"
         style="stroke-width:0.0712625" /></g></g></svg>
