<svg xmlns="http://www.w3.org/2000/svg" width="238.823" height="171.939" viewBox="0 0 238.823 171.939">
  <g id="Group_125" data-name="Group 125" transform="translate(-112.83 -59.046)">
    <g id="Group_53" data-name="Group 53" transform="translate(112.83 130.229)">
      <g id="Group_51" data-name="Group 51" transform="translate(0 0)">
        <g id="Group_50" data-name="Group 50" transform="translate(45.189 10.305)">
          <path id="Path_154" data-name="Path 154" d="M239.391,216.592c0,14.306-11.473,25.289-26.638,25.289s-26.632-10.908-26.632-25.289c0-14.455,11.473-25.149,26.632-25.149S239.391,202.206,239.391,216.592Zm-41.8,0A15.42,15.42,0,0,0,212.9,232.1a15.442,15.442,0,1,0-15.3-15.511Z" transform="translate(-186.121 -191.299)" fill="#434142"/>
          <path id="Path_155" data-name="Path 155" d="M299.841,241.6H288.65V225.879L270.3,192.013h11.265l12.679,22.243,12.4-22.243h11.265L299.841,225.59Z" transform="translate(-218.398 -191.517)" fill="#434142"/>
          <path id="Path_156" data-name="Path 156" d="M355.334,231.97,351.44,241.6H339.892l21.539-49.59h11.548L394.16,241.6H382.185l-3.894-9.633Zm11.548-28.265-7.862,19.266h15.655Z" transform="translate(-245.081 -191.517)" fill="#434142"/>
          <path id="Path_157" data-name="Path 157" d="M474.2,196.6l-4.32,9.275c-5.243-3.115-11.473-5.1-15.441-5.1-3.755,0-6.305,1.344-6.305,4.038,0,9.137,26.424,4.038,26.355,21.891,0,9.708-8.434,14.946-19.41,14.946a34.8,34.8,0,0,1-21.891-7.863l4.459-9.137c5.1,4.534,12.326,7.436,17.57,7.436,4.6,0,7.366-1.7,7.366-4.742,0-9.356-26.424-3.9-26.424-21.47,0-8.993,7.724-14.663,19.2-14.663A35.424,35.424,0,0,1,474.2,196.6Z" transform="translate(-280.853 -191.209)" fill="#434142"/>
        </g>
        <path id="Path_158" data-name="Path 158" d="M148.777,217c0,11.955-7.038,18.738-18.482,18.738a21.929,21.929,0,0,1-17.466-8.563l4.749-7.629c3.9,4.24,8.562,6.526,12.632,6.526,5.341,0,8.477-3.3,8.477-9.41V183.482H118.173V174.5h30.6Z" transform="translate(-112.83 -174.496)" fill="#434142"/>
      </g>
      <g id="Group_52" data-name="Group 52" transform="translate(1.016 68.577)">
        <path id="Path_159" data-name="Path 159" d="M130.48,309.082a9.331,9.331,0,0,1-3.021,2.025,9.385,9.385,0,0,1-7.211,0,9.338,9.338,0,0,1-3.021-2.025,9.168,9.168,0,0,1-2.045-3.057,9.5,9.5,0,0,1,0-7.179,9.162,9.162,0,0,1,2.045-3.057,9.33,9.33,0,0,1,3.021-2.025,9.378,9.378,0,0,1,7.211,0,9.323,9.323,0,0,1,3.021,2.025,3.74,3.74,0,0,1,.344.38V287h2.4v15.421a9.384,9.384,0,0,1-.7,3.606A9.215,9.215,0,0,1,130.48,309.082Zm-6.626-13.637a6.754,6.754,0,0,0-2.713.552,6.976,6.976,0,0,0-3.709,3.709,6.745,6.745,0,0,0-.549,2.713,6.864,6.864,0,0,0,.549,2.729,6.933,6.933,0,0,0,3.709,3.726,6.945,6.945,0,0,0,5.426,0,6.933,6.933,0,0,0,3.709-3.726,6.863,6.863,0,0,0,.548-2.729,6.744,6.744,0,0,0-.548-2.713A6.976,6.976,0,0,0,126.567,296,6.756,6.756,0,0,0,123.854,295.445Z" transform="translate(-114.478 -286.209)" fill="#ff5100"/>
        <path id="Path_160" data-name="Path 160" d="M153.7,306.279a6.476,6.476,0,0,0,.565,2.7,7.154,7.154,0,0,0,3.709,3.658,6.647,6.647,0,0,0,2.7.552,6.769,6.769,0,0,0,3.573-.98,6.883,6.883,0,0,0,2.505-2.593h2.68a9.445,9.445,0,0,1-2.132,3.229,9.8,9.8,0,0,1-3.037,2.025,9.1,9.1,0,0,1-3.589.72,9.231,9.231,0,0,1-3.606-.72,9.34,9.34,0,0,1-3.021-2.025,9.255,9.255,0,0,1-2.749-6.63,9.394,9.394,0,0,1,.7-3.606,8.8,8.8,0,0,1,2.045-3.021,9.089,9.089,0,0,1,3.021-2.061,9.229,9.229,0,0,1,3.606-.721,9.1,9.1,0,0,1,3.589.721,9.525,9.525,0,0,1,3.037,2.061,8.769,8.769,0,0,1,2.045,3.057,9.642,9.642,0,0,1,.7,3.638Zm6.971-7.075a6.863,6.863,0,0,0-2.165.344,7.019,7.019,0,0,0-3.4,2.44,7.194,7.194,0,0,0-1.032,1.889h13.153a7.147,7.147,0,0,0-2.522-3.365A6.635,6.635,0,0,0,160.671,299.2Z" transform="translate(-128.595 -289.969)" fill="#ff5100"/>
        <path id="Path_161" data-name="Path 161" d="M217.716,311.336a12.28,12.28,0,0,1-3.417-.584,7.914,7.914,0,0,1-2.7-1.477,6.629,6.629,0,0,1-1.768-2.385,8.483,8.483,0,0,1-.669-3.313h2.4a5.407,5.407,0,0,0,1.905,4.1,6.85,6.85,0,0,0,4.241,1.256,7.838,7.838,0,0,0,2.009-.26,5.341,5.341,0,0,0,1.716-.772,4.064,4.064,0,0,0,1.2-1.321,3.779,3.779,0,0,0,.464-1.908,3.621,3.621,0,0,0-.568-2.093,4.85,4.85,0,0,0-1.493-1.392,10.374,10.374,0,0,0-2.113-.961q-1.187-.394-2.4-.808c-.814-.273-1.613-.571-2.4-.892a8.556,8.556,0,0,1-2.113-1.22,5.566,5.566,0,0,1-1.493-1.837,5.894,5.894,0,0,1-.568-2.713,6.692,6.692,0,0,1,.636-2.953,6.9,6.9,0,0,1,1.684-2.217A7.414,7.414,0,0,1,214.7,286.2a8.542,8.542,0,0,1,2.849-.48,8.121,8.121,0,0,1,2.661.444,7.727,7.727,0,0,1,2.284,1.236,5.974,5.974,0,0,1,1.6,1.941,5.4,5.4,0,0,1,.6,2.524h-2.4a3.686,3.686,0,0,0-.5-1.665,3.787,3.787,0,0,0-1.1-1.168,4.829,4.829,0,0,0-1.493-.688,6.263,6.263,0,0,0-1.649-.221,6.1,6.1,0,0,0-2.009.324,5.316,5.316,0,0,0-1.649.909,4.206,4.206,0,0,0-1.116,1.46,4.49,4.49,0,0,0-.412,1.941,3.206,3.206,0,0,0,.549,1.924,4.808,4.808,0,0,0,1.444,1.289,10.3,10.3,0,0,0,2.025.908c.757.253,1.535.5,2.337.757s1.583.538,2.353.856a8.428,8.428,0,0,1,2.077,1.236,6.442,6.442,0,0,1,1.7,7.85,6.173,6.173,0,0,1-1.784,2.077,8.368,8.368,0,0,1-2.509,1.253A9.583,9.583,0,0,1,217.716,311.336Z" transform="translate(-150.784 -285.719)" fill="#ff5100"/>
        <path id="Path_162" data-name="Path 162" d="M255.916,299.549a9.209,9.209,0,0,1,2.045,3.057,9.394,9.394,0,0,1,.7,3.606V314.8h-2.4v-2.577a7.431,7.431,0,0,1-1.509,1.6,8.178,8.178,0,0,1-1.736,1.032,8.381,8.381,0,0,1-1.869.564,10.344,10.344,0,0,1-1.856.172,9.228,9.228,0,0,1-3.605-.72,9.333,9.333,0,0,1-3.021-2.025,9.168,9.168,0,0,1-2.045-3.057,9.5,9.5,0,0,1,0-7.179,9.162,9.162,0,0,1,2.045-3.057,9.323,9.323,0,0,1,3.021-2.025,9.378,9.378,0,0,1,7.211,0A9.323,9.323,0,0,1,255.916,299.549Zm-6.627,13.637a6.76,6.76,0,0,0,2.714-.552,6.982,6.982,0,0,0,3.709-3.709,6.754,6.754,0,0,0,.548-2.713,6.889,6.889,0,0,0-.548-2.73,7,7,0,0,0-1.493-2.233A7.081,7.081,0,0,0,252,299.756a6.946,6.946,0,0,0-5.426,0,7.084,7.084,0,0,0-2.217,1.493,7,7,0,0,0-1.493,2.233,6.89,6.89,0,0,0-.548,2.73,6.754,6.754,0,0,0,.548,2.713,6.976,6.976,0,0,0,3.709,3.709A6.757,6.757,0,0,0,249.289,313.185Z" transform="translate(-162.574 -289.969)" fill="#ff5100"/>
        <path id="Path_163" data-name="Path 163" d="M291.831,298.923a7.661,7.661,0,0,1,2.268,5.462v10.371h-2.4V304.384a5.008,5.008,0,0,0-.428-2.061,5.641,5.641,0,0,0-1.152-1.681,5.283,5.283,0,0,0-1.685-1.136,5.353,5.353,0,0,0-4.118,0,5.309,5.309,0,0,0-2.816,2.817,5.151,5.151,0,0,0-.413,2.061v10.371h-2.4v-17.17h1.993l.412,1.544a7.609,7.609,0,0,1,2.437-1.82,6.711,6.711,0,0,1,2.849-.617,7.873,7.873,0,0,1,2.957.565A7.5,7.5,0,0,1,291.831,298.923Z" transform="translate(-177.437 -289.927)" fill="#ff5100"/>
        <path id="Path_164" data-name="Path 164" d="M344.68,306.093a4.228,4.228,0,0,0-1.2-3.125,5.544,5.544,0,0,0-3.642-1.3h-6.283v9.375h-2.4V287h8.379a9.411,9.411,0,0,1,2.885.428,7.34,7.34,0,0,1,2.369,1.256,6.248,6.248,0,0,1,1.684,2.129,7.247,7.247,0,0,1,.445,1.408,10.265,10.265,0,0,1,.172,2.129,9.916,9.916,0,0,1-.172,2.145,7.521,7.521,0,0,1-.445,1.356,6.242,6.242,0,0,1-1.684,2.129c-.113.094-.22.178-.324.26a3.732,3.732,0,0,1-.328.224,5.119,5.119,0,0,1,.516.36c.159.127.321.256.48.393a6.351,6.351,0,0,1,1.889,3.778c.022.185.039.367.052.552s.016.366.016.548v4.946h-2.4Zm-1.408-8a3.512,3.512,0,0,0,.685-.893,6.127,6.127,0,0,0,.5-1.168,5.468,5.468,0,0,0,.224-1.681,6.243,6.243,0,0,0-.363-2.353,3.481,3.481,0,0,0-1.045-1.424,5.764,5.764,0,0,0-3.745-1.168h-5.975v9.856h5.975A5.767,5.767,0,0,0,343.272,298.09Z" transform="translate(-197.556 -286.209)" fill="#ff5100"/>
        <path id="Path_165" data-name="Path 165" d="M370.935,315.586a9.1,9.1,0,0,1-3.589-.72,9.8,9.8,0,0,1-3.037-2.025,9.692,9.692,0,0,1-2.029-3.057,9.3,9.3,0,0,1,0-7.179,9.686,9.686,0,0,1,2.029-3.057,9.791,9.791,0,0,1,3.037-2.025,9.1,9.1,0,0,1,3.589-.721,9.227,9.227,0,0,1,3.606.721,9.211,9.211,0,0,1,5.082,5.082,9.26,9.26,0,0,1,0,7.179,9.211,9.211,0,0,1-5.082,5.082A9.229,9.229,0,0,1,370.935,315.586Zm0-16.382a6.76,6.76,0,0,0-2.713.552,7.089,7.089,0,0,0-2.217,1.493,7,7,0,0,0-1.493,2.233,6.892,6.892,0,0,0-.548,2.73,6.756,6.756,0,0,0,.548,2.713,6.977,6.977,0,0,0,3.709,3.709,6.946,6.946,0,0,0,5.426,0,7.252,7.252,0,0,0,2.233-1.493,6.955,6.955,0,0,0,1.512-2.217,6.8,6.8,0,0,0,.549-2.713,6.951,6.951,0,0,0-2.061-4.962,7.307,7.307,0,0,0-2.233-1.493A6.76,6.76,0,0,0,370.935,299.2Z" transform="translate(-209.216 -289.969)" fill="#ff5100"/>
        <path id="Path_166" data-name="Path 166" d="M414.716,299.549a9.208,9.208,0,0,1,2.045,3.057,9.4,9.4,0,0,1,.7,3.606v15.937h-2.4v-9.687a3.336,3.336,0,0,1-.344.38,9.341,9.341,0,0,1-3.021,2.025,9.386,9.386,0,0,1-7.211,0,9.333,9.333,0,0,1-3.021-2.025,9.166,9.166,0,0,1-2.045-3.057,9.5,9.5,0,0,1,0-7.179,9.16,9.16,0,0,1,2.045-3.057,9.323,9.323,0,0,1,3.021-2.025,9.378,9.378,0,0,1,7.211,0A9.331,9.331,0,0,1,414.716,299.549Zm-6.627,13.637a6.754,6.754,0,0,0,2.713-.552,6.976,6.976,0,0,0,3.709-3.709,6.743,6.743,0,0,0,.549-2.713,6.878,6.878,0,0,0-.549-2.73,6.99,6.99,0,0,0-1.493-2.233,7.076,7.076,0,0,0-2.217-1.493,6.945,6.945,0,0,0-5.426,0,7.075,7.075,0,0,0-2.217,1.493,7,7,0,0,0-1.493,2.233,6.879,6.879,0,0,0-.548,2.73,6.743,6.743,0,0,0,.548,2.713,6.976,6.976,0,0,0,3.709,3.709A6.757,6.757,0,0,0,408.089,313.185Z" transform="translate(-223.462 -289.969)" fill="#ff5100"/>
        <path id="Path_167" data-name="Path 167" d="M438.069,313.869a7.727,7.727,0,0,1-1.681-2.508,7.628,7.628,0,0,1-.584-2.953V298.14h2.4v10.268a5.013,5.013,0,0,0,.429,2.061,5.513,5.513,0,0,0,1.152,1.681,5.3,5.3,0,0,0,1.681,1.136,5.353,5.353,0,0,0,4.121,0,5.35,5.35,0,0,0,1.684-1.136,5.567,5.567,0,0,0,1.149-1.681,5.014,5.014,0,0,0,.429-2.061V298.14h2.4v10.268a7.641,7.641,0,0,1-.584,2.953,7.727,7.727,0,0,1-1.682,2.508,7.526,7.526,0,0,1-2.508,1.665,8.01,8.01,0,0,1-5.906,0A7.53,7.53,0,0,1,438.069,313.869Z" transform="translate(-237.684 -290.482)" fill="#ff5100"/>
        <path id="Path_168" data-name="Path 168" d="M470.516,306.279a6.485,6.485,0,0,0,.564,2.7,7.155,7.155,0,0,0,3.709,3.658,6.647,6.647,0,0,0,2.7.552,6.767,6.767,0,0,0,3.573-.98,6.883,6.883,0,0,0,2.505-2.593h2.681a9.456,9.456,0,0,1-2.132,3.229,9.808,9.808,0,0,1-3.037,2.025,9.106,9.106,0,0,1-3.59.72,9.228,9.228,0,0,1-3.605-.72,9.334,9.334,0,0,1-3.021-2.025,9.255,9.255,0,0,1-2.749-6.63,9.382,9.382,0,0,1,.7-3.606,8.8,8.8,0,0,1,2.044-3.021,9.083,9.083,0,0,1,3.021-2.061,9.226,9.226,0,0,1,3.605-.721,9.1,9.1,0,0,1,3.59.721,9.531,9.531,0,0,1,3.037,2.061,8.769,8.769,0,0,1,2.044,3.057,9.654,9.654,0,0,1,.7,3.638Zm6.97-7.075a6.858,6.858,0,0,0-2.164.344,7.012,7.012,0,0,0-3.4,2.44,7.216,7.216,0,0,0-1.032,1.889h13.153a7.146,7.146,0,0,0-2.521-3.365A6.636,6.636,0,0,0,477.486,299.2Z" transform="translate(-250.071 -289.969)" fill="#ff5100"/>
      </g>
    </g>
    <g id="Group_57" data-name="Group 57" transform="translate(194.208 59.046)">
      <g id="Group_54" data-name="Group 54" transform="translate(16.302)">
        <path id="Path_169" data-name="Path 169" d="M301.139,97.527,295.1,94.993l-2.478-6.062,2.535-6.039,6.062-2.478,6.039,2.535,2.478,6.062L307.2,95.049Z" transform="translate(-279.448 -67.239)" fill="#ff9015"/>
        <path id="Path_170" data-name="Path 170" d="M289.38,107.325l-2.473-7.011L279.953,97.9l-8.7-3.606,21.731,21.731Z" transform="translate(-271.255 -72.56)" fill="#673918"/>
        <path id="Path_171" data-name="Path 171" d="M331.977,90.5l-8.7-3.606-6.954-2.417,2.478,6.02,0,0-2.539,6.082,7.011-2.473-.017-.018.017.013Z" transform="translate(-288.514 -68.796)" fill="#ff6b00"/>
        <path id="Path_172" data-name="Path 172" d="M308.742,104.12l-6.017,2.477,0,0-6.081-2.534,2.473,7.011,3.606,8.7,3.6-8.695v0Z" transform="translate(-280.988 -76.305)" fill="#ff6b00"/>
        <path id="Path_173" data-name="Path 173" d="M306.5,59.046l3.606,8.7,2.473,7.011,6.954,2.417,8.7,3.606Z" transform="translate(-284.769 -59.046)" fill="#ff9015"/>
        <path id="Path_174" data-name="Path 174" d="M319.533,97.9l-.007.007-7,2.471-2.414,6.947,0,0-3.606,8.7,21.731-21.731Z" transform="translate(-284.769 -72.56)" fill="#ff9015"/>
        <path id="Path_175" data-name="Path 175" d="M286.964,84.432l-7.011,2.473-8.7,3.606,8.7,3.606,6.954,2.417-2.478-6.02Z" transform="translate(-271.255 -68.78)" fill="#ff6b00"/>
        <path id="Path_176" data-name="Path 176" d="M306.361,67.744l-3.606-8.7-3.606,8.7L296.733,74.7l6.02-2.478,6.081,2.534Z" transform="translate(-281.024 -59.046)" fill="#ffad5f"/>
        <path id="Path_177" data-name="Path 177" d="M271.255,80.777l8.7-3.606,7.011-2.473,2.416-6.954,3.606-8.7Z" transform="translate(-271.255 -59.046)" fill="#ff5100"/>
      </g>
      <g id="Group_55" data-name="Group 55" transform="translate(50.072 33.592)">
        <path id="Path_178" data-name="Path 178" d="M343.9,136.543l-3.612-1.516L338.8,131.4l1.516-3.612,3.626-1.482,3.612,1.516,1.482,3.626-1.516,3.612Z" transform="translate(-330.925 -118.427)" fill="#00bed6"/>
        <path id="Path_179" data-name="Path 179" d="M336.865,142.4l-1.479-4.193-4.159-1.445-5.2-2.157,13,13Z" transform="translate(-326.025 -121.61)" fill="#004e59"/>
        <path id="Path_180" data-name="Path 180" d="M362.342,132.338l-5.2-2.157-4.159-1.445,1.482,3.6,0,0-1.519,3.638,4.193-1.479-.01-.011.01.008Z" transform="translate(-336.347 -119.359)" fill="#00abc8"/>
        <path id="Path_181" data-name="Path 181" d="M348.446,140.486l-3.6,1.481,0,0-3.637-1.516,1.479,4.193,2.157,5.2,2.156-5.2h0Z" transform="translate(-331.846 -123.85)" fill="#00abc8"/>
        <path id="Path_182" data-name="Path 182" d="M347.1,113.527l2.157,5.2,1.479,4.193,4.159,1.445,5.2,2.157Z" transform="translate(-334.107 -113.527)" fill="#00bed6"/>
        <path id="Path_183" data-name="Path 183" d="M354.9,136.764l0,0-4.189,1.478-1.444,4.155h0l-2.157,5.2,13-13Z" transform="translate(-334.107 -121.61)" fill="#00bed6"/>
        <path id="Path_184" data-name="Path 184" d="M335.42,128.711l-4.193,1.479-5.2,2.157,5.2,2.157,4.159,1.445-1.482-3.6Z" transform="translate(-326.025 -119.349)" fill="#00abc8"/>
        <path id="Path_185" data-name="Path 185" d="M347.022,118.73l-2.157-5.2-2.157,5.2-1.445,4.159,3.6-1.482,3.637,1.516Z" transform="translate(-331.868 -113.527)" fill="#5fd0df"/>
        <path id="Path_186" data-name="Path 186" d="M326.025,126.525l5.2-2.157,4.193-1.479,1.445-4.159,2.157-5.2Z" transform="translate(-326.025 -113.527)" fill="#00758d"/>
      </g>
      <g id="Group_56" data-name="Group 56" transform="translate(0 33.592)">
        <path id="Path_187" data-name="Path 187" d="M262.688,136.543l-3.612-1.516-1.482-3.626,1.516-3.612,3.626-1.482,3.612,1.516,1.482,3.626-1.516,3.612Z" transform="translate(-249.715 -118.427)" fill="#00bed6"/>
        <path id="Path_188" data-name="Path 188" d="M255.655,142.4l-1.479-4.193-4.159-1.445-5.2-2.157,13,13Z" transform="translate(-244.815 -121.61)" fill="#004e59"/>
        <path id="Path_189" data-name="Path 189" d="M281.133,132.338l-5.2-2.157-4.159-1.445,1.482,3.6,0,0-1.519,3.638,4.193-1.479-.01-.011.01.008Z" transform="translate(-255.137 -119.359)" fill="#00abc8"/>
        <path id="Path_190" data-name="Path 190" d="M267.236,140.486l-3.6,1.481,0,0L260,140.45l1.479,4.193,2.157,5.2,2.156-5.2h0Z" transform="translate(-250.636 -123.85)" fill="#00abc8"/>
        <path id="Path_191" data-name="Path 191" d="M265.895,113.527l2.157,5.2,1.479,4.193,4.159,1.445,5.2,2.157Z" transform="translate(-252.897 -113.527)" fill="#00bed6"/>
        <path id="Path_192" data-name="Path 192" d="M273.69,136.764l0,0-4.189,1.478-1.444,4.155h0l-2.157,5.2,13-13Z" transform="translate(-252.897 -121.61)" fill="#00bed6"/>
        <path id="Path_193" data-name="Path 193" d="M254.21,128.711l-4.193,1.479-5.2,2.157,5.2,2.157,4.159,1.445-1.482-3.6Z" transform="translate(-244.815 -119.349)" fill="#00abc8"/>
        <path id="Path_194" data-name="Path 194" d="M265.812,118.73l-2.157-5.2-2.157,5.2-1.445,4.159,3.6-1.482,3.637,1.516Z" transform="translate(-250.658 -113.527)" fill="#5fd0df"/>
        <path id="Path_195" data-name="Path 195" d="M244.815,126.525l5.2-2.157,4.193-1.479,1.445-4.159,2.157-5.2Z" transform="translate(-244.815 -113.527)" fill="#00758d"/>
      </g>
    </g>
  </g>
</svg>
