<svg xmlns="http://www.w3.org/2000/svg" width="263.638" height="177.138" viewBox="0 0 263.638 177.138">
  <g id="Group_252" data-name="Group 252" transform="translate(-1323 -2872.133)">
    <g id="Group_251" data-name="Group 251" transform="translate(1323 2872.133)">
      <g id="Group_247" data-name="Group 247" transform="translate(0.41 113.875)">
        <path id="Path_455" data-name="Path 455" d="M149.388,231.626q-.128.307-5.409,11.665t-10.088,21.9h-3.4q-5.294-11.82-10.126-22.333T115.3,231.831l3.986-1.982q.178.512,4.617,10.651t8.556,19.09h.052q4.188-9.18,8.695-19.333t4.661-10.459Z" transform="translate(-115.3 -229.798)" fill="#5b5b5f"/>
        <path id="Path_456" data-name="Path 456" d="M198.234,263.381l-3.98,2.058q-.105-.281-1.638-3.81t-4.049-9.078H173.426q-2.7,5.959-4.161,9.232t-1.618,3.657l-3.425-1.854q.665-1.33,5.485-11.721t10.012-21.843h3.324q5.114,11.453,10.05,22.188T198.234,263.381Zm-11.111-14.1q-1.356-3.123-2.86-6.526t-3.162-7.115l-.1.023q-1.287,2.811-3.1,6.911t-3,6.707l-.012.025h12.252Z" transform="translate(-130.598 -229.868)" fill="#5b5b5f"/>
        <path id="Path_457" data-name="Path 457" d="M245.064,264.919q-.307,0-3.235-.025t-7.48-.025q-2.992,0-5.689.025t-4.565.025q.051-4.4.089-8.912t.038-8.861q0-7.262-.052-11.073t-.076-5.344h4.219q-.052,3.3-.076,7.614t-.026,7.078q0,6.721.026,11.217t.025,4.753q1.047,0,2.531.013t2.685.012q4.577,0,7.966-.038t3.619-.039Z" transform="translate(-149.321 -230.089)" fill="#5b5b5f"/>
        <path id="Path_458" data-name="Path 458" d="M282.423,234.369q-.41,0-3.428-.025t-9.13-.025q-.05,5.246-.076,7.959t-.025,7.4q0,4.505.038,9.15t.064,6.181h-4.219q.051-1.535.089-6.27t.038-9.265v-7.077q0-2.624-.076-8.075-5.447-.026-8.835.012t-3.721.038V230.84q2.633,0,6.406.025t8.043.025q6.189,0,10.344-.025t4.489-.025Z" transform="translate(-158.405 -230.124)" fill="#5b5b5f"/>
        <path id="Path_459" data-name="Path 459" d="M327.184,264.954q-.23,0-3.4-.025t-7.85-.025q-3.247,0-5.946.025t-4.564.025q.049-1.482.089-6.419t.038-10.2q0-2.89-.025-7.646t-.1-9.845q1.815,0,4.538.025t5.614.025q4.884,0,7.953-.025t3.324-.025v3.554q-.255,0-3.209-.038t-7.352-.038q-1.919,0-3.759.012t-2.915.013q0,2.891-.052,5.767t-.051,5.434q1.151,0,2.723.013t2.8.012q4.5,0,8.043-.038t3.771-.038v3.529q-.2,0-4.219-.038t-7.339-.038q-1.228,0-2.929.012t-2.851.013q0,4.833.025,7.672t.051,4.756q1.508.026,3.657.038t4.629.012q3.809,0,6.406-.025t2.9-.025Z" transform="translate(-174.753 -230.124)" fill="#5b5b5f"/>
        <path id="Path_460" data-name="Path 460" d="M379.125,262.877l-3.2,2.634q-.562-.589-3.986-4.441t-10.555-12.016l.025-.23a13.01,13.01,0,0,0,2.584-1.113,13.328,13.328,0,0,0,2.712-1.856,8.336,8.336,0,0,0,1.649-2.15,7.123,7.123,0,0,0,.7-3.43,5.6,5.6,0,0,0-1.036-3.391,5.962,5.962,0,0,0-2.851-2.086,10.914,10.914,0,0,0-3.12-.678q-1.637-.114-3.017-.115-.921,0-1.407.013c-.324.009-.562.012-.715.012q-.053,4.863-.064,8.574t-.013,5.247q0,3.506.039,9.521t.064,7.55h-4.219q.025-1.534.076-5.946t.051-10.983v-4.731q0-3.453-.127-12.582.255,0,2.553-.052t4.24-.051a35.593,35.593,0,0,1,4.316.256,15.126,15.126,0,0,1,4.087,1.1,9.219,9.219,0,0,1,4.01,3.155,8.225,8.225,0,0,1,1.482,4.894,8.562,8.562,0,0,1-2.234,6.044,19.444,19.444,0,0,1-4.225,3.59v.129q3.505,4.095,7.688,8.447T379.125,262.877Z" transform="translate(-189.543 -230.042)" fill="#5b5b5f"/>
        <path id="Path_461" data-name="Path 461" d="M428.055,262.877l-3.2,2.634q-.563-.589-3.987-4.441t-10.554-12.016l.025-.23a12.989,12.989,0,0,0,2.584-1.113,13.314,13.314,0,0,0,2.713-1.856,8.351,8.351,0,0,0,1.649-2.15,7.123,7.123,0,0,0,.7-3.43,5.6,5.6,0,0,0-1.036-3.391A5.962,5.962,0,0,0,414.1,234.8a10.914,10.914,0,0,0-3.12-.678q-1.637-.114-3.017-.115-.921,0-1.407.013c-.324.009-.563.012-.716.012q-.052,4.863-.064,8.574t-.012,5.247q0,3.506.039,9.521t.064,7.55h-4.22q.026-1.534.077-5.946t.051-10.983v-4.731q0-3.453-.128-12.582.256,0,2.554-.052t4.24-.051a35.592,35.592,0,0,1,4.316.256,15.127,15.127,0,0,1,4.087,1.1,9.223,9.223,0,0,1,4.01,3.155,8.225,8.225,0,0,1,1.482,4.894,8.562,8.562,0,0,1-2.234,6.044,19.476,19.476,0,0,1-4.225,3.59v.129q3.505,4.095,7.688,8.447T428.055,262.877Z" transform="translate(-204.844 -230.042)" fill="#5b5b5f"/>
        <path id="Path_462" data-name="Path 462" d="M482.225,263.381l-3.98,2.058q-.1-.281-1.638-3.81t-4.049-9.078H457.417q-2.7,5.959-4.16,9.232t-1.618,3.657l-3.425-1.854q.664-1.33,5.485-11.721t10.012-21.843h3.324q5.116,11.453,10.051,22.188T482.225,263.381Zm-11.111-14.1q-1.356-3.123-2.86-6.526t-3.162-7.115l-.1.023q-1.287,2.811-3.1,6.911t-3,6.707l-.012.025h12.252Z" transform="translate(-219.406 -229.868)" fill="#5b5b5f"/>
      </g>
      <g id="Group_248" data-name="Group 248" transform="translate(0 161.567)">
        <path id="Path_463" data-name="Path 463" d="M124.855,308.379a4.105,4.105,0,0,0-.451-.628,3.912,3.912,0,0,0,.427-.231,3.764,3.764,0,0,0,1.053-.964,3.975,3.975,0,0,0,.612-1.267,5.364,5.364,0,0,0,.194-1.462,4.49,4.49,0,0,0-.449-2.11,3.532,3.532,0,0,0-1.227-1.346,4.8,4.8,0,0,0-1.663-.645,9.525,9.525,0,0,0-1.8-.17H114.7v15.063h2.208v-6.256h4.254a1.714,1.714,0,0,1,.737.144,1.922,1.922,0,0,1,.577.422,3.118,3.118,0,0,1,.482.685,8.57,8.57,0,0,1,.419.932l1.526,4.073H127.3l-2.075-5.458A5.487,5.487,0,0,0,124.855,308.379Zm-7.943-6.614h4.507a4.328,4.328,0,0,1,2.369.511,1.728,1.728,0,0,1,.644,1.552,3.074,3.074,0,0,1-.183,1.142,1.479,1.479,0,0,1-.505.651,2.5,2.5,0,0,1-.977.4,8.277,8.277,0,0,1-1.64.14h-4.216Z" transform="translate(-114.704 -299.305)" fill="#009877"/>
        <path id="Path_464" data-name="Path 464" d="M157.108,307.909h8.119V305.7h-8.119v-3.936h8.664v-2.207H154.9v15.063h11.213v-2.207h-9.006Z" transform="translate(-127.274 -299.305)" fill="#009877"/>
        <path id="Path_465" data-name="Path 465" d="M203.343,307.392a4.372,4.372,0,0,0-1.12-.792,8.235,8.235,0,0,0-1.263-.505c-.423-.131-.864-.247-1.311-.344q-.647-.139-1.258-.266a13.088,13.088,0,0,1-1.656-.441,3.559,3.559,0,0,1-.959-.483,1.287,1.287,0,0,1-.416-.491,1.784,1.784,0,0,1-.127-.711,1.581,1.581,0,0,1,.707-1.389,4.293,4.293,0,0,1,2.471-.572,5.211,5.211,0,0,1,1.414.173,3.416,3.416,0,0,1,1.012.459,2.459,2.459,0,0,1,.66.669,2.8,2.8,0,0,1,.376.856l.113.452h2.124l-.091-.677a4.361,4.361,0,0,0-1.85-3.067,5.585,5.585,0,0,0-1.735-.8,7.862,7.862,0,0,0-2.111-.269,7.347,7.347,0,0,0-2.118.291,5.275,5.275,0,0,0-1.7.845,3.981,3.981,0,0,0-1.137,1.356,3.828,3.828,0,0,0-.407,1.752,3.786,3.786,0,0,0,.306,1.557,3.364,3.364,0,0,0,.951,1.216,5.776,5.776,0,0,0,1.5.858,13.275,13.275,0,0,0,2.056.613c.895.189,1.656.376,2.264.557a5.757,5.757,0,0,1,1.357.569,1.56,1.56,0,0,1,.592.592,2,2,0,0,1,.177.9,1.882,1.882,0,0,1-.21.905,1.971,1.971,0,0,1-.622.692,3.3,3.3,0,0,1-1.074.479,5.921,5.921,0,0,1-1.513.177,8.231,8.231,0,0,1-1.558-.141,3.72,3.72,0,0,1-1.208-.446,2.636,2.636,0,0,1-.844-.809,3.3,3.3,0,0,1-.475-1.32l-.082-.5H192.44l.041.636a5.259,5.259,0,0,0,.5,1.977,4.339,4.339,0,0,0,1.267,1.541,5.793,5.793,0,0,0,1.969.951,9.715,9.715,0,0,0,2.62.32,7.059,7.059,0,0,0,2.179-.327,5.474,5.474,0,0,0,1.775-.94,4.466,4.466,0,0,0,1.2-1.474,4.169,4.169,0,0,0,.438-1.9,3.917,3.917,0,0,0-.3-1.576A3.688,3.688,0,0,0,203.343,307.392Z" transform="translate(-139.013 -299.19)" fill="#009877"/>
        <rect id="Rectangle_137" data-name="Rectangle 137" width="2.207" height="15.064" transform="translate(81.093 0.253)" fill="#009877"/>
        <path id="Path_466" data-name="Path 466" d="M264.281,299.577h-4.79v15.051h4.79c4.973,0,7.6-2.642,7.6-7.639a7.423,7.423,0,0,0-1.929-5.553A7.885,7.885,0,0,0,264.281,299.577Zm-2.583,2.195h2.557a8.5,8.5,0,0,1,2.7.361,3.72,3.72,0,0,1,1.582.983,3.6,3.6,0,0,1,.819,1.575,9.488,9.488,0,0,1,.254,2.3,9.991,9.991,0,0,1-.261,2.4,3.881,3.881,0,0,1-.832,1.645,3.706,3.706,0,0,1-1.581,1.016,8.227,8.227,0,0,1-2.682.37H261.7Z" transform="translate(-159.981 -299.311)" fill="#009877"/>
        <path id="Path_467" data-name="Path 467" d="M301.9,307.909h8.119V305.7H301.9v-3.936h8.664v-2.207H299.689v15.063H310.9v-2.207H301.9Z" transform="translate(-172.551 -299.305)" fill="#009877"/>
        <path id="Path_468" data-name="Path 468" d="M347.848,314.622,340.3,303.327v11.295H338.1V299.558h2.311l7.481,11.261V299.558h2.207v15.063Z" transform="translate(-184.561 -299.305)" fill="#009877"/>
        <path id="Path_469" data-name="Path 469" d="M381.005,302.752a3.856,3.856,0,0,1,1.45-1,5.259,5.259,0,0,1,1.963-.35,4.818,4.818,0,0,1,1.414.2,4.071,4.071,0,0,1,1.145.546,3.256,3.256,0,0,1,.8.793,2.636,2.636,0,0,1,.425.945l.105.466h2.269l-.157-.724a5.181,5.181,0,0,0-.773-1.81,5.668,5.668,0,0,0-1.359-1.4,6.332,6.332,0,0,0-1.8-.9,6.8,6.8,0,0,0-2.089-.32,7.263,7.263,0,0,0-2.863.548,6.21,6.21,0,0,0-2.212,1.584,7.02,7.02,0,0,0-1.394,2.455,9.909,9.909,0,0,0-.474,3.155,10.122,10.122,0,0,0,.474,3.184,7.119,7.119,0,0,0,1.385,2.478,6.231,6.231,0,0,0,2.2,1.6,7.134,7.134,0,0,0,2.88.564,7.559,7.559,0,0,0,2.173-.3,5.794,5.794,0,0,0,1.821-.905,5.187,5.187,0,0,0,1.331-1.48,5.419,5.419,0,0,0,.7-1.983l.107-.687h-2.247l-.089.491a2.863,2.863,0,0,1-1.2,1.964,4.546,4.546,0,0,1-2.625.7,4.972,4.972,0,0,1-1.929-.359,3.917,3.917,0,0,1-1.441-1.033,4.849,4.849,0,0,1-.944-1.734,8.187,8.187,0,0,1-.345-2.5,8.083,8.083,0,0,1,.344-2.482A4.664,4.664,0,0,1,381.005,302.752Z" transform="translate(-196.872 -299.19)" fill="#009877"/>
        <rect id="Rectangle_138" data-name="Rectangle 138" width="2.207" height="15.064" transform="translate(209.281 0.253)" fill="#009877"/>
        <path id="Path_470" data-name="Path 470" d="M449.294,299.541l-.147.384q-.682,1.786-1.348,3.507l-2.647,6.853q-.666,1.724-1.35,3.523l-.307.809h2.358l.967-2.625q.352-.958.661-1.833h5.992l1.7,4.458h2.515l-6.149-15.075Zm-1.091,8.625,2.188-5.531,2.307,5.531Z" transform="translate(-217.521 -299.3)" fill="#009877"/>
        <path id="Path_471" data-name="Path 471" d="M486.879,312.415V299.558h-2.207v15.063h9.364v-2.207Z" transform="translate(-230.397 -299.305)" fill="#009877"/>
      </g>
      <g id="Group_250" data-name="Group 250" transform="translate(93.148 0)">
        <g id="Group_249" data-name="Group 249" transform="translate(21.896 51.566)">
          <path id="Path_472" data-name="Path 472" d="M304.021,187.48h-5.86l1.066-47.423h3.729Z" transform="translate(-287.117 -139.426)" fill="#c97d31"/>
          <path id="Path_473" data-name="Path 473" d="M301.636,164.188l15.385-22.975-3.1-2.074-12.287,18.348Z" transform="translate(-288.204 -139.139)" fill="#c97d31"/>
          <path id="Path_474" data-name="Path 474" d="M297.478,171.3l-15.385-22.975,3.1-2.075L297.478,164.6Z" transform="translate(-282.092 -141.362)" fill="#c97d31"/>
        </g>
        <path id="Path_475" data-name="Path 475" d="M272.1,157.808l0-.034-.061,0a5.818,5.818,0,0,0-.981-.483,8.51,8.51,0,0,0-4.413-.26h-.064v.011a17.253,17.253,0,0,0-4.4,1.46l-.05-.02-.044.113.051.02a15.8,15.8,0,0,0,3.668,5.453l.032.057.019-.012a7.07,7.07,0,0,0,2.114,1.309c3.623,1.378,7.03-1.364,7.479-1.745l.03.012.043-.112-.03-.012C275.413,163.039,274.823,159.525,272.1,157.808Z" transform="translate(-253.938 -93.115)" fill="#6bcbb8"/>
        <path id="Path_476" data-name="Path 476" d="M347.023,145.894l-.048-.111-.05.021a15.811,15.811,0,0,0-6.441-1.3l-.062-.019-.006.022a7.066,7.066,0,0,0-2.424.555c-3.546,1.566-4.043,5.909-4.095,6.5l-.03.013.048.11.03-.013c.42.32,3.309,2.406,6.455,1.713l.023.026.045-.041a5.813,5.813,0,0,0,1.037-.346,8.5,8.5,0,0,0,3.322-2.916l.045-.045-.008-.008a17.313,17.313,0,0,0,2.109-4.134Z" transform="translate(-276.387 -89.245)" fill="#6bcbb8"/>
        <path id="Path_477" data-name="Path 477" d="M288.234,141.3l.036-.045-.082-.063a9.843,9.843,0,0,0-.879-1.612,14.277,14.277,0,0,0-5.8-4.62l-.087-.061-.012.015a29.08,29.08,0,0,0-7.452-2.256l-.051-.074-.168.113.051.076a26.525,26.525,0,0,0-.239,11.025l-.011.108.038,0a11.873,11.873,0,0,0,1.636,3.839c3.638,5.39,10.959,4.923,11.944,4.834l.03.045.168-.113-.03-.045C287.726,151.681,290.313,146.29,288.234,141.3Z" transform="translate(-257.37 -85.524)" fill="#6bcbb8"/>
        <path id="Path_478" data-name="Path 478" d="M263.857,147.762l.031.033.121-.115-.031-.033c.22-.7,1.583-5.428-.79-9.2l.023-.041-.075-.039a8.048,8.048,0,0,0-.935-1.188,11.761,11.761,0,0,0-5.346-2.957l-.079-.037-.008.013a23.93,23.93,0,0,0-6.362-.81l-.052-.054-.121.114.052.055a21.845,21.845,0,0,0,1.317,8.986l.005.089.031,0a9.811,9.811,0,0,0,1.854,2.893C257.187,149.353,263.068,147.969,263.857,147.762Z" transform="translate(-250.234 -85.759)" fill="#009877"/>
        <path id="Path_479" data-name="Path 479" d="M328.01,158.8a17.962,17.962,0,0,0-6.889-2.893l-.066-.034-.011.023a8.048,8.048,0,0,0-2.826.076c-4.3.953-5.828,5.683-6.018,6.326l-.036.008.03.134.036-.008c.4.451,3.15,3.422,6.812,3.353l.019.033.06-.036a6.681,6.681,0,0,0,1.234-.153,9.678,9.678,0,0,0,4.356-2.509l.06-.04-.006-.011a19.7,19.7,0,0,0,3.276-4.136l.059-.013-.029-.134Z" transform="translate(-269.601 -92.787)" fill="#238dc1"/>
        <path id="Path_480" data-name="Path 480" d="M335.541,115.219l.072-.087-.194-.162-.073.088c-1.134.06-7.913.54-13.269,3.606l-.133.025.01.046a14.772,14.772,0,0,0-4.013,3.311c-5.163,6.253-2.018,14.843-1.564,15.99l-.043.052.193.161.044-.052c1.085.2,8.445,1.4,13.678-2.852l.066.027.046-.12a12.167,12.167,0,0,0,1.617-1.621,17.8,17.8,0,0,0,3.477-8.57l.043-.126-.022-.009A36.177,36.177,0,0,0,335.541,115.219Z" transform="translate(-270.492 -80.016)" fill="#009877"/>
        <path id="Path_481" data-name="Path 481" d="M317.721,98.637l.014.027a9.548,9.548,0,0,0-1.935,2.751c-2.148,4.781,1.281,9.6,1.76,10.235l-.018.04.148.067.019-.041c.711-.058,5.5-.574,8.038-4.117l.046.006.008-.082a7.937,7.937,0,0,0,.73-1.287,11.5,11.5,0,0,0,.7-5.937l0-.085-.014,0a23.415,23.415,0,0,0-1.62-6.063l.03-.066-.148-.067-.031.067A21.388,21.388,0,0,0,317.8,98.6Z" transform="translate(-270.518 -73.462)" fill="#009877"/>
        <path id="Path_482" data-name="Path 482" d="M280.41,109.276l.035-.041-.073-.062a9.155,9.155,0,0,0-.75-1.544,13.344,13.344,0,0,0-5.212-4.577l-.078-.06-.012.013a27.134,27.134,0,0,0-6.861-2.441l-.043-.072-.162.1.044.073a24.806,24.806,0,0,0-.719,10.287l-.015.1.035,0a11.087,11.087,0,0,0,1.355,3.659c3.156,5.2,10.015,5.09,10.94,5.052l.026.043.162-.1-.027-.044C279.469,118.948,282.127,114.03,280.41,109.276Z" transform="translate(-255.258 -75.488)" fill="#009877"/>
        <path id="Path_483" data-name="Path 483" d="M333.725,92.929l.1.034.01-.027c.465-.082,3.584-.721,5.031-3.21h.031v-.055a5.211,5.211,0,0,0,.4-.891,7.6,7.6,0,0,0,.091-3.95l0-.056h-.01a15.478,15.478,0,0,0-1.443-3.887l.015-.045-.1-.035-.016.045a14.127,14.127,0,0,0-4.753,3.45l-.049.03.011.017a6.313,6.313,0,0,0-1.1,1.93c-1.115,3.28,1.441,6.234,1.8,6.623Z" transform="translate(-275.696 -69.332)" fill="#6bcbb8"/>
        <path id="Path_484" data-name="Path 484" d="M261.778,118.717l.021-.036-.067-.036a7.113,7.113,0,0,0-.826-1.061,10.447,10.447,0,0,0-4.74-2.658l-.07-.034-.007.012a21.281,21.281,0,0,0-5.656-.753l-.045-.048-.109.1.045.049a19.432,19.432,0,0,0,1.126,8l0,.08.027,0a8.686,8.686,0,0,0,1.635,2.584c3.266,3.47,8.506,2.269,9.208,2.089l.027.03.109-.1-.027-.03C262.633,126.285,263.869,122.081,261.778,118.717Z" transform="translate(-250.248 -79.744)" fill="#6bcbb8"/>
        <path id="Path_485" data-name="Path 485" d="M299.406,79.748v.035l.131,0V79.75c.508-.275,3.886-2.219,4.608-5.668l.036-.011-.021-.063a6.4,6.4,0,0,0,.122-1.19,9.305,9.305,0,0,0-1.416-4.623l-.025-.065-.012,0a18.931,18.931,0,0,0-3.175-3.96v-.058l-.132,0v.06a17.292,17.292,0,0,0-4.193,5.839l-.046.054.019.015a7.712,7.712,0,0,0-.535,2.667C294.735,76.985,298.843,79.432,299.406,79.748Z" transform="translate(-264.16 -64.111)" fill="#009877"/>
        <path id="Path_486" data-name="Path 486" d="M307.636,119.618l-.041-.122a12.267,12.267,0,0,0,.206-2.272,17.752,17.752,0,0,0-2.8-8.786l-.048-.123-.022.007a36.108,36.108,0,0,0-6.14-7.485v-.112h-.252v.113c-.83.77-5.721,5.459-7.872,11.223l-.086.1.036.029a14.783,14.783,0,0,0-.964,5.1c.03,8.085,7.918,12.665,9,13.254v.068h.252v-.068c.962-.535,7.362-4.315,8.666-10.907Z" transform="translate(-262.561 -75.561)" fill="#238dc1"/>
        <path id="Path_487" data-name="Path 487" d="M277.949,89.652c1.4,6.25,8.283,8.451,9.218,8.723l.012.053.195-.043-.011-.052c.654-.578,4.962-4.592,4.848-9.915l.048-.028-.052-.087a9.726,9.726,0,0,0-.227-1.793,14.067,14.067,0,0,0-3.663-6.322l-.058-.087-.016.009a28.6,28.6,0,0,0-6.024-4.745l-.02-.087L282,75.32l.019.088a26.12,26.12,0,0,0-4.179,10.025l-.049.095.034.016A11.714,11.714,0,0,0,277.949,89.652Z" transform="translate(-258.824 -67.603)" fill="#6bcbb8"/>
        <path id="Path_488" data-name="Path 488" d="M307.916,80.99c-1.638,5.283,2.57,9.89,3.154,10.5l-.014.045.164.052.014-.044c.737-.152,5.69-1.307,7.894-5.342h.048l0-.087a8.348,8.348,0,0,0,.6-1.441,12.145,12.145,0,0,0-.025-6.309l-.005-.091h-.016a24.7,24.7,0,0,0-2.471-6.144l.022-.073L317.114,72l-.023.074a22.555,22.555,0,0,0-7.44,5.711l-.078.05.018.027A10.115,10.115,0,0,0,307.916,80.99Z" transform="translate(-268.154 -66.578)" fill="#238dc1"/>
        <path id="Path_489" data-name="Path 489" d="M357.437,120.742l.04-.045-.1-.091-.041.046a17.973,17.973,0,0,0-7.269,1.725l-.074.011.006.025a8.052,8.052,0,0,0-2.238,1.728c-2.913,3.305-1.357,8.026-1.131,8.657l-.024.027.1.091.025-.027c.586.13,4.562.907,7.479-1.309l.035.016.027-.064a6.648,6.648,0,0,0,.907-.852,9.675,9.675,0,0,0,2.038-4.594l.025-.067-.012-.005A19.7,19.7,0,0,0,357.437,120.742Z" transform="translate(-280.184 -81.777)" fill="#238dc1"/>
        <path id="Path_490" data-name="Path 490" d="M339.824,95.86l0,.025a8.039,8.039,0,0,0-2.238,1.728c-2.914,3.306-1.357,8.027-1.131,8.658l-.025.027.1.091.025-.027c.586.131,4.562.907,7.479-1.308l.036.016L344.1,105a6.643,6.643,0,0,0,.907-.852,9.677,9.677,0,0,0,2.039-4.594l.025-.067-.012-.005a19.666,19.666,0,0,0,.208-5.272l.041-.046-.1-.091-.041.046a17.973,17.973,0,0,0-7.27,1.724Z" transform="translate(-277.005 -73.482)" fill="#6bcbb8"/>
        <path id="Path_491" data-name="Path 491" d="M264.471,88.379l-.014.055.019,0a6.258,6.258,0,0,0,.548,2.122c1.465,3.084,5.3,3.417,5.822,3.448l.012.025.1-.045-.012-.025c.271-.378,2.038-2.973,1.351-5.727l.021-.02-.037-.039a5.21,5.21,0,0,0-.33-.906,7.5,7.5,0,0,0-2.65-2.854l-.04-.038-.008.006a15.281,15.281,0,0,0-3.692-1.757l-.021-.043-.1.045.021.043A13.926,13.926,0,0,0,264.471,88.379Z" transform="translate(-254.677 -69.888)" fill="#238dc1"/>
      </g>
    </g>
  </g>
</svg>
