<?xml version="1.0" encoding="UTF-8" standalone="no"?>
<svg
   id="Capa_1"
   viewBox="0 0 99.773549 100"
   version="1.1"
   sodipodi:docname="rinconada.svg"
   width="99.773544"
   height="100"
   inkscape:version="1.2.1 (9c6d41e410, 2022-07-14)"
   xmlns:inkscape="http://www.inkscape.org/namespaces/inkscape"
   xmlns:sodipodi="http://sodipodi.sourceforge.net/DTD/sodipodi-0.dtd"
   xmlns="http://www.w3.org/2000/svg"
   xmlns:svg="http://www.w3.org/2000/svg">
  <sodipodi:namedview
     id="namedview59"
     pagecolor="#ffffff"
     bordercolor="#000000"
     borderopacity="0.25"
     inkscape:showpageshadow="2"
     inkscape:pageopacity="0.0"
     inkscape:pagecheckerboard="0"
     inkscape:deskcolor="#d1d1d1"
     showgrid="false"
     inkscape:zoom="2.3866667"
     inkscape:cx="74.371508"
     inkscape:cy="94.902234"
     inkscape:window-width="1920"
     inkscape:window-height="1001"
     inkscape:window-x="2391"
     inkscape:window-y="-9"
     inkscape:window-maximized="1"
     inkscape:current-layer="Capa_1" />
  <defs
     id="defs4">
    <style
       id="style2">.cls-1{fill:#728255;}.cls-2{fill:#97a87c;}.cls-3{fill:#616d38;}.cls-4{fill:#b4c89a;}.cls-5{fill:#29371c;}</style>
  </defs>
  <g
     id="g5142"
     transform="matrix(0.34634342,0,0,0.34634342,-137.99121,-6.9268684e-8)"
     style="stroke-width:2.88731">
    <path
       class="cls-4"
       d="M 496.80769,92.076922 V 190.30769 L 595.1923,288.6923 V 192.88461 C 595.1923,138 551.34615,93.423076 496.80769,92.038461 Z"
       id="path46"
       style="stroke-width:2.88731" />
    <path
       class="cls-2"
       d="m 494.23076,91.961538 h -95.80769 l 98.38462,98.384612 V 92.115384 c -0.84616,0 -1.69231,-0.115385 -2.57693,-0.115385 z"
       id="path48"
       style="stroke-width:2.88731" />
    <path
       class="cls-1"
       d="m 398.42307,91.961538 v 95.807692 c 0,16.61538 4.07693,32.26923 11.23077,46.11538 h 130.69231 z"
       id="path50"
       style="stroke-width:2.88731" />
    <polygon
       class="cls-3"
       points="163.72,84.07 163.71,84.06 163.71,84.07 "
       id="polygon52"
       style="stroke-width:0.7507"
       transform="matrix(3.8461538,0,0,3.8461538,-34.461538,-34.615384)" />
    <path
       class="cls-2"
       d="M 540.34615,233.84615 H 409.65384 c 16.76923,32.53846 50.61539,54.84615 89.76923,54.84615 h 95.80769 c 0,0 -54.84615,-54.84615 -54.84615,-54.84615 z"
       id="path54"
       style="stroke-width:2.88731" />
    <path
       class="cls-5"
       d="m 590.6923,2e-7 c -16.61538,0 -32.26923,4.076923 -46.11538,11.2307688 -25.03846,12.884616 -44,35.923077 -51.38462,63.692307 h 1.30769 c 64.88462,0 117.69231,52.807694 117.69231,117.692304 v 0.53846 c 42,-11.5 73.03846,-49.34615 74.19231,-94.730764 0,-0.846154 0.11538,-1.692308 0.11538,-2.576923 V 2e-7 Z"
       id="path56"
       style="stroke-width:2.88731" />
  </g>
</svg>
