<?xml version="1.0" encoding="UTF-8"?><svg id="Capa_1" xmlns="http://www.w3.org/2000/svg" viewBox="0 0 1844.9 310.28"><defs><style>.cls-1{fill:#555152;}.cls-2{fill:#00ae42;}.cls-3{fill:#00a0df;}</style></defs><path class="cls-3" d="m1594.78,121.16c-3.52-3.77-5.27-9.08-5.27-15.94v-47.19c0-6.86,1.76-12.18,5.27-15.94,3.52-3.76,8.62-5.65,15.32-5.65s11.8,1.88,15.32,5.65c3.52,3.77,5.28,9.08,5.28,15.94v9.29h-13.22v-10.17c0-5.44-2.33-8.16-6.99-8.16s-6.99,2.72-6.99,8.16v49.08c0,5.36,2.33,8.03,6.99,8.03s6.99-2.68,6.99-8.03v-13.43h13.22v12.43c0,6.86-1.76,12.18-5.28,15.94-3.52,3.76-8.62,5.65-15.32,5.65s-11.8-1.88-15.32-5.65Z"/><path class="cls-3" d="m1649.88,37.69h18.94l14.49,87.86h-13.98l-2.54-17.45v.25h-15.89l-2.54,17.2h-12.97l14.49-87.86Zm15.25,58.74l-6.23-43.43h-.25l-6.1,43.43h12.59Z"/><path class="cls-3" d="m1692.47,121.1c-3.48-3.81-5.21-9.27-5.21-16.38v-5.02h13.22v6.03c0,5.69,2.42,8.54,7.24,8.54,2.37,0,4.17-.69,5.4-2.07,1.23-1.38,1.84-3.62,1.84-6.72,0-3.68-.85-6.92-2.54-9.73-1.7-2.8-4.83-6.17-9.41-10.1-5.76-5.02-9.79-9.56-12.08-13.62-2.29-4.06-3.43-8.64-3.43-13.74,0-6.94,1.78-12.32,5.34-16.13,3.56-3.81,8.73-5.71,15.51-5.71s11.76,1.9,15.19,5.71c3.43,3.81,5.15,9.27,5.15,16.38v3.64h-13.22v-4.52c0-3.01-.59-5.21-1.78-6.59-1.19-1.38-2.92-2.07-5.21-2.07-4.66,0-6.99,2.8-6.99,8.41,0,3.18.87,6.15,2.61,8.91,1.74,2.76,4.89,6.11,9.47,10.04,5.85,5.02,9.87,9.58,12.08,13.68,2.2,4.1,3.3,8.91,3.3,14.44,0,7.2-1.8,12.72-5.4,16.57-3.6,3.85-8.83,5.77-15.7,5.77s-11.91-1.9-15.38-5.71Z"/><path class="cls-3" d="m1747.38,37.69h18.94l14.49,87.86h-13.98l-2.54-17.45v.25h-15.89l-2.54,17.2h-12.97l14.49-87.86Zm15.25,58.74l-6.23-43.43h-.25l-6.1,43.43h12.59Z"/><path class="cls-3" d="m1789.97,121.1c-3.48-3.81-5.21-9.27-5.21-16.38v-5.02h13.22v6.03c0,5.69,2.42,8.54,7.24,8.54,2.37,0,4.17-.69,5.4-2.07,1.23-1.38,1.84-3.62,1.84-6.72,0-3.68-.85-6.92-2.54-9.73-1.7-2.8-4.83-6.17-9.41-10.1-5.76-5.02-9.79-9.56-12.08-13.62-2.29-4.06-3.43-8.64-3.43-13.74,0-6.94,1.78-12.32,5.34-16.13,3.56-3.81,8.73-5.71,15.51-5.71s11.76,1.9,15.19,5.71c3.43,3.81,5.15,9.27,5.15,16.38v3.64h-13.22v-4.52c0-3.01-.59-5.21-1.78-6.59s-2.92-2.07-5.21-2.07c-4.66,0-6.99,2.8-6.99,8.41,0,3.18.87,6.15,2.61,8.91,1.74,2.76,4.89,6.11,9.47,10.04,5.85,5.02,9.87,9.58,12.08,13.68,2.2,4.1,3.3,8.91,3.3,14.44,0,7.2-1.8,12.72-5.4,16.57-3.6,3.85-8.83,5.77-15.7,5.77s-11.91-1.9-15.38-5.71Z"/><path class="cls-3" d="m1588.45,136.45h12.61c4.25,0,7.45,1.16,9.58,3.46,2.13,2.31,3.19,5.69,3.19,10.15v5.43c0,4.46-1.06,7.85-3.19,10.15-2.13,2.31-5.32,3.46-9.58,3.46h-4.05v22.43h-8.56v-55.1Zm12.61,24.79c1.4,0,2.45-.39,3.15-1.18.7-.79,1.05-2.12,1.05-4.01v-6.53c0-1.89-.35-3.23-1.05-4.01s-1.75-1.18-3.15-1.18h-4.05v16.92h4.05Z"/><path class="cls-3" d="m1618.5,136.45h23.36v7.87h-14.79v14.56h11.76v7.87h-11.76v16.92h14.79v7.87h-23.36v-55.1Z"/><path class="cls-3" d="m1646.76,136.45h10.74l8.33,32.98h.16v-32.98h7.63v55.1h-8.8l-10.28-40.22h-.16v40.22h-7.63v-55.1Z"/><path class="cls-3" d="m1681.72,188.75c-2.13-2.39-3.19-5.81-3.19-10.27v-3.15h8.1v3.78c0,3.57,1.48,5.35,4.44,5.35,1.45,0,2.56-.43,3.31-1.3.75-.87,1.13-2.27,1.13-4.21,0-2.31-.52-4.34-1.56-6.1-1.04-1.76-2.96-3.87-5.76-6.34-3.53-3.15-5.99-5.99-7.4-8.54-1.4-2.54-2.1-5.42-2.1-8.62,0-4.35,1.09-7.73,3.27-10.11,2.18-2.39,5.35-3.58,9.5-3.58s7.2,1.2,9.3,3.58c2.1,2.39,3.15,5.81,3.15,10.27v2.28h-8.1v-2.83c0-1.89-.36-3.27-1.09-4.13-.73-.87-1.79-1.3-3.19-1.3-2.86,0-4.28,1.76-4.28,5.27,0,2,.53,3.86,1.6,5.59,1.06,1.73,3,3.83,5.8,6.3,3.58,3.15,6.05,6.01,7.4,8.58,1.35,2.57,2.03,5.59,2.03,9.05,0,4.51-1.1,7.98-3.31,10.39-2.21,2.41-5.41,3.62-9.61,3.62s-7.29-1.19-9.42-3.58Z"/><path class="cls-3" d="m1715.35,136.45h11.6l8.88,55.1h-8.56l-1.56-10.94v.16h-9.73l-1.56,10.78h-7.94l8.88-55.1Zm9.34,36.84l-3.82-27.24h-.16l-3.74,27.24h7.71Z"/><path class="cls-3" d="m1739.96,136.45h13.08c4.25,0,7.45,1.16,9.57,3.46,2.13,2.31,3.19,5.69,3.19,10.15v27.86c0,4.46-1.06,7.85-3.19,10.15-2.13,2.31-5.32,3.46-9.57,3.46h-13.08v-55.1Zm12.92,47.23c1.4,0,2.48-.42,3.23-1.26.75-.84,1.13-2.2,1.13-4.09v-28.65c0-1.89-.38-3.25-1.13-4.09-.75-.84-1.83-1.26-3.23-1.26h-4.36v39.36h4.36Z"/><path class="cls-3" d="m1778.03,136.45h11.6l8.88,55.1h-8.56l-1.56-10.94v.16h-9.73l-1.56,10.78h-7.94l8.88-55.1Zm9.34,36.84l-3.82-27.24h-.16l-3.74,27.24h7.71Z"/><path class="cls-3" d="m1804.11,188.75c-2.13-2.39-3.19-5.81-3.19-10.27v-3.15h8.1v3.78c0,3.57,1.48,5.35,4.44,5.35,1.45,0,2.56-.43,3.31-1.3.75-.87,1.13-2.27,1.13-4.21,0-2.31-.52-4.34-1.56-6.1-1.04-1.76-2.96-3.87-5.76-6.34-3.53-3.15-5.99-5.99-7.4-8.54-1.4-2.54-2.1-5.42-2.1-8.62,0-4.35,1.09-7.73,3.27-10.11,2.18-2.39,5.35-3.58,9.5-3.58s7.2,1.2,9.3,3.58c2.1,2.39,3.15,5.81,3.15,10.27v2.28h-8.1v-2.83c0-1.89-.36-3.27-1.09-4.13-.73-.87-1.79-1.3-3.19-1.3-2.86,0-4.28,1.76-4.28,5.27,0,2,.53,3.86,1.6,5.59,1.06,1.73,3,3.83,5.8,6.3,3.58,3.15,6.05,6.01,7.4,8.58,1.35,2.57,2.03,5.59,2.03,9.05,0,4.51-1.1,7.98-3.31,10.39-2.21,2.41-5.41,3.62-9.61,3.62s-7.29-1.19-9.42-3.58Z"/><path class="cls-3" d="m1589.58,199.95h17.37c5.86,0,10.25,1.55,13.19,4.66,2.93,3.11,4.4,7.66,4.4,13.66v7.3c0,6-1.47,10.55-4.4,13.66-2.93,3.11-7.33,4.66-13.19,4.66h-5.58v30.17h-11.79v-74.1Zm17.37,33.35c1.93,0,3.38-.53,4.34-1.59.97-1.06,1.45-2.86,1.45-5.4v-8.79c0-2.54-.48-4.34-1.45-5.4-.96-1.06-2.41-1.59-4.34-1.59h-5.58v22.76h5.58Z"/><path class="cls-3" d="m1636.32,199.95h15.97l12.22,74.1h-11.79l-2.14-14.71v.21h-13.4l-2.14,14.5h-10.94l12.22-74.1Zm12.87,49.54l-5.25-36.63h-.22l-5.14,36.63h10.61Z"/><path class="cls-3" d="m1670.2,199.95h17.48c6.08,0,10.51,1.39,13.29,4.18,2.79,2.79,4.18,7.08,4.18,12.86v4.55c0,7.69-2.57,12.56-7.72,14.61v.21c2.86.85,4.88,2.58,6.06,5.19,1.18,2.61,1.77,6.1,1.77,10.48v13.02c0,2.12.07,3.83.21,5.13.14,1.31.5,2.59,1.07,3.86h-12.01c-.43-1.2-.72-2.33-.86-3.39-.15-1.06-.21-2.96-.21-5.72v-13.55c0-3.39-.56-5.75-1.66-7.09-1.11-1.34-3.02-2.01-5.74-2.01h-4.08v31.76h-11.79v-74.1Zm16.08,31.76c2.36,0,4.13-.6,5.31-1.8,1.18-1.2,1.77-3.21,1.77-6.03v-5.72c0-2.68-.48-4.62-1.45-5.82-.96-1.2-2.48-1.8-4.56-1.8h-5.36v21.17h4.29Z"/><path class="cls-3" d="m1722.52,199.95h15.97l12.22,74.1h-11.79l-2.14-14.71v.21h-13.4l-2.14,14.5h-10.94l12.22-74.1Zm12.87,49.54l-5.25-36.63h-.22l-5.14,36.63h10.61Z"/><path class="cls-3" d="m1782.77,210.54h-12.33v-10.59h36.45v10.59h-12.33v63.52h-11.79v-63.52Z"/><path class="cls-3" d="m1812.57,199.95h11.79v74.1h-11.79v-74.1Z"/><path class="cls-3" d="m87.57,208.35c-.62-.67-1.63-.76-2.37-.23-.74.53-.97,1.52-.54,2.32,9.99,18.61,24.77,34.36,42.73,45.55.3.19.63.27.96.27h.04c.97.06,1.84-.8,1.84-1.81,0-.63-.33-1.19-.82-1.51l-41.84-44.59Z"/><path class="cls-3" d="m371.34,121.01c-.48-.83-1.53-1.13-2.38-.7l-34.88,17.71-186.84,122.33-2.46,1.71c-.54.37-.83,1.02-.77,1.67.07.65.49,1.22,1.09,1.48,14.67,6.25,30.48,9.42,46.98,9.42,64.24,0,117.48-49.84,121.6-113.64l57.1-37.56c.8-.53,1.05-1.59.57-2.41Z"/><path class="cls-3" d="m313.74,147.21c-2.91-64.99-56.35-115.89-121.66-115.89-59.98,0-111.67,44.54-120.58,103.74l-52.23,34.2c-.8.53-1.06,1.58-.58,2.41.49.83,1.52,1.14,2.38.71l34.88-17.52,97.29-63.61c.51-.33.82-.9.82-1.51v-21.11h13.46v9.94c0,.66.36,1.27.95,1.59.58.31,1.3.28,1.85-.08l39.5-26.05,57.34,61.38-56.09-36.08c-.53-.34-1.21-.38-1.79-.1l-138.06,69.3c-.61.31-.99.93-.99,1.61v2.84c0,14.31,2.52,28.53,7.51,42.27.13.38.39.7.73.91l61.25,38.62c.29.18.63.28.96.28.28,0,.55-.06.81-.19l171.25-85.95c.64-.32,1.03-.98.99-1.69Zm-85.92-19.7v15.32h-15.16v-15.32h15.16Zm-15.16-7.4v-15.14h15.16v15.14h-15.16Zm-22.76,0v-15.14h15.16v15.14h-15.16Zm15.16,7.4v15.32h-15.16v-15.32h15.16Z"/><path class="cls-1" d="m447.73,214.74l-2.7,2.08c-1.49-1.95-3.28-3.42-5.37-4.42-2.09-1-4.39-1.5-6.89-1.5-2.74,0-5.27.66-7.6,1.97-2.33,1.31-4.14,3.07-5.42,5.28-1.28,2.21-1.92,4.7-1.92,7.48,0,4.17,1.43,7.66,4.3,10.46,2.86,2.79,6.48,4.2,10.85,4.2,4.81,0,8.82-1.88,12.06-5.64l2.7,2.05c-1.71,2.18-3.84,3.86-6.4,5.05-2.56,1.18-5.41,1.78-8.56,1.78-6,0-10.73-2-14.2-5.99-2.91-3.37-4.36-7.44-4.36-12.22,0-5.02,1.77-9.24,5.28-12.67,3.52-3.43,7.93-5.14,13.23-5.14,3.2,0,6.09.63,8.67,1.9,2.58,1.27,4.69,3.04,6.34,5.33Z"/><path class="cls-1" d="m471.23,207.51c5.19,0,9.54,1.73,13.04,5.2,3.49,3.46,5.24,7.73,5.24,12.8s-1.74,9.27-5.24,12.78c-3.49,3.49-7.75,5.24-12.77,5.24s-9.38-1.74-12.88-5.22c-3.5-3.49-5.25-7.69-5.25-12.64,0-3.29.8-6.35,2.39-9.16,1.59-2.81,3.77-5.01,6.52-6.61,2.75-1.59,5.73-2.38,8.93-2.38Zm.15,3.33c-2.54,0-4.94.66-7.21,1.98-2.27,1.33-4.05,3.11-5.32,5.34-1.27,2.25-1.91,4.74-1.91,7.49,0,4.08,1.41,7.51,4.24,10.32,2.82,2.81,6.23,4.21,10.21,4.21,2.66,0,5.13-.64,7.39-1.93,2.27-1.3,4.04-3.06,5.3-5.3,1.27-2.25,1.9-4.73,1.9-7.47s-.63-5.18-1.9-7.38c-1.27-2.19-3.06-3.96-5.35-5.29-2.31-1.32-4.75-1.98-7.34-1.98Z"/><path class="cls-1" d="m498.24,242.66v-34.28h.75l22.81,26.28v-26.28h3.38v34.28h-.77l-22.63-25.96v25.96h-3.54Z"/><path class="cls-1" d="m532.18,236.27l2.92-1.74c2.05,3.78,4.42,5.66,7.11,5.66,1.15,0,2.23-.27,3.24-.8,1-.53,1.77-1.25,2.3-2.16.53-.9.79-1.86.79-2.86,0-1.15-.39-2.28-1.17-3.38-1.07-1.52-3.03-3.36-5.87-5.5-2.86-2.16-4.64-3.72-5.34-4.69-1.21-1.61-1.81-3.36-1.81-5.24,0-1.49.35-2.86,1.07-4.09.72-1.23,1.72-2.19,3.02-2.89,1.29-.71,2.7-1.06,4.23-1.06,1.61,0,3.13.4,4.53,1.2,1.41.8,2.89,2.27,4.47,4.42l-2.8,2.12c-1.29-1.71-2.39-2.84-3.3-3.38-.91-.54-1.9-.81-2.97-.81-1.38,0-2.52.41-3.39,1.26-.88.83-1.32,1.87-1.32,3.09,0,.75.15,1.47.46,2.18.31.7.88,1.46,1.7,2.28.45.44,1.93,1.58,4.43,3.42,2.97,2.19,5.01,4.15,6.11,5.86,1.1,1.71,1.66,3.42,1.66,5.15,0,2.49-.95,4.65-2.83,6.48-1.89,1.84-4.19,2.75-6.89,2.75-2.08,0-3.97-.56-5.66-1.67-1.69-1.11-3.25-2.98-4.69-5.59Z"/><path class="cls-1" d="m557.88,211.73v-3.35h18.79v3.35h-7.64v30.93h-3.5v-30.93h-7.64Z"/><path class="cls-1" d="m583.43,208.38h6.83c3.81,0,6.39.15,7.74.47,2.04.46,3.69,1.47,4.96,3,1.28,1.53,1.91,3.42,1.91,5.66,0,1.87-.44,3.51-1.32,4.92-.88,1.42-2.13,2.49-3.77,3.21-1.63.71-3.88,1.09-6.76,1.11l12.33,15.91h-4.23l-12.34-15.91h-1.93v15.91h-3.43v-34.28Zm3.43,3.35v11.66l5.91.04c2.29,0,3.98-.21,5.07-.65,1.1-.44,1.95-1.13,2.57-2.08.61-.96.91-2.03.91-3.21s-.31-2.19-.93-3.13c-.62-.94-1.44-1.61-2.45-2.02-1.01-.4-2.69-.61-5.04-.61h-6.04Z"/><path class="cls-1" d="m613.46,208.38h3.43v20.7c0,2.46.05,3.99.14,4.59.17,1.36.56,2.49,1.19,3.4.62.91,1.58,1.68,2.87,2.29,1.29.61,2.58.92,3.89.92,1.14,0,2.23-.24,3.26-.72,1.04-.48,1.91-1.15,2.61-2,.7-.86,1.22-1.89,1.54-3.1.24-.87.35-2.66.35-5.36v-20.7h3.42v20.7c0,3.07-.3,5.54-.89,7.42-.6,1.89-1.79,3.53-3.59,4.93-1.8,1.4-3.97,2.1-6.52,2.1-2.77,0-5.14-.66-7.11-1.98-1.97-1.32-3.3-3.06-3.96-5.25-.42-1.33-.63-3.75-.63-7.22v-20.7Z"/><path class="cls-1" d="m678.17,214.74l-2.7,2.08c-1.49-1.95-3.28-3.42-5.37-4.42-2.09-1-4.39-1.5-6.89-1.5-2.73,0-5.26.66-7.59,1.97-2.33,1.31-4.14,3.07-5.42,5.28-1.28,2.21-1.93,4.7-1.93,7.48,0,4.17,1.43,7.66,4.3,10.46,2.87,2.79,6.49,4.2,10.85,4.2,4.8,0,8.82-1.88,12.05-5.64l2.7,2.05c-1.71,2.18-3.85,3.86-6.4,5.05-2.55,1.18-5.41,1.78-8.57,1.78-6,0-10.73-2-14.19-5.99-2.91-3.37-4.36-7.44-4.36-12.22,0-5.02,1.76-9.24,5.28-12.67,3.52-3.43,7.93-5.14,13.23-5.14,3.2,0,6.09.63,8.67,1.9,2.58,1.27,4.69,3.04,6.34,5.33Z"/><path class="cls-1" d="m717.3,214.74l-2.71,2.08c-1.49-1.95-3.28-3.42-5.37-4.42-2.09-1-4.39-1.5-6.89-1.5-2.73,0-5.26.66-7.6,1.97-2.33,1.31-4.14,3.07-5.42,5.28-1.28,2.21-1.92,4.7-1.92,7.48,0,4.17,1.43,7.66,4.31,10.46,2.86,2.79,6.48,4.2,10.85,4.2,4.8,0,8.81-1.88,12.05-5.64l2.71,2.05c-1.71,2.18-3.85,3.86-6.4,5.05-2.55,1.18-5.41,1.78-8.57,1.78-6,0-10.73-2-14.19-5.99-2.91-3.37-4.36-7.44-4.36-12.22,0-5.02,1.76-9.24,5.29-12.67,3.52-3.43,7.92-5.14,13.23-5.14,3.2,0,6.09.63,8.67,1.9,2.58,1.27,4.69,3.04,6.34,5.33Z"/><path class="cls-1" d="m725.07,208.38h3.43v34.28h-3.43v-34.28Z"/><path class="cls-1" d="m754.74,207.51c5.19,0,9.54,1.73,13.04,5.2,3.5,3.46,5.25,7.73,5.25,12.8s-1.75,9.27-5.24,12.78c-3.49,3.49-7.74,5.24-12.77,5.24s-9.38-1.74-12.87-5.22c-3.5-3.49-5.25-7.69-5.25-12.64,0-3.29.8-6.35,2.39-9.16,1.6-2.81,3.77-5.01,6.52-6.61,2.75-1.59,5.73-2.38,8.93-2.38Zm.16,3.33c-2.54,0-4.95.66-7.22,1.98-2.27,1.33-4.05,3.11-5.33,5.34-1.27,2.25-1.91,4.74-1.91,7.49,0,4.08,1.41,7.51,4.24,10.32,2.82,2.81,6.22,4.21,10.22,4.21,2.66,0,5.12-.64,7.38-1.93,2.27-1.3,4.03-3.06,5.3-5.3,1.27-2.25,1.9-4.73,1.9-7.47s-.64-5.18-1.9-7.38c-1.27-2.19-3.05-3.96-5.36-5.29-2.3-1.32-4.74-1.98-7.32-1.98Zm1.69-12.35h5.02l-6.88,7.18h-3.21l5.08-7.18Z"/><path class="cls-1" d="m781.75,242.66v-34.28h.74l22.82,26.28v-26.28h3.38v34.28h-.78l-22.63-25.96v25.96h-3.54Z"/><path class="cls-1" d="m830.42,208.38h3.94l8.78,14.14,8.63-14.14h3.97l-10.87,17.9v16.38h-3.38v-16.38l-11.07-17.9Z"/><path class="cls-1" d="m877.43,208.38h6.83c3.91,0,6.56.17,7.92.51,1.96.49,3.56,1.48,4.81,2.98,1.24,1.5,1.86,3.38,1.86,5.65s-.61,4.17-1.83,5.65c-1.21,1.48-2.88,2.48-5.01,3-1.55.38-4.46.56-8.72.56h-2.45v15.94h-3.42v-34.28Zm3.42,3.35v11.64l5.81.06c2.34,0,4.06-.21,5.15-.64,1.09-.42,1.94-1.11,2.57-2.07.62-.95.94-2.02.94-3.19s-.32-2.21-.94-3.16c-.62-.95-1.44-1.64-2.46-2.03-1.01-.4-2.68-.61-5-.61h-6.06Z"/><path class="cls-1" d="m906.58,208.38h6.83c3.81,0,6.39.15,7.74.47,2.03.46,3.69,1.47,4.96,3,1.27,1.53,1.91,3.42,1.91,5.66,0,1.87-.44,3.51-1.32,4.92-.87,1.42-2.13,2.49-3.76,3.21-1.63.71-3.88,1.09-6.76,1.11l12.33,15.91h-4.24l-12.33-15.91h-1.94v15.91h-3.42v-34.28Zm3.42,3.35v11.66l5.91.04c2.29,0,3.98-.21,5.08-.65,1.1-.44,1.95-1.13,2.57-2.08.62-.96.92-2.03.92-3.21s-.31-2.19-.93-3.13c-.62-.94-1.44-1.61-2.46-2.02-1.01-.4-2.69-.61-5.04-.61h-6.05Z"/><path class="cls-1" d="m952.57,207.51c5.19,0,9.54,1.73,13.04,5.2,3.5,3.46,5.24,7.73,5.24,12.8s-1.74,9.27-5.23,12.78c-3.49,3.49-7.75,5.24-12.77,5.24s-9.38-1.74-12.88-5.22c-3.49-3.49-5.25-7.69-5.25-12.64,0-3.29.8-6.35,2.39-9.16,1.59-2.81,3.76-5.01,6.52-6.61,2.75-1.59,5.73-2.38,8.93-2.38Zm.15,3.33c-2.53,0-4.94.66-7.21,1.98-2.28,1.33-4.05,3.11-5.33,5.34-1.27,2.25-1.91,4.74-1.91,7.49,0,4.08,1.41,7.51,4.25,10.32,2.82,2.81,6.23,4.21,10.2,4.21,2.67,0,5.13-.64,7.4-1.93,2.26-1.3,4.03-3.06,5.3-5.3,1.26-2.25,1.89-4.73,1.89-7.47s-.63-5.18-1.89-7.38c-1.27-2.19-3.06-3.96-5.36-5.29-2.3-1.32-4.75-1.98-7.34-1.98Z"/><path class="cls-1" d="m977.31,242.66l4.9-34.28h.56l13.94,28.13,13.81-28.13h.55l4.93,34.28h-3.36l-3.39-24.52-12.12,24.52h-.88l-12.27-24.7-3.36,24.7h-3.31Z"/><path class="cls-1" d="m1040.24,207.51c5.19,0,9.54,1.73,13.04,5.2,3.5,3.46,5.24,7.73,5.24,12.8s-1.74,9.27-5.24,12.78c-3.49,3.49-7.74,5.24-12.77,5.24s-9.37-1.74-12.88-5.22c-3.49-3.49-5.24-7.69-5.24-12.64,0-3.29.79-6.35,2.39-9.16,1.59-2.81,3.76-5.01,6.52-6.61,2.75-1.59,5.73-2.38,8.93-2.38Zm.15,3.33c-2.53,0-4.93.66-7.21,1.98-2.27,1.33-4.05,3.11-5.33,5.34-1.27,2.25-1.91,4.74-1.91,7.49,0,4.08,1.4,7.51,4.23,10.32,2.82,2.81,6.23,4.21,10.21,4.21,2.67,0,5.13-.64,7.4-1.93,2.26-1.3,4.03-3.06,5.3-5.3,1.26-2.25,1.9-4.73,1.9-7.47s-.63-5.18-1.9-7.38c-1.27-2.19-3.06-3.96-5.36-5.29-2.3-1.32-4.75-1.98-7.34-1.98Z"/><path class="cls-1" d="m1098.9,214.74l-2.71,2.08c-1.49-1.95-3.28-3.42-5.38-4.42-2.08-1-4.39-1.5-6.88-1.5-2.74,0-5.27.66-7.6,1.97-2.33,1.31-4.14,3.07-5.43,5.28-1.28,2.21-1.92,4.7-1.92,7.48,0,4.17,1.44,7.66,4.3,10.46,2.87,2.79,6.49,4.2,10.86,4.2,4.8,0,8.82-1.88,12.05-5.64l2.71,2.05c-1.71,2.18-3.84,3.86-6.4,5.05-2.56,1.18-5.41,1.78-8.56,1.78-6,0-10.74-2-14.2-5.99-2.9-3.37-4.36-7.44-4.36-12.22,0-5.02,1.76-9.24,5.29-12.67,3.52-3.43,7.93-5.14,13.22-5.14,3.2,0,6.09.63,8.67,1.9,2.58,1.27,4.69,3.04,6.34,5.33Z"/><path class="cls-1" d="m1106.66,208.38h3.43v34.28h-3.43v-34.28Z"/><path class="cls-1" d="m1136.34,207.51c5.2,0,9.55,1.73,13.04,5.2,3.5,3.46,5.26,7.73,5.26,12.8s-1.76,9.27-5.24,12.78c-3.5,3.49-7.75,5.24-12.77,5.24s-9.38-1.74-12.88-5.22c-3.5-3.49-5.25-7.69-5.25-12.64,0-3.29.8-6.35,2.39-9.16,1.6-2.81,3.77-5.01,6.52-6.61,2.76-1.59,5.73-2.38,8.93-2.38Zm.16,3.33c-2.54,0-4.94.66-7.21,1.98-2.27,1.33-4.05,3.11-5.32,5.34-1.28,2.25-1.91,4.74-1.91,7.49,0,4.08,1.41,7.51,4.23,10.32,2.83,2.81,6.24,4.21,10.22,4.21,2.66,0,5.12-.64,7.39-1.93,2.27-1.3,4.04-3.06,5.3-5.3,1.26-2.25,1.9-4.73,1.9-7.47s-.64-5.18-1.9-7.38c-1.27-2.19-3.06-3.96-5.36-5.29-2.3-1.32-4.74-1.98-7.33-1.98Zm1.7-12.35h5.01l-6.88,7.18h-3.22l5.08-7.18Z"/><path class="cls-1" d="m1163.35,242.66v-34.28h.75l22.82,26.28v-26.28h3.38v34.28h-.77l-22.63-25.96v25.96h-3.55Z"/><path class="cls-1" d="m1214.72,242.66v-34.28h7.11c5.12,0,8.84.41,11.16,1.23,3.32,1.17,5.92,3.19,7.8,6.07,1.87,2.88,2.8,6.3,2.8,10.28,0,3.43-.75,6.45-2.23,9.07-1.48,2.6-3.4,4.54-5.78,5.78-2.37,1.25-5.69,1.87-9.97,1.87h-10.9Zm3.28-3.24h3.96c4.75,0,8.03-.3,9.86-.89,2.58-.83,4.61-2.34,6.08-4.53,1.49-2.18,2.23-4.85,2.23-8,0-3.31-.8-6.12-2.41-8.48-1.6-2.34-3.83-3.95-6.69-4.82-2.14-.65-5.67-.98-10.6-.98h-2.42v27.69Z"/><path class="cls-1" d="m1252.21,208.38h19.65v3.35h-16.22v10.75h16.08v3.35h-16.08v13.47h16.08v3.36h-19.51v-34.28Z"/><path class="cls-1" d="m1325.79,214.74l-2.7,2.08c-1.49-1.95-3.28-3.42-5.38-4.42-2.09-1-4.39-1.5-6.89-1.5-2.73,0-5.26.66-7.6,1.97-2.32,1.31-4.13,3.07-5.41,5.28-1.28,2.21-1.92,4.7-1.92,7.48,0,4.17,1.42,7.66,4.29,10.46,2.87,2.79,6.49,4.2,10.85,4.2,4.81,0,8.82-1.88,12.06-5.64l2.7,2.05c-1.71,2.18-3.84,3.86-6.4,5.05-2.55,1.18-5.42,1.78-8.57,1.78-5.99,0-10.73-2-14.19-5.99-2.91-3.37-4.36-7.44-4.36-12.22,0-5.02,1.77-9.24,5.28-12.67,3.52-3.43,7.93-5.14,13.23-5.14,3.19,0,6.09.63,8.66,1.9,2.58,1.27,4.7,3.04,6.34,5.33Z"/><path class="cls-1" d="m1347.75,208.38l15.99,34.28h-3.7l-5.4-11.27h-14.77l-5.33,11.27h-3.83l16.2-34.28h.84Zm-.44,7.29l-5.87,12.4h11.72l-5.85-12.4Z"/><path class="cls-1" d="m1367.55,236.27l2.92-1.74c2.05,3.78,4.42,5.66,7.11,5.66,1.15,0,2.23-.27,3.24-.8,1.01-.53,1.78-1.25,2.31-2.16.53-.9.79-1.86.79-2.86,0-1.15-.39-2.28-1.17-3.38-1.07-1.52-3.03-3.36-5.88-5.5-2.86-2.16-4.64-3.72-5.33-4.69-1.21-1.61-1.81-3.36-1.81-5.24,0-1.49.36-2.86,1.07-4.09.71-1.23,1.72-2.19,3.01-2.89,1.29-.71,2.71-1.06,4.24-1.06,1.61,0,3.13.4,4.53,1.2,1.41.8,2.9,2.27,4.47,4.42l-2.8,2.12c-1.29-1.71-2.39-2.84-3.3-3.38-.91-.54-1.9-.81-2.97-.81-1.39,0-2.52.41-3.4,1.26-.87.83-1.31,1.87-1.31,3.09,0,.75.16,1.47.46,2.18.32.7.88,1.46,1.7,2.28.46.44,1.93,1.58,4.43,3.42,2.97,2.19,5.01,4.15,6.11,5.86,1.1,1.71,1.65,3.42,1.65,5.15,0,2.49-.95,4.65-2.83,6.48-1.88,1.84-4.19,2.75-6.88,2.75-2.09,0-3.97-.56-5.67-1.67-1.7-1.11-3.25-2.98-4.69-5.59Z"/><path class="cls-1" d="m1409.71,208.38l15.99,34.28h-3.7l-5.39-11.27h-14.77l-5.34,11.27h-3.82l16.2-34.28h.84Zm-.43,7.29l-5.88,12.4h11.72l-5.84-12.4Z"/><path class="cls-1" d="m1429.51,236.27l2.92-1.74c2.05,3.78,4.42,5.66,7.11,5.66,1.14,0,2.22-.27,3.23-.8,1.02-.53,1.79-1.25,2.31-2.16.53-.9.8-1.86.8-2.86,0-1.15-.39-2.28-1.18-3.38-1.07-1.52-3.03-3.36-5.87-5.5-2.86-2.16-4.64-3.72-5.34-4.69-1.2-1.61-1.81-3.36-1.81-5.24,0-1.49.36-2.86,1.07-4.09.71-1.23,1.72-2.19,3.02-2.89,1.29-.71,2.71-1.06,4.23-1.06,1.62,0,3.14.4,4.54,1.2,1.41.8,2.89,2.27,4.46,4.42l-2.79,2.12c-1.29-1.71-2.39-2.84-3.3-3.38-.91-.54-1.9-.81-2.97-.81-1.39,0-2.52.41-3.4,1.26-.87.83-1.31,1.87-1.31,3.09,0,.75.16,1.47.46,2.18.32.7.89,1.46,1.71,2.28.45.44,1.93,1.58,4.42,3.42,2.97,2.19,5.01,4.15,6.12,5.86,1.1,1.71,1.65,3.42,1.65,5.15,0,2.49-.95,4.65-2.84,6.48-1.88,1.84-4.18,2.75-6.88,2.75-2.08,0-3.97-.56-5.67-1.67-1.7-1.11-3.26-2.98-4.69-5.59Z"/><path class="cls-2" d="m519.41,78.86l-14.43,13.75c-9.82-10.38-20.86-15.57-33.13-15.57-10.35,0-19.08,3.55-26.17,10.63-7.1,7.08-10.64,15.8-10.64,26.18,0,7.23,1.57,13.64,4.71,19.25,3.14,5.61,7.58,10.01,13.33,13.21,5.74,3.19,12.12,4.79,19.14,4.79,5.99,0,11.46-1.11,16.42-3.36,4.95-2.24,10.4-6.31,16.34-12.21l13.98,14.6c-8,7.82-15.57,13.23-22.69,16.26-7.12,3.02-15.25,4.53-24.39,4.53-16.85,0-30.64-5.34-41.38-16.02-10.73-10.68-16.1-24.38-16.1-41.08,0-10.81,2.44-20.42,7.33-28.81,4.89-8.4,11.89-15.15,21-20.26,9.11-5.11,18.92-7.66,29.43-7.66,8.94,0,17.55,1.89,25.83,5.66,8.28,3.77,15.41,9.14,21.41,16.11Z"/><path class="cls-2" d="m586.37,57.08c15.33,0,28.52,5.55,39.56,16.65,11.04,11.1,16.55,24.63,16.55,40.6s-5.44,29.2-16.33,40.15c-10.89,10.96-24.1,16.43-39.63,16.43s-29.79-5.62-40.55-16.88c-10.76-11.25-16.15-24.61-16.15-40.09,0-10.36,2.51-19.89,7.52-28.59,5.02-8.7,11.91-15.58,20.68-20.67,8.77-5.08,18.22-7.63,28.35-7.63Zm-.22,20.19c-10.04,0-18.47,3.49-25.3,10.46-6.83,6.97-10.25,15.84-10.25,26.6,0,11.98,4.31,21.46,12.91,28.44,6.69,5.45,14.36,8.18,23.02,8.18,9.79,0,18.12-3.54,25-10.61,6.89-7.07,10.33-15.79,10.33-26.16s-3.47-19.04-10.4-26.19c-6.93-7.15-15.37-10.73-25.3-10.73Z"/><path class="cls-2" d="m655.82,59.81h19.79l46.38,71.33V59.81h20.63v108.39h-19.84l-46.32-71.11v71.11h-20.63V59.81Z"/><path class="cls-2" d="m767.92,59.81h21.88c11.84,0,20.37,1.09,25.6,3.28,5.23,2.19,9.36,5.73,12.38,10.61,3.02,4.89,4.54,10.74,4.54,17.57,0,7.57-1.98,13.86-5.93,18.86-3.96,5.01-9.32,8.5-16.1,10.47-3.98,1.13-11.23,1.69-21.74,1.69v45.9h-20.63V59.81Zm20.63,42.37h6.56c5.15,0,8.75-.37,10.76-1.1,2.02-.74,3.6-1.96,4.75-3.66,1.15-1.7,1.73-3.76,1.73-6.18,0-4.19-1.62-7.25-4.86-9.17-2.36-1.43-6.73-2.14-13.12-2.14h-5.82v22.25Z"/><path class="cls-2" d="m845.6,59.81h21.86c11.97,0,20.5,1.07,25.58,3.21,5.07,2.14,9.16,5.68,12.26,10.64,3.09,4.96,4.64,10.83,4.64,17.61,0,7.12-1.71,13.09-5.12,17.88-3.41,4.79-8.56,8.4-15.44,10.86l25.68,48.19h-22.55l-24.38-45.9h-1.89v45.9h-20.63V59.81Zm20.63,42.37h6.46c6.56,0,11.08-.86,13.55-2.58,2.47-1.72,3.71-4.59,3.71-8.57,0-2.36-.62-4.42-1.84-6.17-1.22-1.76-2.86-3.01-4.92-3.78-2.05-.76-5.82-1.14-11.31-1.14h-5.66v22.25Z"/><path class="cls-2" d="m976.12,57.08c15.33,0,28.53,5.55,39.56,16.65,11.04,11.1,16.56,24.63,16.56,40.6s-5.45,29.2-16.33,40.15c-10.89,10.96-24.11,16.43-39.64,16.43s-29.79-5.62-40.55-16.88c-10.76-11.25-16.14-24.61-16.14-40.09,0-10.36,2.51-19.89,7.51-28.59,5.02-8.7,11.92-15.58,20.69-20.67,8.77-5.08,18.22-7.63,28.35-7.63Zm-.22,20.19c-10.03,0-18.46,3.49-25.3,10.46-6.84,6.97-10.25,15.84-10.25,26.6,0,11.98,4.3,21.46,12.9,28.44,6.69,5.45,14.36,8.18,23.01,8.18,9.78,0,18.12-3.54,25-10.61,6.89-7.07,10.33-15.79,10.33-26.16s-3.47-19.04-10.41-26.19c-6.93-7.15-15.37-10.73-25.3-10.73Z"/><path class="cls-3" d="m1148.29,78.86l-14.42,13.75c-9.82-10.38-20.86-15.57-33.13-15.57-10.36,0-19.08,3.55-26.17,10.63-7.1,7.08-10.64,15.8-10.64,26.18,0,7.23,1.57,13.64,4.72,19.25,3.13,5.61,7.58,10.01,13.32,13.21,5.75,3.19,12.13,4.79,19.14,4.79,5.99,0,11.46-1.11,16.41-3.36,4.96-2.24,10.41-6.31,16.35-12.21l13.98,14.6c-8.01,7.82-15.57,13.23-22.7,16.26-7.12,3.02-15.25,4.53-24.39,4.53-16.85,0-30.64-5.34-41.37-16.02-10.74-10.68-16.1-24.38-16.1-41.08,0-10.81,2.45-20.42,7.33-28.81,4.89-8.4,11.89-15.15,21-20.26,9.11-5.11,18.92-7.66,29.43-7.66,8.95,0,17.56,1.89,25.84,5.66,8.27,3.77,15.41,9.14,21.4,16.11Z"/><path class="cls-3" d="m1199.41,59.81h20.93l41.69,108.39h-21.44l-8.48-22.32h-44.23l-8.82,22.32h-21.44l41.8-108.39Zm10.59,28.74l-14.54,37.21h28.99l-14.45-37.21Z"/><path class="cls-3" d="m1334.86,74.54l-15.28,13.48c-5.36-7.47-10.83-11.2-16.39-11.2-2.7,0-4.92.73-6.64,2.18-1.73,1.45-2.59,3.08-2.59,4.9s.61,3.54,1.85,5.16c1.67,2.16,6.71,6.8,15.13,13.93,7.87,6.58,12.64,10.73,14.32,12.45,4.18,4.22,7.14,8.27,8.89,12.13,1.75,3.86,2.62,8.07,2.62,12.63,0,8.89-3.07,16.23-9.22,22.03-6.15,5.8-14.16,8.7-24.05,8.7-7.72,0-14.45-1.89-20.17-5.67-5.73-3.78-10.63-9.73-14.72-17.83l17.34-10.47c5.23,9.58,11.23,14.37,18.01,14.37,3.54,0,6.52-1.03,8.93-3.1,2.4-2.06,3.61-4.45,3.61-7.15,0-2.46-.91-4.91-2.72-7.37-1.82-2.46-5.84-6.21-12.04-11.27-11.81-9.63-19.44-17.06-22.88-22.29-3.45-5.23-5.17-10.45-5.17-15.66,0-7.52,2.87-13.96,8.6-19.34,5.73-5.38,12.8-8.07,21.21-8.07,5.41,0,10.57,1.25,15.45,3.76,4.9,2.5,10.19,7.07,15.9,13.71Z"/><path class="cls-3" d="m1384.24,59.81h20.93l41.68,108.39h-21.44l-8.48-22.32h-44.23l-8.81,22.32h-21.45l41.8-108.39Zm10.6,28.74l-14.54,37.21h28.99l-14.45-37.21Z"/><rect class="cls-3" x="1515.92" y="17.09" width="10.54" height="276.1"/></svg>