<svg id="Capa_1" data-name="Capa 1" xmlns="http://www.w3.org/2000/svg" viewBox="0 0 2191.28 1581.18"><defs><style>.cls-1{fill:#8cc04b;stroke:#8cc04b;stroke-miterlimit:10;}.cls-2{fill:#3f3f3e;}</style></defs><path class="cls-1" d="M1354.69.66c-99.63,2.84-183,36-250.93,90.69-76.66,56.23-133.84,139.12-140.88,302.89C956.39,545,926,628.58,874.25,674a235.84,235.84,0,0,1-73.14,40.51c-41.5,12.8-81.63,11.77-107.37,8.77C588.4,705.84,508,614.58,508,504.3c0-122.71,99.47-222.18,222.18-222.18a221,221,0,0,1,94.16,21.16l44.85-69.9a297.14,297.14,0,0,0-136.08-32.85c-164.85,0-298.48,133.64-298.48,298.49S568.22,797.5,733.07,797.5c1.73,0,3.41-.2,5.13-.23,45.56-.22,103.14-10.61,158-48.63a298.74,298.74,0,0,0,125-172.35c19.31-58.35,22-114.76,26.24-167.27,0-1.12-.08-2.22-.08-3.34,0-166.3,134.82-301.12,301.12-301.12s301.13,134.82,301.13,301.12c0,1-.07,1.95-.08,2.93,0,.22,0,.44,0,.66,0,165.05-133.8,298.85-298.85,298.85A297,297,0,0,1,1237,685.38c-4-1.58-7.88-3.24-11.76-5-1.25-.58-2.53-1.1-3.77-1.7a301.22,301.22,0,0,1-64.31-40.51l-74.84,58.87a400,400,0,0,0,272.37,106.61c221.74,0,401.51-179.76,401.51-401.5S1576.35-5.68,1354.69.66Z"/><polygon class="cls-1" points="699.61 916.81 699.61 669.83 586.03 568.13 615.09 531.15 700.05 603.35 700.05 473.04 747.16 473.04 747.16 603.35 834.33 517.95 866.03 552.28 747.16 669.83 747.16 917.47 699.61 916.81"/><polygon class="cls-1" points="1338.85 916.81 1338.85 564.61 1225.26 462.92 1254.32 425.94 1339.29 498.13 1339.29 373.33 1386.39 373.33 1386.39 498.13 1473.56 412.73 1505.26 447.07 1386.39 564.61 1386.39 917.47 1338.85 916.81"/><path class="cls-2" d="M264,1190.93h46.75v133c-34.09,28.74-81.33,43.35-129.07,43.35C77,1367.25,0,1293.7,0,1192.88s77-174.37,182.65-174.37c54.06,0,99.85,18,131,52.61l-30.2,30.19c-28.25-27.27-60.4-39.45-98.87-39.45-78.91,0-135.89,55-135.89,131,0,75,57,131,135.4,131,28.74,0,55.52-6.33,79.88-21.92Z"/><path class="cls-2" d="M663.37,1321v42.37H416V1022.41h240.6v42.37H464.65V1169.5h171v41.4h-171V1321Z"/><path class="cls-2" d="M1045.72,1022.41,896.19,1363.35H848L698,1022.41h52.6L873.3,1302.47,997,1022.41Z"/><path class="cls-2" d="M1070.07,1192.88c0-99.85,77-174.37,181.68-174.37,103.74,0,180.7,74,180.7,174.37s-77,174.37-180.7,174.37C1147,1367.25,1070.07,1292.73,1070.07,1192.88Zm313.67,0c0-75.49-56.5-131-132-131-76.47,0-133,55.53-133,131s56.5,131,133,131C1327.24,1323.9,1383.74,1268.38,1383.74,1192.88Z"/><path class="cls-2" d="M1747.09,1363.35l-73.55-104.72c-6.82.49-14.12,1-21.43,1h-84.26v103.74h-48.71V1022.41h133c88.65,0,142.22,44.81,142.22,118.84,0,52.6-27.27,90.6-75,107.64l80.85,114.46Zm-1.46-222.1c0-48.7-32.64-76.47-95-76.47h-82.8v153.43h82.8C1713,1218.21,1745.63,1190,1745.63,1141.25Z"/><path class="cls-2" d="M2102.64,1278.12H1921.45l-37.5,85.23h-50.17l154.4-340.94h48.22l154.88,340.94h-51.14Zm-17-39-73.54-167.06-73.55,167.06Z"/><path class="cls-2" d="M511.63,1580.35l-20.91-31.57q-4.44.29-6.79.28H457.35v31.29h-9.56v-96.79h36.14q18.13,0,28,8.38t9.9,23.75q0,12-5.81,20.08T499.44,1547l23.26,33.37Zm-27.7-39.88q13.85,0,21.33-6.3t7.47-18.21q0-11.62-7.47-17.72t-21.33-6.09H457.35v48.32Z"/><path class="cls-2" d="M575.6,1483.56h64.8v8.59H585.15v34.61h49.44v8.59H585.15v36.42H642.2v8.58H575.6Z"/><path class="cls-2" d="M734,1493.6a48.67,48.67,0,0,0-13.29-2q-10,0-16,4a12.24,12.24,0,0,0-6,10.73A14.06,14.06,0,0,0,702,1516a23.45,23.45,0,0,0,8.17,5.89,130,130,0,0,0,13.3,4.78,114.65,114.65,0,0,1,15.85,5.74,28.15,28.15,0,0,1,10.25,8.24q4.21,5.4,4.22,14.27a22.53,22.53,0,0,1-4.36,13.7,27.93,27.93,0,0,1-12.26,9.21,47.21,47.21,0,0,1-18.13,3.26,50.79,50.79,0,0,1-19.74-4,53.2,53.2,0,0,1-16.54-10.66l4.43-7.9a47.67,47.67,0,0,0,15.09,10,43.42,43.42,0,0,0,16.89,3.59q11.09,0,17.59-4.5a14,14,0,0,0,6.51-12.11,14.75,14.75,0,0,0-3.33-10,22.11,22.11,0,0,0-8.17-6q-4.85-2.07-13.57-4.84a139.29,139.29,0,0,1-15.78-5.75,26.65,26.65,0,0,1-10.11-8q-4.16-5.33-4.15-13.92a20.84,20.84,0,0,1,4.15-12.87,26.26,26.26,0,0,1,11.63-8.52,46.67,46.67,0,0,1,17.31-3,55.73,55.73,0,0,1,15.86,2.36,55.07,55.07,0,0,1,14,6.23l-4.15,8.17A50.23,50.23,0,0,0,734,1493.6Z"/><path class="cls-2" d="M805.18,1483.56h9.56v96.79h-9.56Z"/><path class="cls-2" d="M937.08,1489.93a48,48,0,0,1-.07,84,51.67,51.67,0,0,1-25.48,6.37H872.89v-96.79H911.8A51.12,51.12,0,0,1,937.08,1489.93Zm-4.92,76.58a39.83,39.83,0,0,0-.21-69.1,40.14,40.14,0,0,0-20.28-5.26H882.45v79.62h29.63A39.51,39.51,0,0,0,932.16,1566.51Z"/><path class="cls-2" d="M1010.4,1483.56h64.8v8.59H1020v34.61h49.43v8.59H1020v36.42h57v8.58h-66.6Z"/><path class="cls-2" d="M1198.3,1483.56h9.42v96.79h-10.11l-60-82v82h-9.55v-96.79h10.1l60.1,82Z"/><path class="cls-2" d="M1322.92,1494.36a41.36,41.36,0,0,0-36.34,2.22,40.43,40.43,0,0,0-20.29,35.17,39.33,39.33,0,0,0,5.47,20.36,40.75,40.75,0,0,0,14.82,14.74,39.92,39.92,0,0,0,20.56,5.47,41.13,41.13,0,0,0,15.65-3.11,44.5,44.5,0,0,0,13.57-8.66l5.81,6.23a55.88,55.88,0,0,1-16.48,10.53,48.84,48.84,0,0,1-19,3.87,50.06,50.06,0,0,1-43.41-24.64,47.78,47.78,0,0,1-6.71-24.79,46.77,46.77,0,0,1,6.78-24.65,50.71,50.71,0,0,1,43.62-24.37,51.57,51.57,0,0,1,35,13.85l-5.67,6.64A42.76,42.76,0,0,0,1322.92,1494.36Z"/><path class="cls-2" d="M1390.77,1483.56h9.56v96.79h-9.56Z"/><path class="cls-2" d="M1530.77,1580.35l-11.5-25.75h-53.72l-11.36,25.75h-10.25l43.62-96.79h10l43.62,96.79ZM1469.29,1546h46.24l-23.26-52.34Z"/><path class="cls-2" d="M1584.77,1483.56h9.55v88.21H1637v8.58h-52.2Z"/></svg>